<?xml version="1.0" standalone="no"?>
<!DOCTYPE svg PUBLIC "-//W3C//DTD SVG 1.1//EN" "http://www.w3.org/Graphics/SVG/1.1/DTD/svg11.dtd" >
<svg xmlns="http://www.w3.org/2000/svg" xmlns:xlink="http://www.w3.org/1999/xlink" version="1.1">
<metadata>
Created by FontForge 20170731 at Thu Jan 16 09:35:55 2020
 By Aleksey,,,
Copyright 2019 The Baloo 2 Project Authors (https://github.com/EkType/Baloo2)
</metadata>
<defs>
<font id="BalooPaaji2-Regular" horiz-adv-x="0" >
  <font-face 
    font-family="Baloo Paaji 2"
    font-weight="400"
    font-stretch="normal"
    units-per-em="1000"
    panose-1="3 8 5 2 4 3 2 2 2 0"
    ascent="800"
    descent="-200"
    x-height="462"
    cap-height="613"
    bbox="-460 -523 1209 1018"
    underline-thickness="50"
    underline-position="-150"
    unicode-range="U+000D-FB04"
  />
<missing-glyph horiz-adv-x="645" 
d="M466 581h-286v-513h286v513zM99 589q0 28 15.5 44t43.5 16h328q29 0 44.5 -16t15.5 -44v-529q0 -28 -15.5 -44t-44.5 -16h-327q-28 0 -44 16t-16 44v529z" />
    <glyph glyph-name="f_f" unicode="ff" horiz-adv-x="783" 
d="M156 436h198q3 -5 6 -13t3 -19q0 -33 -31 -33h-175v-369q-5 -2 -15 -4.5t-22 -2.5q-43 0 -43 36v472q0 88 47.5 127.5t132.5 39.5q57 0 89.5 -15t32.5 -37t-17 -37q-18 10 -45 16.5t-52 6.5q-61 0 -85 -25t-24 -80v-63zM541 436h198q3 -5 6 -13t3 -19q0 -33 -31 -33h-175
v-369q-5 -2 -15 -4.5t-22 -2.5q-43 0 -43 36v472q0 88 47.5 127.5t132.5 39.5q57 0 89.5 -15t32.5 -37t-17 -37q-18 10 -45 16.5t-52 6.5q-61 0 -85 -25t-24 -80v-63z" />
    <glyph glyph-name="fi" unicode="fi" horiz-adv-x="640" 
d="M156 436h198q3 -5 6 -13t3 -19q0 -33 -31 -33h-175v-369q-5 -2 -15 -4.5t-22 -2.5q-43 0 -43 36v472q0 88 47.5 127.5t132.5 39.5q57 0 89.5 -15t32.5 -37t-17 -37q-18 10 -45 16.5t-52 6.5q-61 0 -85 -25t-24 -80v-63zM559 2q-5 -2 -15 -4.5t-22 -2.5q-43 0 -43 36v429
q5 2 15.5 4.5t22.5 2.5q42 0 42 -37v-428zM467 608q0 21 14.5 35.5t37.5 14.5t37 -14.5t14 -35.5t-14 -35.5t-37 -14.5t-37.5 14.5t-14.5 35.5z" />
    <glyph glyph-name="fl" unicode="fl" horiz-adv-x="645" 
d="M156 436h198q3 -5 6 -13t3 -19q0 -33 -31 -33h-175v-369q-5 -2 -15 -4.5t-22 -2.5q-43 0 -43 36v472q0 88 47.5 127.5t132.5 39.5q57 0 89.5 -15t32.5 -37t-17 -37q-18 10 -45 16.5t-52 6.5q-61 0 -85 -25t-24 -80v-63zM562 2q-5 -2 -15 -4.5t-22 -2.5q-43 0 -43 36v617
q5 2 15.5 4.5t21.5 2.5q43 0 43 -36v-617z" />
    <glyph glyph-name="f_f_i" unicode="ffi" horiz-adv-x="988" 
d="M156 436h198q3 -5 6 -13t3 -19q0 -33 -31 -33h-175v-369q-5 -2 -15 -4.5t-22 -2.5q-43 0 -43 36v472q0 88 47.5 127.5t132.5 39.5q57 0 89.5 -15t32.5 -37t-17 -37q-18 10 -45 16.5t-52 6.5q-61 0 -85 -25t-24 -80v-63zM507 436h198q3 -5 6 -13t3 -19q0 -33 -31 -33h-175
v-369q-5 -2 -15 -4.5t-22 -2.5q-43 0 -43 36v472q0 88 47.5 127.5t132.5 39.5q57 0 89.5 -15t32.5 -37t-17 -37q-18 10 -45 16.5t-52 6.5q-61 0 -85 -25t-24 -80v-63zM907 2q-5 -2 -15 -4.5t-22 -2.5q-43 0 -43 36v429q5 2 15.5 4.5t22.5 2.5q42 0 42 -37v-428zM815 608
q0 21 14.5 35.5t37.5 14.5t37 -14.5t14 -35.5t-14 -35.5t-37 -14.5t-37.5 14.5t-14.5 35.5z" />
    <glyph glyph-name="f_f_l" unicode="ffl" horiz-adv-x="1029" 
d="M913 2q-5 -2 -15 -4.5t-22 -2.5q-43 0 -43 36v617q5 2 15.5 4.5t21.5 2.5q43 0 43 -36v-617zM156 436h198q3 -5 6 -13t3 -19q0 -33 -31 -33h-175v-369q-5 -2 -15 -4.5t-22 -2.5q-43 0 -43 36v472q0 88 47.5 127.5t132.5 39.5q57 0 89.5 -15t32.5 -37t-17 -37
q-18 10 -45 16.5t-52 6.5q-61 0 -85 -25t-24 -80v-63zM507 436h198q3 -5 6 -13t3 -19q0 -33 -31 -33h-175v-369q-5 -2 -15 -4.5t-22 -2.5q-43 0 -43 36v472q0 88 47.5 127.5t132.5 39.5q57 0 89.5 -15t32.5 -37t-17 -37q-18 10 -45 16.5t-52 6.5q-61 0 -85 -25t-24 -80v-63z
" />
    <glyph glyph-name=".notdef" horiz-adv-x="645" 
d="M466 581h-286v-513h286v513zM99 589q0 28 15.5 44t43.5 16h328q29 0 44.5 -16t15.5 -44v-529q0 -28 -15.5 -44t-44.5 -16h-327q-28 0 -44 16t-16 44v529z" />
    <glyph glyph-name=".null" 
 />
    <glyph glyph-name="uni000D" unicode="&#xd;" horiz-adv-x="223" 
 />
    <glyph glyph-name="NULL" 
 />
    <glyph glyph-name="NULL" 
 />
    <glyph glyph-name="space" unicode=" " horiz-adv-x="200" 
 />
    <glyph glyph-name="exclam" unicode="!" horiz-adv-x="250" 
d="M164 582q0 -30 -0.5 -79t-2 -104.5t-3.5 -111.5t-4 -100q-13 -10 -33 -10q-14 0 -23 6t-10 19q-2 29 -4 81t-3 111t-1.5 117.5t-0.5 100.5q21 13 45 13q40 0 40 -43zM66 45q0 24 15 40t41 16t41 -16t15 -40t-15 -40t-41 -16t-41 16t-15 40z" />
    <glyph glyph-name="quotedbl" unicode="&#x22;" horiz-adv-x="270" 
d="M101 418q-14 -6 -31 -6q-32 0 -33 29l-6 174q18 10 39 10q37 0 37 -39q0 -13 -0.5 -34t-1.5 -45t-2 -47.5t-2 -41.5zM234 418q-15 -6 -32 -6q-31 0 -32 29l-7 174q9 5 18.5 7.5t21.5 2.5q36 0 36 -40q0 -12 -0.5 -33t-1.5 -45t-1.5 -47.5t-1.5 -41.5z" />
    <glyph glyph-name="numbersign" unicode="#" horiz-adv-x="667" 
d="M494 396l-36 -172h136q2 -6 4 -13.5t2 -16.5q0 -32 -34 -32h-121l-34 -165q-5 -1 -11.5 -1.5t-13.5 -0.5q-16 0 -25.5 7.5t-9.5 24.5q0 10 3 24.5t5 24.5l18 86h-148l-34 -165q-5 -1 -11.5 -1.5t-13.5 -0.5q-16 0 -25.5 7.5t-9.5 24.5q0 10 3 24.5t6 24.5l18 86h-113
q-2 6 -4 13.5t-2 15.5q0 33 33 33h99l36 172h-132q-2 6 -4.5 13t-2.5 16q0 33 34 33h118l32 153q5 1 12 1.5t13 0.5q16 0 25.5 -7.5t9.5 -24.5q0 -10 -3.5 -24t-5.5 -25l-16 -74h148l33 153q5 1 12 1.5t13 0.5q16 0 25.5 -7.5t9.5 -24.5q0 -10 -3.5 -24t-5.5 -25l-16 -74
h117q2 -6 4 -13.5t2 -16.5q0 -32 -34 -32h-102zM242 224h148l36 172h-148z" />
    <glyph glyph-name="dollar" unicode="$" horiz-adv-x="522" 
d="M257 55q67 0 101.5 30.5t34.5 78.5q0 42 -26.5 68t-83.5 43l-87 26q-64 19 -100.5 56t-36.5 100q0 67 43.5 109t118.5 52v79q5 2 13.5 3.5t19.5 1.5q40 0 40 -33v-49q34 -3 63 -10.5t50 -18t33 -23.5t12 -26q0 -14 -7 -24t-18 -16q-26 20 -67.5 35t-92.5 15
q-59 0 -92.5 -25t-33.5 -70q0 -35 24 -57t80 -38l61 -18q79 -23 124.5 -64.5t45.5 -115.5q0 -72 -47 -119.5t-135 -55.5v-78q-5 -2 -13 -3.5t-19 -1.5q-41 0 -41 33v50q-38 3 -69 11.5t-53 20.5t-33.5 26t-11.5 28q0 17 10.5 28.5t24.5 16.5q11 -11 27 -22.5t37 -21
t47 -15.5t57 -6z" />
    <glyph glyph-name="percent" unicode="%" horiz-adv-x="772" 
d="M335 474q0 -33 -11 -59t-30 -44.5t-45 -28.5t-55 -10q-30 0 -55.5 10t-44.5 28.5t-30 44.5t-11 59t11 59t30 44.5t44.5 28.5t55.5 10q29 0 55 -10t45 -28.5t30 -44.5t11 -59zM124 474q0 -39 19.5 -60.5t50.5 -21.5t50.5 21.5t19.5 60.5t-19.5 60.5t-50.5 21.5
t-50.5 -21.5t-19.5 -60.5zM554 616q23 -3 36.5 -11.5t13.5 -22.5q0 -10 -4 -19.5t-12 -20.5l-367 -549q-22 2 -36 11.5t-14 23.5t15 37zM719 135q0 -33 -11 -59.5t-30 -45t-44.5 -28.5t-55.5 -10q-29 0 -55 10t-45 28.5t-30 45t-11 59.5q0 32 11 58t30 44.5t45 28.5t55 10
q30 0 55.5 -10t44.5 -28.5t30 -44.5t11 -58zM508 135q0 -40 19.5 -61.5t50.5 -21.5t50.5 21.5t19.5 61.5q0 38 -19.5 59.5t-50.5 21.5t-50.5 -21.5t-19.5 -59.5z" />
    <glyph glyph-name="ampersand" unicode="&#x26;" horiz-adv-x="637" 
d="M565 -14q-11 0 -20 6t-20 17l-51 53q-33 -35 -81 -56t-114 -21q-52 0 -94 14.5t-72 40.5t-46.5 63.5t-16.5 83.5q0 70 37 116.5t94 67.5q-24 28 -36 55t-12 59q0 62 41.5 99t117.5 37q53 0 80.5 -15t27.5 -38q0 -12 -6.5 -21.5t-14.5 -14.5q-16 9 -37.5 15t-44.5 6
q-38 0 -60 -18.5t-22 -50.5q0 -31 16 -55t46 -55l188 -196q14 32 21.5 76t7.5 99q9 4 18.5 6.5t18.5 2.5q40 0 40 -45q0 -51 -13 -103t-37 -94l88 -91q-6 -43 -44 -43zM280 53q35 0 73 14t71 47l-194 203q-19 -6 -37 -16.5t-31.5 -27t-22 -38.5t-8.5 -49q0 -60 39.5 -96.5
t109.5 -36.5z" />
    <glyph glyph-name="quotesingle" unicode="'" horiz-adv-x="139" 
d="M103 418q-7 -2 -15.5 -4t-17.5 -2q-31 0 -33 29l-6 174q8 5 17.5 7.5t22.5 2.5q38 0 38 -40q0 -13 -0.5 -34t-1.5 -44.5l-2 -47t-2 -41.5z" />
    <glyph glyph-name="parenleft" unicode="(" horiz-adv-x="254" 
d="M204 -116q-16 0 -29 11.5t-27 31.5q-45 64 -69 149.5t-24 197.5t28 198.5t65 142.5q26 42 56 42q14 0 24.5 -8t15.5 -20q-54 -69 -83.5 -158.5t-29.5 -196.5t26.5 -193t86.5 -168q-5 -12 -15.5 -20.5t-24.5 -8.5z" />
    <glyph glyph-name="parenright" unicode=")" horiz-adv-x="254" 
d="M50 -116q-14 0 -24.5 8.5t-15.5 20.5q60 82 86.5 168t26.5 193t-29.5 196.5t-83.5 158.5q5 12 15.5 20t24.5 8q30 0 56 -42q37 -56 65 -142.5t28 -198.5t-24 -197.5t-69 -149.5q-14 -20 -27 -31.5t-29 -11.5z" />
    <glyph glyph-name="asterisk" unicode="*" horiz-adv-x="299" 
d="M50 579q5 0 10 -2t11 -4l53 -27l-3 94q5 3 13 6t18 3q13 0 21.5 -6t8.5 -20q0 -7 -2 -32t-3 -47l77 44q9 -4 17 -13.5t8 -21.5t-7 -18t-18 -11l-59 -28l63 -75q-2 -13 -12.5 -22t-22.5 -9q-11 0 -20 8.5t-16 17.5l-36 50l-51 -75q-5 -1 -13 -1q-20 0 -29 8.5t-9 20.5
q0 15 12 27l46 52l-84 28q-3 10 -3 21q0 14 8 23t22 9z" />
    <glyph glyph-name="plus" unicode="+" horiz-adv-x="548" 
d="M312 332h178q2 -6 4.5 -14t2.5 -17q0 -35 -35 -35h-150v-193q-8 -3 -15.5 -5t-18.5 -2q-20 0 -29.5 9t-9.5 31v160h-181q-3 7 -5 14.5t-2 17.5q0 34 35 34h153v189q8 3 16.5 5t20.5 2q19 0 27.5 -9t8.5 -31v-156z" />
    <glyph glyph-name="comma" unicode="," horiz-adv-x="145" 
d="M68 -94q-8 -14 -17 -20.5t-22 -6.5q-22 0 -36 17q7 19 15 44.5t16.5 53t15 53.5t10.5 47q8 4 17.5 6.5t20.5 2.5q18 0 28 -8.5t10 -28.5q0 -17 -6.5 -40t-15.5 -46.5t-19 -43.5t-17 -30z" />
    <glyph glyph-name="hyphen" unicode="-" horiz-adv-x="389" 
d="M61 228q-3 7 -5 14.5t-2 17.5q0 34 35 34h239q2 -6 4.5 -14t2.5 -17q0 -35 -35 -35h-239z" />
    <glyph glyph-name="period" unicode="." horiz-adv-x="141" 
d="M16 42q0 24 14.5 40t40.5 16t40 -16t14 -40q0 -23 -14 -39t-40 -16t-40.5 16t-14.5 39z" />
    <glyph glyph-name="slash" unicode="/" horiz-adv-x="305" 
d="M89 -105q-6 -1 -12 -1.5t-14 -0.5q-39 0 -39 36q0 11 4 26t6 24l184 726q6 1 12.5 1.5t13.5 0.5q17 0 28 -8.5t11 -27.5q0 -11 -3 -24.5t-6 -25.5z" />
    <glyph glyph-name="zero" unicode="0" horiz-adv-x="583" 
d="M447 304q0 67 -12.5 114t-33.5 77t-49.5 43.5t-60.5 13.5t-60 -14.5t-49 -44.5t-33.5 -77t-12.5 -112q0 -121 40.5 -185t114.5 -64q75 0 115.5 64t40.5 185zM291 -13q-53 0 -96.5 19.5t-75 59t-48.5 99t-17 139.5q0 86 20 146t53 98t75.5 55t88.5 17t89 -17.5t76 -55.5
t53 -98t20 -145q0 -80 -17 -139.5t-48.5 -99t-75.5 -59t-97 -19.5z" />
    <glyph glyph-name="one" unicode="1" horiz-adv-x="357" 
d="M45 470q-13 5 -21.5 15t-8.5 25q0 16 8 26t28 18l140 61h19q20 0 32 -12t12 -32v-572q-6 -2 -16 -4.5t-22 -2.5q-43 0 -43 37v501z" />
    <glyph glyph-name="two" unicode="2" horiz-adv-x="508" 
d="M57 545q0 13 13.5 26.5t36.5 24.5t54 17.5t66 6.5q97 0 151.5 -47t54.5 -127q0 -27 -7 -53.5t-23 -54t-42 -57.5t-63 -64l-163 -151h297q4 -5 7 -13t3 -19q0 -34 -31 -34h-353q-20 14 -20 40q0 29 24 52l180 173q30 29 51 53t33.5 45t18 41t5.5 41q0 48 -32 77.5
t-97 29.5q-45 0 -79 -15t-57 -32q-11 5 -19.5 15t-8.5 25z" />
    <glyph glyph-name="three" unicode="3" horiz-adv-x="506" 
d="M217 621q47 0 86 -10.5t67 -31.5t43.5 -52t15.5 -72q0 -30 -10 -53.5t-24.5 -40.5t-31.5 -27t-30 -13q20 -6 40 -18.5t36.5 -31t27 -44t10.5 -57.5q0 -45 -16.5 -79t-46.5 -56.5t-72 -34t-92 -11.5q-41 0 -75.5 6.5t-59.5 18t-39 25.5t-14 29q0 14 7.5 24t19.5 17
q26 -20 63.5 -36t97.5 -16q66 0 107 28.5t41 86.5q0 51 -38 82t-110 31h-83q-4 5 -7 14.5t-3 19.5q0 11 3 20t7 14h76q74 0 105.5 27.5t31.5 72.5q0 49 -35.5 74.5t-98.5 25.5q-48 0 -84.5 -14.5t-60.5 -31.5q-10 5 -18 15.5t-8 24.5q0 13 13 26.5t36.5 24t55 17t67.5 6.5z
" />
    <glyph glyph-name="four" unicode="4" horiz-adv-x="548" 
d="M323 609q9 2 20.5 3.5t20.5 1.5q21 0 38 -10t17 -39v-350h100q3 -5 6 -13.5t3 -19.5q0 -34 -31 -34h-78v-150q-5 -2 -14.5 -4t-20.5 -2q-43 0 -43 35v121h-289q-10 5 -17.5 17.5t-7.5 29.5q0 9 1.5 15.5t3.5 12.5zM344 530h-2l-222 -315h222z" />
    <glyph glyph-name="five" unicode="5" horiz-adv-x="538" 
d="M454 608q3 -5 6 -13.5t3 -18.5q0 -17 -8 -26.5t-23 -9.5h-256l-16 -180q17 9 47 17.5t65 8.5q45 0 83.5 -13t67.5 -37.5t45.5 -61t16.5 -84.5q0 -44 -15 -81t-44 -64t-71.5 -42.5t-96.5 -15.5q-43 0 -78.5 7.5t-60.5 19.5t-38.5 26.5t-13.5 28.5q0 16 10.5 27.5
t21.5 16.5q22 -20 62 -39.5t97 -19.5q69 0 107 38t38 98q0 61 -39 95t-102 34q-35 0 -64 -11t-54 -25q-27 2 -43.5 16.5t-16.5 37.5q0 6 0.5 15.5t1.5 18.5l17 191q2 21 13 33.5t32 12.5h306v0z" />
    <glyph glyph-name="six" unicode="6" horiz-adv-x="550" 
d="M455 561q0 -12 -6.5 -22.5t-16.5 -15.5q-22 11 -49.5 19.5t-59.5 8.5q-39 0 -72.5 -14t-59 -42.5t-40.5 -72t-16 -102.5q10 10 25.5 21t36 21t46.5 16.5t56 6.5q44 0 81 -12.5t64 -37.5t42 -62t15 -86q0 -47 -15 -84t-43 -62.5t-67.5 -39.5t-87.5 -14q-50 0 -93 16.5
t-74.5 52.5t-49 92.5t-17.5 136.5q0 94 23 158t60.5 103.5t85.5 56.5t98 17q26 0 50 -4t43 -11.5t30 -18.5t11 -25zM288 54q58 0 95 35t37 100t-37.5 96.5t-92.5 31.5q-54 0 -93 -22t-62 -54q1 -84 40.5 -135.5t112.5 -51.5z" />
    <glyph glyph-name="seven" unicode="7" horiz-adv-x="458" 
d="M415 608q23 -13 23 -40q0 -20 -11 -42l-251 -530q-6 -1 -11.5 -1h-11.5q-20 0 -33.5 9.5t-13.5 26.5q0 12 4.5 23.5t12.5 26.5l226 459h-316q-3 5 -6 13t-3 19q0 17 8 26.5t23 9.5h360z" />
    <glyph glyph-name="eight" unicode="8" horiz-adv-x="569" 
d="M59 161q0 31 9.5 56t25.5 44.5t37 33t44 22.5q-48 18 -74.5 52t-26.5 86q0 38 15 68.5t43 52t67 33t86 11.5q98 0 154.5 -44.5t56.5 -122.5q0 -53 -30 -86.5t-77 -49.5q25 -9 47 -23t38.5 -33t26 -44.5t9.5 -56.5q0 -41 -16.5 -73t-46 -54t-71 -34t-91.5 -12
q-103 0 -164.5 45.5t-61.5 128.5zM430 163q0 54 -41.5 87t-113.5 42q-62 -11 -99 -44t-37 -86q0 -51 38.5 -79.5t107.5 -28.5q66 0 105.5 27.5t39.5 81.5zM154 454q0 -28 11 -47.5t30.5 -32.5t45.5 -20.5t56 -10.5q60 15 89.5 41t29.5 69q0 48 -35 74t-96 26
q-60 0 -95.5 -27t-35.5 -72z" />
    <glyph glyph-name="nine" unicode="9" horiz-adv-x="552" 
d="M82 49q0 12 6.5 23t16.5 16q19 -11 49.5 -21.5t72.5 -10.5q39 0 73.5 12t60.5 39t41 70.5t15 106.5q-7 -8 -20 -18.5t-32.5 -20t-44.5 -16t-56 -6.5q-42 0 -81 11t-68 34t-46.5 60t-17.5 90q0 47 16.5 84.5t45 63.5t67 40t82.5 14q51 0 94.5 -17.5t75 -54t49 -92.5
t17.5 -133q0 -92 -19.5 -156t-55 -104t-85.5 -58t-110 -18q-30 0 -56.5 4t-46.5 12t-31.5 19.5t-11.5 26.5zM275 290q25 0 47.5 6.5t41.5 18t32.5 26t20.5 29.5q-2 85 -42.5 134t-112.5 49q-56 0 -93 -35t-37 -98q0 -35 11 -59.5t30.5 -40t45.5 -23t56 -7.5z" />
    <glyph glyph-name="colon" unicode=":" horiz-adv-x="189" 
d="M40 392q0 24 14 40t40 16t40.5 -16t14.5 -40t-14.5 -39.5t-40.5 -15.5t-40 15.5t-14 39.5zM40 42q0 24 14 40t40 16t40.5 -16t14.5 -40q0 -23 -14.5 -39t-40.5 -16t-40 16t-14 39z" />
    <glyph glyph-name="semicolon" unicode=";" horiz-adv-x="202" 
d="M46 392q0 24 14 40t40 16t40.5 -16t14.5 -40t-14.5 -39.5t-40.5 -15.5t-40 15.5t-14 39.5zM89 -94q-8 -14 -17 -20.5t-22 -6.5q-22 0 -36 17q7 19 15 44.5t16.5 53t15 53.5t10.5 47q8 4 17.5 6.5t20.5 2.5q18 0 28 -8.5t10 -28.5q0 -17 -6.5 -40t-15.5 -46.5t-19 -43.5
t-17 -30z" />
    <glyph glyph-name="less" unicode="&#x3c;" horiz-adv-x="473" 
d="M440 141q1 -5 1 -9v-9q0 -15 -10 -25t-27 -10q-14 0 -35 13l-305 166q-10 15 -10 33q0 28 17 38l334 171q33 -12 33 -38q0 -17 -10 -26.5t-26 -19.5l-270 -124z" />
    <glyph glyph-name="equal" unicode="=" horiz-adv-x="518" 
d="M58 363q-7 14 -7 31q0 34 35 34h374q2 -6 4 -13.5t2 -17.5q0 -34 -35 -34h-373zM58 161q-7 14 -7 31q0 34 35 34h374q2 -6 4 -14t2 -17q0 -34 -35 -34h-373z" />
    <glyph glyph-name="greater" unicode="&#x3e;" horiz-adv-x="460" 
d="M33 459q-1 5 -1 9v9q0 14 9.5 24.5t26.5 10.5q8 0 16.5 -3.5t18.5 -8.5l296 -166q10 -15 10 -34q0 -15 -4.5 -24t-12.5 -14l-324 -170q-17 5 -25 15.5t-8 22.5q0 16 9.5 26.5t26.5 18.5l260 127z" />
    <glyph glyph-name="question" unicode="?" horiz-adv-x="459" 
d="M115 200q-20 20 -20 44q0 14 8 23t28 14l69 18q66 17 101.5 50.5t35.5 87.5q0 48 -34.5 82.5t-107.5 34.5q-40 0 -80.5 -12.5t-64.5 -32.5q-23 17 -23 43q0 15 12.5 28t35.5 23t54 16t69 6q49 0 90 -14t70.5 -38.5t45.5 -59t16 -75.5q0 -85 -51.5 -136.5t-155.5 -77.5z
M104 45q0 24 15 40.5t41 16.5t41.5 -16.5t15.5 -40.5t-15.5 -40t-41.5 -16t-41 16t-15 40z" />
    <glyph glyph-name="at" unicode="@" horiz-adv-x="1000" 
d="M667 79q11 -8 25.5 -13t33.5 -5q33 0 57.5 15t41 42.5t24.5 65.5t8 83q0 71 -24 130t-68.5 101t-107.5 65.5t-141 23.5q-87 0 -158 -27.5t-120.5 -78t-76.5 -121t-27 -156.5q0 -82 25.5 -148.5t71.5 -113.5t111 -72.5t144 -25.5q38 0 67 4.5t49 10.5q13 -13 13 -31
q0 -23 -29.5 -36t-105.5 -13q-95 0 -173.5 30t-134.5 85t-86.5 133.5t-30.5 176.5q0 101 32.5 184t92.5 141.5t145 90.5t190 32q98 0 176 -27.5t132.5 -78.5t83.5 -122t29 -158q0 -130 -53 -200.5t-157 -70.5q-31 0 -61.5 10t-53.5 29q-21 -15 -50 -24.5t-69 -9.5
q-44 0 -79.5 13.5t-61 39t-39.5 63t-14 84.5q0 54 16.5 96.5t46.5 72t72.5 45t94.5 15.5q35 0 68 -8t56 -20q41 -21 41 -49q0 -7 -0.5 -15t-1.5 -15zM380 200q0 -65 32.5 -99.5t90.5 -34.5q48 0 86 30l25 248q-16 8 -39 13.5t-52 5.5q-64 0 -103.5 -42.5t-39.5 -120.5z" />
    <glyph glyph-name="A" unicode="A" horiz-adv-x="592" 
d="M428 162h-268q-7 -20 -15 -43.5t-15.5 -46t-14.5 -42t-11 -32.5q-14 -6 -33 -6q-16 0 -28.5 8.5t-12.5 27.5q0 9 3 18.5t7 20.5q15 42 38.5 108t51 140.5t56 150t52.5 135.5q8 4 24 8t33 4q20 0 38.5 -6t23.5 -20q24 -58 51.5 -132.5t55.5 -152.5t53.5 -153.5
t45.5 -136.5q-8 -9 -19 -14.5t-25 -5.5q-19 0 -29 8.5t-17 28.5zM294 545q-11 -30 -25 -68.5t-29 -80.5t-30 -85t-28 -82h225q-15 45 -31 90.5t-30.5 87.5t-27 77.5t-20.5 60.5h-4z" />
    <glyph glyph-name="B" unicode="B" horiz-adv-x="599" 
d="M516 455q0 -43 -20.5 -79.5t-68.5 -56.5q57 -19 85 -59.5t28 -91.5q0 -91 -65.5 -135t-186.5 -44q-42 0 -81.5 3.5t-75.5 13.5q-42 12 -42 46v512q0 29 33 38q34 10 72 13.5t83 3.5q113 0 176 -40t63 -124zM169 283v-216q24 -5 55.5 -8t63.5 -3q83 0 126 27.5t43 86.5
q0 52 -38.5 82.5t-113.5 30.5h-136zM169 349h136q63 0 95.5 28t32.5 76q0 99 -156 99q-35 0 -60.5 -2.5t-47.5 -6.5v-194z" />
    <glyph glyph-name="C" unicode="C" horiz-adv-x="588" 
d="M533 541q0 -14 -8.5 -24t-19.5 -15q-26 18 -61 34t-91 16q-46 0 -85 -16t-68 -47t-45.5 -78t-16.5 -108q0 -62 16 -108t44.5 -77t68.5 -46.5t89 -15.5q52 0 90.5 14.5t64.5 34.5q10 -4 19 -14.5t9 -24.5q0 -21 -24 -38q-23 -16 -63 -28.5t-102 -12.5q-63 0 -117 20
t-93.5 59.5t-62.5 98.5t-23 138t23.5 138.5t63.5 99.5t93.5 60t112.5 20q41 0 75.5 -7t59 -18.5t38 -26t13.5 -28.5z" />
    <glyph glyph-name="D" unicode="D" horiz-adv-x="652" 
d="M515 311q0 64 -19.5 109.5t-53 74.5t-78 42.5t-95.5 13.5q-32 0 -55.5 -2t-43.5 -6v-476q24 -6 51.5 -8t56.5 -2q118 0 177.5 64t59.5 190zM598 311q0 -82 -22.5 -142.5t-64 -100.5t-100.5 -59.5t-132 -19.5q-32 0 -72 2.5t-76 13.5q-42 13 -42 46v514q0 16 8 24.5
t25 13.5q31 10 70 13t78 3q73 0 133.5 -19.5t103.5 -58t67 -96t24 -134.5z" />
    <glyph glyph-name="E" unicode="E" horiz-adv-x="531" 
d="M133 0q-20 0 -32 12t-12 32v520q0 20 12 32t32 12h332q3 -5 6 -13.5t3 -18.5q0 -17 -8 -27t-23 -10h-273v-193h264q3 -5 6 -13.5t3 -18.5q0 -17 -8 -26.5t-23 -9.5h-242v-210h300q3 -5 6 -13t3 -19q0 -17 -8 -26.5t-23 -9.5h-315v0z" />
    <glyph glyph-name="F" unicode="F" horiz-adv-x="517" 
d="M465 608q3 -5 6 -13.5t3 -18.5q0 -17 -8 -27t-23 -10h-272v-208h259q3 -5 6 -13.5t3 -18.5q0 -17 -8 -27t-23 -10h-237v-261q-5 -2 -15.5 -4t-21.5 -2q-45 0 -45 36v533q0 20 12 32t32 12h332z" />
    <glyph glyph-name="G" unicode="G" horiz-adv-x="639" 
d="M570 70q0 -18 -10.5 -30t-31.5 -23q-25 -12 -69 -21t-89 -9q-70 0 -128 19t-100 58t-65 98.5t-23 140.5q0 80 24 140t65.5 99.5t96.5 59t117 19.5q42 0 77.5 -7t60.5 -18.5t39 -25.5t14 -28t-8 -24t-19 -15q-27 18 -64 33.5t-95 15.5q-48 0 -89 -16t-71 -47t-47 -78
t-17 -108q0 -65 17.5 -111.5t49 -76.5t74 -44.5t92.5 -14.5q36 0 68 6t50 15v184h-151q-3 5 -6 13.5t-3 18.5q0 17 8 26.5t23 9.5h167q18 0 30.5 -11.5t12.5 -30.5v-217z" />
    <glyph glyph-name="H" unicode="H" horiz-adv-x="654" 
d="M565 2q-6 -2 -16 -4.5t-22 -2.5q-44 0 -44 37v242h-312v-272q-6 -2 -16 -4.5t-22 -2.5q-44 0 -44 37v574q5 2 15.5 4.5t22.5 2.5q44 0 44 -37v-234h312v264q5 2 15.5 4.5t22.5 2.5q44 0 44 -37v-574v0z" />
    <glyph glyph-name="I" unicode="I" horiz-adv-x="262" 
d="M171 2q-5 -2 -15 -4.5t-22 -2.5q-44 0 -44 37v574q5 2 15.5 4.5t22.5 2.5q43 0 43 -37v-574v0z" />
    <glyph glyph-name="J" unicode="J" horiz-adv-x="385" 
d="M215 606q5 2 15.5 4.5t21.5 2.5q44 0 44 -37v-428q0 -45 -13 -75.5t-35.5 -49t-52 -26.5t-61.5 -8q-57 0 -83 13.5t-26 35.5q0 14 6 24t11 15q15 -7 36 -13t44 -6q45 0 69 21.5t24 72.5v454v0z" />
    <glyph glyph-name="K" unicode="K" horiz-adv-x="566" 
d="M171 290v-289q-6 -2 -16 -4.5t-22 -2.5q-44 0 -44 37v575q5 2 15.5 4.5t22.5 2.5q44 0 44 -37v-249l275 285q26 -1 39 -13t13 -28q0 -13 -7 -24t-20 -24l-216 -212q91 -89 157.5 -158.5t114.5 -112.5q-2 -22 -13.5 -34.5t-29.5 -12.5q-17 0 -30.5 9.5t-27.5 23.5z" />
    <glyph glyph-name="L" unicode="L" horiz-adv-x="501" 
d="M133 0q-19 0 -31.5 12t-12.5 32v562q5 2 15.5 4.5t22.5 2.5q44 0 44 -37v-506h287q11 -11 11 -33q0 -17 -9 -27t-24 -10h-303v0z" />
    <glyph glyph-name="M" unicode="M" horiz-adv-x="780" 
d="M435 158q-7 -5 -18.5 -9t-25.5 -4q-16 0 -28.5 5t-17.5 16q-54 112 -93 205t-63 154h-4q-3 -75 -6.5 -139.5t-7.5 -126t-8 -124.5t-8 -135q-6 -2 -15.5 -4t-20.5 -2q-22 0 -31 9t-9 26q0 10 1.5 43t4.5 80t6.5 104t8 116t9 116t8.5 104q8 7 23 13t34 6q46 0 64 -37
q19 -39 38.5 -82.5t39 -88.5t38 -89t35.5 -84h4q22 53 44 104.5t43 99.5t40 90t34 77q9 5 23 7.5t26 2.5q47 0 54 -32q4 -18 9 -59.5t10 -95.5t9.5 -116t8.5 -119.5t7 -106t5 -76.5q-18 -12 -42 -12q-15 0 -26.5 7.5t-13.5 27.5q-5 73 -9 145t-7.5 137t-6.5 119.5t-5 92.5
h-4q-11 -28 -25.5 -63t-34 -79t-43.5 -99.5t-54 -123.5z" />
    <glyph glyph-name="N" unicode="N" horiz-adv-x="660" 
d="M133 -5q-44 0 -44 36v565q18 18 54 18q24 0 41 -9.5t31 -34.5l191 -320q12 -21 25 -44.5t25 -47t22.5 -44t17.5 -34.5l4 1q-8 81 -9.5 163t-1.5 160v202q6 2 16 4.5t22 2.5q44 0 44 -36v-566q-9 -8 -23 -12.5t-31 -4.5q-24 0 -41 9.5t-31 34.5l-190 320q-12 20 -25.5 44
t-26 47t-23 44l-17.5 35l-4 -1q5 -48 8 -109.5t3 -116.5v-299q-5 -2 -15.5 -4.5t-21.5 -2.5z" />
    <glyph glyph-name="O" unicode="O" horiz-adv-x="689" 
d="M634 304q0 -78 -22 -137.5t-61 -99t-92 -60t-115 -20.5t-115 20.5t-92 60t-61 99t-22 137.5t22.5 137t61.5 99t92 60.5t114 20.5t114 -20.5t92 -60.5t61.5 -99t22.5 -137zM551 304q0 120 -56.5 184t-150.5 64q-47 0 -85 -16.5t-65 -48t-41.5 -77.5t-14.5 -106
q0 -120 56 -184t150 -64q95 0 151 64t56 184z" />
    <glyph glyph-name="P" unicode="P" horiz-adv-x="567" 
d="M171 217v-215q-6 -2 -16 -4.5t-22 -2.5q-44 0 -44 37v532q0 16 8 24.5t25 13.5q29 9 70.5 13t80.5 4q127 0 185.5 -53.5t58.5 -144.5q0 -93 -60 -148.5t-185 -55.5h-101zM267 285q80 0 124 33t44 102q0 68 -42.5 99.5t-121.5 31.5q-27 0 -53.5 -2.5t-47.5 -6.5v-257h97z
" />
    <glyph glyph-name="Q" unicode="Q" horiz-adv-x="690" 
d="M634 304q0 -122 -52.5 -198t-136.5 -104q37 -20 65.5 -34.5t53 -25.5t47 -20t47.5 -18q2 -7 2 -11.5v-8.5q0 -19 -11.5 -30.5t-32.5 -11.5q-32 0 -83.5 27.5t-117.5 72.5l-66 45h-5q-62 0 -115 20.5t-92 60t-61 99t-22 137.5t22.5 137t61.5 99t92 60.5t114 20.5
t114 -20.5t92 -60.5t61.5 -99t22.5 -137zM551 304q0 120 -56.5 184t-150.5 64q-47 0 -85 -16.5t-65 -48t-41.5 -77.5t-14.5 -106q0 -120 56 -184t150 -64q95 0 151 64t56 184z" />
    <glyph glyph-name="R" unicode="R" horiz-adv-x="589" 
d="M171 2q-6 -2 -16 -4.5t-22 -2.5q-44 0 -44 37v532q0 16 8 24.5t25 13.5q29 9 71.5 13t82.5 4q126 0 187.5 -50.5t61.5 -143.5q0 -69 -35.5 -116t-107.5 -67l50 -64t47.5 -60.5t40 -51.5t27.5 -36q-4 -17 -17.5 -27t-27.5 -10q-17 0 -28 8t-23 25l-146 204h-134v-228z
M285 298q74 0 116 32t42 95t-44 94.5t-126 31.5q-27 0 -54.5 -2.5t-48.5 -6.5v-244h115z" />
    <glyph glyph-name="S" unicode="S" horiz-adv-x="523" 
d="M257 55q67 0 101.5 30.5t34.5 78.5q0 42 -26.5 68t-83.5 43l-87 26q-64 19 -100.5 56t-36.5 100q0 38 14.5 68.5t41.5 51.5t64.5 32.5t84.5 11.5q40 0 74.5 -6.5t60 -18t39.5 -25.5t14 -29q0 -14 -7 -24t-18 -16q-26 20 -67.5 35t-92.5 15q-59 0 -92.5 -25t-33.5 -70
q0 -35 24 -57t80 -38l61 -18q79 -23 124.5 -64.5t45.5 -115.5q0 -79 -57 -128t-162 -49q-46 0 -83.5 8t-64 21t-41 28.5t-14.5 30.5q0 17 10.5 28.5t24.5 16.5q11 -11 27 -22.5t37 -21t47 -15.5t57 -6z" />
    <glyph glyph-name="T" unicode="T" horiz-adv-x="523" 
d="M302 539v-537q-5 -2 -15.5 -4.5t-21.5 -2.5q-44 0 -44 37v507h-187q-3 5 -6 13.5t-3 19.5q0 17 8 26.5t23 9.5h433q3 -5 6 -13.5t3 -18.5q0 -17 -8 -27t-23 -10h-165z" />
    <glyph glyph-name="U" unicode="U" horiz-adv-x="649" 
d="M561 210q0 -51 -15.5 -92t-46 -70t-74.5 -45t-101 -16t-101 16t-74 45t-45.5 70t-15.5 92v396q5 2 15.5 4.5t22.5 2.5q43 0 43 -37v-359q0 -40 12 -70t32.5 -50.5t49 -30.5t61.5 -10t61.5 10t49 30.5t32.5 50.5t12 70v389q5 2 15.5 4.5t22.5 2.5q44 0 44 -37v-366v0z" />
    <glyph glyph-name="V" unicode="V" horiz-adv-x="583" 
d="M347 8q-5 -5 -19 -9t-31 -4q-19 0 -34 5.5t-20 16.5q-13 26 -30.5 67t-37 91.5t-40 106.5t-39.5 111t-36 106.5t-29 92.5q6 8 18 15t27 7q19 0 28 -9t15 -27q45 -131 86 -253t90 -248h4q22 57 45.5 121.5t46 133t44 138.5t38.5 137q13 7 34 7q18 0 29 -9t11 -27
q0 -15 -11.5 -56.5t-29.5 -96.5t-40.5 -118t-44.5 -121t-42 -106t-32 -72z" />
    <glyph glyph-name="W" unicode="W" horiz-adv-x="803" 
d="M359 457q8 4 19.5 7t25.5 3q42 0 51 -26l34 -102t31 -92.5t29 -87.5t28 -89h4q14 67 28 131.5t27 130t25 133t23 142.5q14 7 34 7q19 0 30 -8.5t11 -25.5q0 -19 -5.5 -58t-15 -89.5t-22 -109t-26.5 -115t-28 -108.5t-27 -89q-9 -5 -23 -9.5t-32 -4.5q-22 0 -37 7t-20 19
q-11 26 -25 65.5t-29.5 87t-31.5 99t-31 102.5q-15 -50 -31 -103t-31.5 -102.5t-30.5 -91.5t-27 -70q-8 -5 -22 -9t-32 -4q-23 0 -37 7.5t-19 18.5q-9 21 -20.5 60t-24 88.5t-26 106.5t-26 113.5t-23 109t-17.5 94.5q7 7 19 13t26 6q35 0 42 -37q13 -63 25 -121.5t24.5 -119
t26.5 -125.5t31 -141h4q14 45 27 85.5t27 84.5t30.5 96t37.5 121z" />
    <glyph glyph-name="X" unicode="X" horiz-adv-x="591" 
d="M293 252l-184 -257q-10 -2 -20 -2q-20 0 -32 9.5t-12 26.5q0 13 6.5 24t16.5 25l176 230l-195 266q5 17 16.5 28.5t31.5 11.5q16 0 27 -9.5t23 -26.5l148 -212l177 245q5 1 10 1.5t11 0.5q21 0 31.5 -10t10.5 -25q0 -11 -5.5 -21.5t-13.5 -21.5q-42 -56 -85 -112
t-88 -113l201 -278q-5 -17 -16 -28t-30 -11q-16 0 -26.5 8t-22.5 26z" />
    <glyph glyph-name="Y" unicode="Y" horiz-adv-x="550" 
d="M523 580q0 -11 -15 -42.5t-42 -78.5t-64.5 -107t-82.5 -127v-223q-5 -2 -15.5 -4.5t-21.5 -2.5q-44 0 -44 37v193q-28 41 -57.5 87t-58.5 93t-55 92t-46 85q4 11 15 21.5t29 10.5q19 0 29.5 -10t21.5 -30q16 -28 37.5 -66t44 -77t43.5 -75.5t36 -60.5h4q52 87 92.5 162
t80.5 150q6 4 14.5 5.5t16.5 1.5q38 0 38 -34z" />
    <glyph glyph-name="Z" unicode="Z" horiz-adv-x="557" 
d="M483 608q8 -7 13.5 -17t5.5 -21q0 -14 -5.5 -25t-15.5 -25l-329 -451h347q4 -5 7 -13.5t3 -19.5q0 -17 -8.5 -26.5t-22.5 -9.5h-409q-8 7 -13.5 17t-5.5 21q0 14 5.5 25t15.5 25l329 451h-333q-3 5 -6.5 13.5t-3.5 19.5q0 17 8.5 26.5t23.5 9.5h394v0z" />
    <glyph glyph-name="bracketleft" unicode="[" horiz-adv-x="268" 
d="M252 651q2 -6 4 -13t2 -17q0 -33 -34 -33h-82v-634h110l4 -14t2 -17q0 -33 -34 -33h-114q-20 0 -30.5 11t-10.5 30v680q0 40 41 40h142z" />
    <glyph glyph-name="backslash" unicode="\" horiz-adv-x="341" 
d="M300 -46q-8 -7 -19.5 -12.5t-22.5 -5.5q-28 0 -35 26l-190 685q8 8 19.5 13t22.5 5q28 0 35 -26z" />
    <glyph glyph-name="bracketright" unicode="]" horiz-adv-x="269" 
d="M16 -110q-2 6 -4 13.5t-2 16.5q0 34 35 34h81v634h-110q-2 6 -4 13.5t-2 16.5q0 33 35 33h113q41 0 41 -40v-680q0 -19 -10.5 -30t-30.5 -11h-142z" />
    <glyph glyph-name="asciicircum" unicode="^" horiz-adv-x="463" 
d="M194 646q5 4 15 6.5t21 2.5q14 0 23.5 -3t13.5 -11q14 -25 33.5 -63.5t40 -80.5t39 -83t29.5 -71q-5 -8 -15 -13.5t-22 -5.5q-16 0 -25.5 6.5t-17.5 26.5l-97 216h-7q-4 -9 -16.5 -36t-28 -62t-31.5 -73.5t-26 -69.5q-7 -4 -15.5 -6.5t-19.5 -2.5q-14 0 -24 6.5t-10 23.5
q0 7 9 29.5t23 53t31 64.5t32.5 64t27.5 52.5t17 29.5z" />
    <glyph glyph-name="underscore" unicode="_" horiz-adv-x="465" 
d="M6 -123q-2 6 -4 13.5t-2 17.5q0 34 35 34h423q2 -6 4.5 -14t2.5 -17q0 -34 -35 -34h-424z" />
    <glyph glyph-name="grave" unicode="`" horiz-adv-x="302" 
d="M59 634q-2 10 -2 13q0 16 10.5 26t27.5 10q21 0 35 -17l90 -113q-1 -16 -10 -25.5t-23 -9.5q-11 0 -18.5 4t-15.5 12z" />
    <glyph glyph-name="a" unicode="a" horiz-adv-x="499" 
d="M240 52q42 0 69.5 8.5t39.5 16.5v145l-124 -13q-52 -5 -77 -23.5t-25 -54.5q0 -38 29 -58.5t88 -20.5zM239 475q87 0 138 -39t51 -123v-237q0 -22 -8.5 -33.5t-25.5 -21.5q-24 -14 -63.5 -24.5t-90.5 -10.5q-94 0 -145.5 37t-51.5 107q0 66 43 99.5t121 41.5l142 14v28
q0 50 -30 73t-81 23q-42 0 -79 -12t-66 -27q-8 7 -14.5 16t-6.5 20q0 14 7 23t22 17q27 14 62 21.5t76 7.5z" />
    <glyph glyph-name="b" unicode="b" horiz-adv-x="549" 
d="M281 475q46 0 86 -15t69.5 -45t46 -76t16.5 -108q0 -63 -17 -109t-47.5 -76t-73.5 -44.5t-94 -14.5q-49 0 -88.5 11.5t-64.5 26.5q-21 13 -29 25.5t-8 33.5v564q5 2 15.5 4.5t22.5 2.5q42 0 42 -36v-179q22 14 52.5 24.5t71.5 10.5zM269 409q-35 0 -63.5 -12.5
t-48.5 -29.5v-283q15 -11 43.5 -21t66.5 -10q34 0 61.5 10.5t47.5 32.5t31 55.5t11 79.5t-11 80t-31 55.5t-47.5 32t-59.5 10.5z" />
    <glyph glyph-name="c" unicode="c" horiz-adv-x="478" 
d="M289 408q-34 0 -63 -11.5t-50 -34t-33 -56t-12 -76.5q0 -86 43 -131.5t115 -45.5q42 0 70 11.5t50 26.5q11 -6 18 -15t7 -22q0 -14 -11 -26t-30.5 -21t-46 -14.5t-57.5 -5.5q-52 0 -96 15t-76 45t-50 75.5t-18 107.5q0 61 19 106.5t51 76.5t75.5 46.5t92.5 15.5
q31 0 57.5 -5.5t45.5 -15.5t29.5 -22.5t10.5 -25.5q0 -12 -7 -21t-18 -14q-22 15 -48 26t-68 11z" />
    <glyph glyph-name="d" unicode="d" horiz-adv-x="547" 
d="M470 76q0 -20 -8.5 -31t-26.5 -22q-20 -13 -57 -24.5t-85 -11.5q-54 0 -99 14t-77.5 43.5t-50 75t-17.5 109.5q0 65 18 111.5t48.5 76.5t72 44t88.5 14q32 0 62 -8t52 -20v201q5 2 15.5 4.5t21.5 2.5q43 0 43 -36v-543zM390 375q-20 14 -46 24t-60 10q-31 0 -58.5 -9.5
t-48.5 -31t-33.5 -56.5t-12.5 -85q0 -92 44 -133t117 -41q35 0 57.5 7.5t40.5 18.5v296z" />
    <glyph glyph-name="e" unicode="e" horiz-adv-x="519" 
d="M132 184q27 -131 172 -131q42 0 76 14t54 30q24 -14 24 -38q0 -14 -12.5 -27t-34 -23t-50 -16t-61.5 -6q-116 0 -183.5 63t-67.5 184q0 57 16.5 101.5t46 75.5t70.5 47.5t89 16.5q45 0 83 -15t65.5 -42.5t43 -65t15.5 -82.5q0 -22 -10 -31.5t-28 -11.5zM270 410
q-61 0 -101 -42.5t-42 -121.5l275 38q-5 55 -38.5 90.5t-93.5 35.5z" />
    <glyph glyph-name="f" unicode="f" horiz-adv-x="399" 
d="M156 436h198q3 -5 6 -13t3 -19q0 -33 -31 -33h-175v-369q-5 -2 -15 -4.5t-22 -2.5q-43 0 -43 36v472q0 88 47.5 127.5t132.5 39.5q57 0 89.5 -15t32.5 -37t-17 -37q-18 10 -45 16.5t-52 6.5q-61 0 -85 -25t-24 -80v-63z" />
    <glyph glyph-name="g" unicode="g" horiz-adv-x="537" 
d="M384 48q-17 -14 -46.5 -24t-70.5 -10q-44 0 -83 12.5t-68.5 40t-47 71.5t-17.5 107q0 57 17 100t47.5 72t72.5 43.5t93 14.5q46 0 84.5 -11.5t64.5 -28.5q15 -10 24.5 -22.5t9.5 -30.5v-402q0 -50 -16.5 -84.5t-46 -56t-69.5 -31.5t-86 -10q-51 0 -86.5 10.5t-48.5 18.5
q-30 17 -30 43q0 14 6.5 23.5t16.5 14.5q21 -16 59 -29.5t83 -13.5q67 0 102.5 28.5t35.5 91.5v63zM276 80q40 0 65.5 12.5t42.5 28.5v260q-17 11 -42.5 19.5t-60.5 8.5q-68 0 -108.5 -41t-40.5 -122q0 -45 11 -76.5t30.5 -51.5t46 -29t56.5 -9z" />
    <glyph glyph-name="h" unicode="h" horiz-adv-x="551" 
d="M157 2q-5 -2 -15 -4.5t-22 -2.5q-43 0 -43 36v617q5 2 15.5 4.5t22.5 2.5q42 0 42 -36v-180q24 14 56.5 25t73.5 11q42 0 76.5 -11t59.5 -33.5t39 -57t14 -80.5v-291q-5 -2 -15.5 -4.5t-21.5 -2.5q-43 0 -43 36v260q0 60 -33 89t-87 29q-35 0 -65.5 -12.5t-53.5 -30.5
v-364v0z" />
    <glyph glyph-name="i" unicode="i" horiz-adv-x="241" 
d="M160 2q-5 -2 -15 -4.5t-22 -2.5q-43 0 -43 36v429q5 2 15.5 4.5t22.5 2.5q42 0 42 -37v-428zM68 608q0 21 14.5 35.5t37.5 14.5t37 -14.5t14 -35.5t-14 -35.5t-37 -14.5t-37.5 14.5t-14.5 35.5z" />
    <glyph glyph-name="j" unicode="j" horiz-adv-x="243" 
d="M6 -146q18 8 32.5 16.5t24 21t15 31t5.5 47.5v490q5 2 15.5 4.5t22.5 2.5q42 0 42 -37v-475q0 -44 -12 -72.5t-29.5 -46t-36.5 -24.5t-33 -7q-25 0 -34.5 14.5t-11.5 34.5zM71 608q0 21 14.5 35.5t37.5 14.5t37 -14.5t14 -35.5t-14 -35.5t-37 -14.5t-37.5 14.5
t-14.5 35.5z" />
    <glyph glyph-name="k" unicode="k" horiz-adv-x="487" 
d="M157 2q-5 -2 -15 -4.5t-22 -2.5q-43 0 -43 36v617q5 2 15.5 4.5t22.5 2.5q42 0 42 -36v-360l219 212q24 -1 37.5 -11.5t13.5 -27.5q0 -14 -9 -24.5t-24 -24.5l-161 -141l223 -200q-2 -22 -13.5 -35t-30.5 -13q-15 0 -27.5 7.5t-25.5 21.5l-202 203v-224v0z" />
    <glyph glyph-name="l" unicode="l" horiz-adv-x="246" 
d="M163 2q-5 -2 -15 -4.5t-22 -2.5q-43 0 -43 36v617q5 2 15.5 4.5t21.5 2.5q43 0 43 -36v-617v0z" />
    <glyph glyph-name="m" unicode="m" horiz-adv-x="816" 
d="M661 314q0 49 -28 72t-75 23q-65 0 -116 -46q6 -20 6 -43v-318q-5 -2 -15.5 -4.5t-21.5 -2.5q-43 0 -43 36v283q0 49 -28 72t-76 23q-32 0 -60.5 -10t-48.5 -23v-374q-5 -2 -15 -4.5t-22 -2.5q-43 0 -43 36v341q0 20 8.5 33.5t29.5 27.5q27 17 68.5 29.5t83.5 12.5
q49 0 87 -14.5t58 -39.5q26 23 65 38.5t89 15.5q81 0 129 -38.5t48 -118.5v-316q-5 -2 -15.5 -4.5t-21.5 -2.5q-43 0 -43 36v283v0z" />
    <glyph glyph-name="n" unicode="n" horiz-adv-x="550" 
d="M395 301q0 56 -31.5 82t-84.5 26q-40 0 -71 -10t-53 -23v-374q-5 -2 -15 -4.5t-22 -2.5q-43 0 -43 36v341q0 21 8.5 34.5t29.5 26.5q26 16 69 29t97 13q91 0 143.5 -41t52.5 -129v-303q-5 -2 -15.5 -4.5t-21.5 -2.5q-43 0 -43 36v270v0z" />
    <glyph glyph-name="o" unicode="o" horiz-adv-x="553" 
d="M504 231q0 -56 -16 -101t-45.5 -77t-71.5 -49t-94 -17t-94 17t-72 49t-46 77t-16 101t16.5 101t46.5 77t72 49t93 17t93 -17t71.5 -49t46 -77t16.5 -101zM277 409q-68 0 -107 -47t-39 -131q0 -85 38.5 -131.5t107.5 -46.5t107 47t38 131t-38.5 131t-106.5 47z" />
    <glyph glyph-name="p" unicode="p" horiz-adv-x="546" 
d="M272 -13q-35 0 -66 8t-51 19v-194q-5 -2 -15 -4.5t-22 -2.5q-43 0 -43 37v528q0 20 7 32t29 25q27 15 64.5 27.5t85.5 12.5q49 0 92.5 -14t75 -43.5t50 -75.5t18.5 -110q0 -62 -16.5 -108t-46.5 -76.5t-71.5 -45.5t-90.5 -15zM261 53q70 0 112.5 42.5t42.5 136.5
q0 49 -12.5 83t-34 55t-49.5 30t-59 9q-36 0 -61 -9t-45 -20v-295q19 -14 45 -23t61 -9z" />
    <glyph glyph-name="q" unicode="q" horiz-adv-x="546" 
d="M471 -183q-5 -2 -15.5 -4.5t-21.5 -2.5q-43 0 -43 37v169q-20 -12 -48.5 -20.5t-67.5 -8.5q-49 0 -90.5 14t-71.5 43t-47 75t-17 109t18 109.5t50 77t75.5 45.5t93.5 15q48 0 87 -12t65 -28q15 -9 24 -22t9 -31v-565zM287 53q32 0 59 9.5t45 24.5v294q-17 11 -42.5 19.5
t-60.5 8.5q-32 0 -60.5 -10t-50 -32t-34 -56t-12.5 -83q0 -92 42.5 -133.5t113.5 -41.5z" />
    <glyph glyph-name="r" unicode="r" horiz-adv-x="382" 
d="M155 2q-5 -2 -15 -4.5t-22 -2.5q-43 0 -43 36v339q0 23 8.5 36.5t28.5 26.5q26 17 70.5 29.5t100.5 12.5q80 0 80 -40q0 -10 -3 -18.5t-8 -14.5q-10 2 -26 4t-32 2q-46 0 -81 -9.5t-58 -22.5v-374z" />
    <glyph glyph-name="s" unicode="s" horiz-adv-x="447" 
d="M401 123q0 -64 -47 -100t-136 -36q-38 0 -70 6.5t-54.5 17t-35 24t-12.5 27.5q0 12 6.5 23t19.5 19q27 -20 63 -35.5t82 -15.5q104 0 104 70q0 57 -69 74l-83 22q-61 16 -89 46.5t-28 78.5q0 26 10.5 50t32.5 42t54.5 28.5t76.5 10.5q70 0 113 -20.5t43 -47.5
q0 -13 -6.5 -23t-17.5 -15q-18 12 -51 26t-78 14t-71.5 -17t-26.5 -48q0 -23 15 -39t50 -24l69 -17q68 -17 102 -50.5t34 -90.5z" />
    <glyph glyph-name="t" unicode="t" horiz-adv-x="372" 
d="M233 -13q-70 0 -113.5 31t-43.5 103v475q5 2 15.5 4.5t22.5 2.5q42 0 42 -36v-115h164q3 -5 6 -13.5t3 -18.5q0 -34 -30 -34h-143v-260q0 -40 22.5 -56.5t63.5 -16.5q17 0 38 6t35 14q6 -6 11 -15t5 -21q0 -22 -26 -36t-72 -14z" />
    <glyph glyph-name="u" unicode="u" horiz-adv-x="550" 
d="M75 460q5 2 15.5 4.5t22.5 2.5q42 0 42 -37v-257q0 -65 34 -92.5t94 -27.5q40 0 68 8.5t44 17.5v381q5 2 15.5 4.5t21.5 2.5q43 0 43 -37v-348q0 -21 -5.5 -33.5t-26.5 -24.5q-23 -13 -63.5 -25t-97.5 -12q-100 0 -153.5 44t-53.5 138v291z" />
    <glyph glyph-name="v" unicode="v" horiz-adv-x="495" 
d="M421 471q17 0 27.5 -9t10.5 -26q0 -11 -8 -38.5t-21 -65t-29.5 -82.5t-35 -89.5t-37 -85.5t-34.5 -71q-5 -4 -17.5 -7t-26.5 -3q-37 0 -48 21q-9 17 -23 47t-30 68t-33 81t-33 85.5t-30 82t-23 70.5q7 10 19 16t24 6q18 0 27.5 -9t17.5 -30l62 -179q6 -17 15 -41.5
t18.5 -50t19 -49.5t15.5 -41h4q40 101 74.5 199t60.5 193q13 8 34 8z" />
    <glyph glyph-name="w" unicode="w" horiz-adv-x="729" 
d="M366 344q-14 -47 -28.5 -95t-29.5 -92t-29 -83t-26 -69q-8 -5 -18 -8t-27 -3q-16 0 -29.5 5.5t-18.5 17.5q-12 25 -28.5 78t-34 116.5t-33 128t-25.5 112.5q7 7 17.5 13t25.5 6q19 0 28 -10.5t14 -33.5q9 -42 21 -95.5t24 -104.5t22.5 -93l15.5 -62h4q6 18 17.5 54
t26.5 82.5t33 100.5l36 108q18 10 43 10q37 0 46 -26q18 -52 34.5 -103.5t30.5 -95.5t24 -78.5t16 -52.5h5q23 90 50 191t44 200q14 9 34 9q17 0 27 -8t10 -25q0 -11 -6.5 -42.5t-17.5 -73t-24.5 -89t-27.5 -92t-26.5 -81t-21.5 -55.5q-5 -4 -16.5 -7.5t-26.5 -3.5
q-19 0 -31.5 4.5t-16.5 14.5q-11 27 -23.5 64t-26.5 80.5t-28.5 91.5t-28.5 95z" />
    <glyph glyph-name="x" unicode="x" horiz-adv-x="482" 
d="M61 72q31 42 65 82t68 82q-42 51 -78 96.5t-74 94.5q4 20 14.5 31t27.5 11t26.5 -8.5t20.5 -22.5q26 -35 53.5 -74.5t57.5 -78.5q37 47 70 89.5t68 93.5q5 1 11 1q21 0 33 -9.5t12 -25.5q0 -11 -4.5 -21t-14.5 -23q-31 -38 -63.5 -77.5t-64.5 -77.5q39 -51 78.5 -100.5
t78.5 -99.5q-2 -19 -13 -30t-29 -11q-17 0 -27.5 8.5t-24.5 26.5q-27 36 -55.5 76.5t-56.5 78.5q-35 -46 -70.5 -94t-68.5 -95h-14q-23 0 -34.5 10t-11.5 25q0 8 3.5 16.5t16.5 25.5z" />
    <glyph glyph-name="y" unicode="y" horiz-adv-x="489" 
d="M169 103q-13 24 -30 61t-35.5 83t-37.5 97.5t-36 104.5q7 10 18.5 16t24.5 6q17 0 27.5 -9t18.5 -30q30 -85 62.5 -167t73.5 -172h4q16 31 33 75.5t33.5 94.5t31 101.5t25.5 98.5q7 3 15 5.5t19 2.5q17 0 28 -8.5t11 -25.5q0 -20 -14 -73t-36.5 -119t-51.5 -135.5
t-59 -123.5q-47 -85 -84.5 -130.5t-69.5 -45.5q-23 0 -35.5 12t-15.5 28q16 14 36 36t40 47.5t38 52.5t30 52q-17 5 -31.5 17.5t-32.5 47.5z" />
    <glyph glyph-name="z" unicode="z" horiz-adv-x="469" 
d="M61 0q-16 13 -16 35q0 12 5 22.5t13 20.5l254 318h-257q-3 5 -6 13.5t-3 19.5q0 33 30 33h320q17 -14 17 -36q0 -20 -19 -42l-254 -319h271q3 -5 6 -13t3 -19q0 -33 -31 -33h-333v0z" />
    <glyph glyph-name="braceleft" unicode="{" horiz-adv-x="281" 
d="M122 275q33 -17 51.5 -51.5t18.5 -87.5v-131q0 -35 13.5 -49.5t42.5 -15.5q3 -12 3 -23q0 -14 -9 -23t-27 -9q-42 0 -68.5 30t-26.5 90v123q0 104 -76 116q-4 5 -5.5 14.5t-1.5 16.5t2 16t5 15q76 12 76 115v116q0 60 26.5 89.5t68.5 29.5q36 0 36 -32q0 -11 -3 -23
q-29 0 -42.5 -14.5t-13.5 -50.5v-122q0 -54 -18.5 -88t-51.5 -51z" />
    <glyph glyph-name="bar" unicode="|" horiz-adv-x="251" 
d="M162 -180q-8 -3 -16 -5t-19 -2q-20 0 -29 9t-9 31v821q8 3 16 5t19 2q20 0 29 -9t9 -31v-821z" />
    <glyph glyph-name="braceright" unicode="}" horiz-adv-x="281" 
d="M159 275q-33 17 -51.5 51t-18.5 88v122q0 36 -13.5 50.5t-42.5 14.5q-3 12 -3 23q0 32 36 32q42 0 68.5 -29.5t26.5 -89.5v-116q0 -103 76 -115q3 -6 5 -15t2 -16t-1.5 -16.5t-5.5 -14.5q-76 -12 -76 -116v-123q0 -60 -26.5 -90t-68.5 -30q-18 0 -27 9t-9 23q0 11 3 23
q29 1 42.5 15.5t13.5 49.5v131q0 53 18.5 87.5t51.5 51.5z" />
    <glyph glyph-name="asciitilde" unicode="~" horiz-adv-x="448" 
d="M312 282q26 0 38 14.5t20 30.5q22 0 37.5 -12t15.5 -32q0 -32 -26 -51t-68 -19q-30 0 -56.5 6.5t-50.5 14t-45 14t-41 6.5q-27 0 -38.5 -14.5t-19.5 -30.5q-23 0 -38 12t-15 32q0 32 26 51t68 19q31 0 57.5 -6.5t50 -14t44.5 -14t41 -6.5z" />
    <glyph glyph-name="DEL" 
 />
    <glyph glyph-name="uni00A0" unicode="&#xa0;" horiz-adv-x="200" 
 />
    <glyph glyph-name="exclamdown" unicode="&#xa1;" horiz-adv-x="250" 
d="M86 -126q0 30 0.5 79t2 104.5t3.5 111.5t4 100q13 10 33 10q14 0 23 -6t10 -19q2 -29 4 -81t3 -111t1.5 -117.5t0.5 -100.5q-21 -13 -45 -13q-40 0 -40 43zM184 411q0 -24 -15 -40t-41 -16t-41 16t-15 40t15 40t41 16t41 -16t15 -40z" />
    <glyph glyph-name="cent" unicode="&#xa2;" horiz-adv-x="476" 
d="M289 408q-34 0 -63 -11.5t-50 -34t-33 -56t-12 -76.5q0 -86 43 -131.5t115 -45.5q42 0 70 11.5t50 26.5q11 -6 18 -15t7 -22q0 -26 -36 -44.5t-92 -21.5v-96q-5 -2 -13.5 -3.5t-18.5 -1.5q-41 0 -41 33v72q-82 14 -133 72.5t-51 165.5q0 52 14 93.5t38.5 71.5t58.5 48.5
t73 26.5v101q5 2 13.5 3.5t19.5 1.5q40 0 40 -33v-69q55 -3 89.5 -23t34.5 -45q0 -12 -7.5 -21t-18.5 -14q-21 15 -47 26t-68 11z" />
    <glyph glyph-name="sterling" unicode="&#xa3;" horiz-adv-x="504" 
d="M145 219q0 18 -3 44h-57q-11 0 -19.5 7.5t-8.5 25.5q0 10 3 17.5t5 14.5h71q-3 25 -4.5 48.5t-1.5 41.5q0 54 16 92t43.5 63t64 36.5t78.5 11.5q32 0 56 -5.5t39.5 -14.5t23.5 -20t8 -21q0 -8 -5.5 -19.5t-17.5 -18.5q-22 15 -44.5 23t-54.5 8q-127 0 -127 -146
q0 -17 1 -37.5t3 -41.5h191q3 -7 5.5 -14.5t2.5 -17.5q0 -18 -8 -25.5t-21 -7.5h-164q3 -27 3 -46q0 -54 -14 -90.5t-41 -60.5h293q8 -14 8 -33q0 -16 -8 -24.5t-21 -8.5h-340q-19 0 -32.5 11.5t-13.5 33.5v7.5t1 7.5q22 11 39 24.5t28.5 31.5t17 43t5.5 60z" />
    <glyph glyph-name="currency" unicode="&#xa4;" horiz-adv-x="525" 
d="M447 298q0 -38 -10.5 -68t-29.5 -53l58 -68q-8 -19 -20.5 -28t-26.5 -9q-12 0 -23.5 11t-21.5 24l-23 27q-38 -19 -88 -19q-48 0 -87 18l-54 -69q-20 4 -34 14.5t-14 28.5q0 12 6.5 24t17.5 24l19 22q-39 47 -39 121q0 37 10 66.5t28 52.5l-55 66q8 18 20.5 27t26.5 9
q13 0 24 -11t21 -23l20 -25q40 20 90 20q51 0 92 -21l53 68q19 -4 33 -14t14 -28q0 -13 -6.5 -24.5t-17.5 -24.5l-19 -23q17 -23 26.5 -51.5t9.5 -63.5zM373 298q0 57 -30.5 88.5t-80.5 31.5q-51 0 -81.5 -31.5t-30.5 -88.5q0 -58 30.5 -89t81.5 -31q50 0 80.5 31t30.5 89z
" />
    <glyph glyph-name="yen" unicode="&#xa5;" horiz-adv-x="546" 
d="M59 280q-10 12 -10 32q0 17 7.5 23.5t17.5 6.5h118q-22 33 -44.5 67t-42.5 66.5t-37.5 62.5t-30.5 54q7 9 18 17.5t26 8.5q17 0 27.5 -9.5t21.5 -30.5l143 -233h5q24 37 42.5 68.5t35.5 62t35 62.5t41 72q9 5 16 6.5t18 1.5q18 0 26.5 -9.5t8.5 -22.5q0 -8 -12.5 -32
t-32.5 -58t-45 -74t-51 -80h129q3 -8 5.5 -15.5t2.5 -16.5q0 -14 -7 -22t-18 -8h-413zM316 148v-147q-5 -2 -15.5 -4t-21.5 -2q-45 0 -45 36v117h-175q-10 12 -10 32q0 18 7.5 24t16.5 6h414q3 -5 5.5 -14.5t2.5 -17.5q0 -14 -7 -22t-17 -8h-155z" />
    <glyph glyph-name="brokenbar" unicode="&#xa6;" horiz-adv-x="293" 
d="M162 310q-8 -3 -16 -5t-19 -2q-20 0 -29 9t-9 31v332q8 3 16 5t19 2q20 0 29 -9t9 -31v-332zM162 -180q-8 -3 -16 -5t-19 -2q-20 0 -29 9t-9 31v332q8 3 16 5t19 2q20 0 29 -9t9 -31v-332z" />
    <glyph glyph-name="section" unicode="&#xa7;" horiz-adv-x="504" 
d="M444 283q0 -35 -15.5 -59.5t-38.5 -41.5q26 -16 40 -39t14 -58q0 -62 -49.5 -96t-146.5 -34q-41 0 -75 6t-59.5 16.5t-39.5 24t-14 28.5q0 14 7 23.5t18 17.5q34 -21 73.5 -36t89.5 -15q56 0 86.5 16.5t30.5 48.5q0 27 -19.5 40.5t-63.5 23.5l-91 20q-54 11 -91 40.5
t-37 88.5q0 34 15.5 58.5t38.5 40.5q-23 14 -36.5 37.5t-13.5 59.5q0 61 46.5 94t131.5 33q36 0 67 -5t53.5 -14t35.5 -21t13 -26q0 -13 -6.5 -22.5t-14.5 -14.5q-27 14 -64 26t-82 12q-48 0 -74.5 -15.5t-26.5 -46.5q0 -28 18.5 -41t51.5 -20l90 -18q31 -8 56.5 -18.5
t43.5 -25.5t28 -36.5t10 -51.5zM307 212l14 -4q20 12 32 30t12 44q0 29 -19.5 45t-64.5 25l-90 18q-4 0 -8 2q-19 -12 -30.5 -30t-11.5 -42q0 -29 20 -45t54 -23z" />
    <glyph glyph-name="dieresis" unicode="&#xa8;" horiz-adv-x="374" 
d="M154 606q0 -20 -14 -34t-36 -14q-21 0 -34.5 14t-13.5 34t13.5 34t34.5 14q22 0 36 -14t14 -34zM327 606q0 -20 -14.5 -34t-35.5 -14q-20 0 -34.5 14t-14.5 34t14.5 34t34.5 14q21 0 35.5 -14t14.5 -34z" />
    <glyph glyph-name="copyright" unicode="&#xa9;" horiz-adv-x="713" 
d="M54 298q0 65 21.5 122t61.5 99t95 66t123 24q67 0 123 -24t96 -66t62.5 -99t22.5 -122q0 -63 -22.5 -118t-62.5 -95.5t-96 -63.5t-123 -23q-68 0 -123 23t-95 63.5t-61.5 95.5t-21.5 118zM355 555q-56 0 -100.5 -19t-75 -53t-47 -81t-16.5 -104q0 -54 16.5 -99.5t47 -78
t75 -50.5t100.5 -18t100.5 18t75 50.5t47 78t16.5 99.5q0 57 -16.5 104t-47 81t-75 53t-100.5 19zM377 420q-21 0 -40.5 -7t-34.5 -21t-24 -36t-9 -53q0 -57 31.5 -86.5t79.5 -29.5q28 0 44 7t29 15q20 -11 20 -32q0 -17 -24.5 -33t-73.5 -16q-37 0 -69 11t-56 33t-38 55
t-14 76q0 46 15 79.5t39.5 55t54.5 32t60 10.5q45 0 73.5 -15.5t28.5 -39.5q0 -8 -6.5 -15.5t-14.5 -11.5q-14 8 -31 15t-40 7z" />
    <glyph glyph-name="ordfeminine" unicode="&#xaa;" horiz-adv-x="352" 
d="M174 358q21 0 39 4.5t27 9.5v80l-68 -7q-36 -4 -52 -13.5t-16 -27.5q0 -46 70 -46zM171 620q28 0 52 -5t41 -18t27 -34t10 -53v-155q0 -16 -24 -29q-20 -10 -47 -15.5t-56 -5.5q-62 0 -97 23.5t-35 71.5q0 45 30 67.5t87 27.5l81 8v7q0 33 -17.5 45t-55.5 12
q-26 0 -51.5 -8t-42.5 -19q-7 4 -12.5 11.5t-5.5 18.5t5 17.5t16 12.5q15 8 41.5 14t53.5 6z" />
    <glyph glyph-name="guillemotleft" unicode="&#xab;" horiz-adv-x="469" 
d="M239 82q0 -15 -9.5 -27.5t-28.5 -12.5q-13 0 -24 8t-21 19l-111 123q-10 15 -10 34q0 16 4 24.5t11 14.5l145 151q39 -9 39 -36q0 -12 -6.5 -21.5t-20.5 -24.5l-106 -109zM429 82q0 -15 -9.5 -27.5t-27.5 -12.5q-14 0 -25 8t-20 19l-112 123q-10 15 -10 34q0 16 4 24.5
t11 14.5l145 151q39 -9 39 -36q0 -12 -6.5 -21.5t-20.5 -24.5l-105 -109z" />
    <glyph glyph-name="logicalnot" unicode="&#xac;" horiz-adv-x="542" 
d="M452 383q17 0 27.5 -9.5t10.5 -27.5v-164q-8 -3 -16.5 -5t-19.5 -2q-20 0 -29.5 9t-9.5 31v103h-357q-7 14 -7 31q0 34 35 34h366z" />
    <glyph glyph-name="uni00AD" unicode="&#xad;" horiz-adv-x="389" 
d="M61 228q-3 7 -5 14.5t-2 17.5q0 34 35 34h239q2 -6 4.5 -14t2.5 -17q0 -35 -35 -35h-239z" />
    <glyph glyph-name="registered" unicode="&#xae;" horiz-adv-x="619" 
d="M58 377q0 51 18 96t51 78.5t79 53.5t103 20q55 0 101.5 -20t80 -53.5t52 -78.5t18.5 -96t-18.5 -96t-52 -79t-80 -53.5t-101.5 -19.5q-57 0 -103 19.5t-79 53.5t-51 79t-18 96zM113 377q0 -43 14 -79.5t39.5 -63t62 -41.5t80.5 -15t80.5 15t62 41.5t39.5 63t14 79.5
t-14 79.5t-39.5 63t-62 41.5t-80.5 15t-80.5 -15t-62 -41.5t-39.5 -63t-14 -79.5zM279 350v-80q-10 -2 -26 -2q-12 0 -19 4t-7 19v185q0 14 22 18q14 3 26 4t26 1q48 0 75 -19.5t27 -55.5q0 -26 -14.5 -43t-35.5 -24l57 -70q-2 -8 -10 -14t-19 -6q-18 0 -33 20l-43 63h-26z
M311 391q38 0 38 35q0 15 -12 23.5t-32 8.5q-7 0 -13.5 -0.5t-12.5 -1.5v-65h32z" />
    <glyph glyph-name="macron" unicode="&#xaf;" horiz-adv-x="328" 
d="M40 570q-4 6 -7.5 14t-3.5 18q0 17 9 25t23 8h228q4 -6 7 -14.5t3 -17.5q0 -33 -32 -33h-227z" />
    <glyph glyph-name="degree" unicode="&#xb0;" horiz-adv-x="360" 
d="M321 489q0 -30 -11 -54t-30.5 -41.5t-45 -26.5t-53.5 -9q-31 0 -57 10t-45 27.5t-29.5 41.5t-10.5 52q0 30 11.5 54t30.5 41.5t44.5 26.5t54.5 9q28 0 54 -9t45 -26t30.5 -41.5t11.5 -54.5zM180 561q-27 0 -49 -18.5t-22 -53.5t21 -54t50 -19t50 19t21 54t-22 53.5
t-49 18.5z" />
    <glyph glyph-name="plusminus" unicode="&#xb1;" horiz-adv-x="517" 
d="M297 383h163q2 -6 4 -13.5t2 -17.5q0 -34 -35 -34h-134v-168q-8 -2 -15.5 -4.5t-18.5 -2.5q-20 0 -29.5 9t-9.5 32v134h-167q-2 6 -4 14t-2 17q0 34 35 34h138v164q8 3 16.5 5t19.5 2q19 0 28 -9t9 -31v-131zM57 0q-2 6 -4 14t-2 17q0 34 35 34h374q2 -6 4 -13.5t2 -17.5
q0 -34 -35 -34h-374z" />
    <glyph glyph-name="twosuperior" unicode="&#xb2;" horiz-adv-x="276" 
d="M123 697q53 0 83 -26t30 -73q0 -31 -16.5 -59t-59.5 -63l-70 -56h148q6 -11 6 -25q0 -10 -5.5 -17t-20.5 -7h-182q-13 13 -13 32q0 14 4.5 22.5t11.5 14.5l87 77q24 21 38 41t14 40q0 25 -17 37t-41 12q-20 0 -37.5 -7t-31.5 -18q-7 4 -12 10.5t-5 17.5q0 10 7.5 18.5
t20 15t28.5 10t33 3.5z" />
    <glyph glyph-name="threesuperior" unicode="&#xb3;" horiz-adv-x="272" 
d="M134 559q20 0 33 11.5t13 29.5q0 22 -17.5 34.5t-47.5 12.5q-23 0 -41.5 -7t-30.5 -15q-8 5 -12 11.5t-4 17.5q0 19 28.5 31t65.5 12q57 0 87 -24.5t30 -66.5q0 -24 -13 -43t-36 -27q24 -8 38.5 -29t14.5 -48q0 -50 -35.5 -73t-86.5 -23q-44 0 -73.5 14.5t-29.5 34.5
q0 21 20 31q12 -10 31.5 -20t49.5 -10q29 0 47.5 12.5t18.5 38.5q0 20 -13.5 33t-36.5 13h-57q-8 11 -8 25q0 16 8 24h57z" />
    <glyph glyph-name="acute" unicode="&#xb4;" horiz-adv-x="298" 
d="M187 687q22 -1 35.5 -12.5t13.5 -25.5t-6 -22.5t-20 -21.5l-91 -89q-20 0 -32 10.5t-12 23.5q0 8 5 15t10 13z" />
    <glyph glyph-name="mu" unicode="&#xb5;" horiz-adv-x="552" 
d="M477 82q0 -21 -5.5 -33.5t-26.5 -24.5t-59 -24.5t-92 -12.5q-45 0 -83 11.5t-61 40.5q3 -30 5 -71t2 -83v-69q-5 -2 -15 -4t-21 -2q-44 0 -44 36v614q5 2 15.5 4.5t21.5 2.5q43 0 43 -37v-257q0 -65 35 -92.5t93 -27.5q40 0 68 8.5t44 17.5v381q5 2 15 4.5t22 2.5
q43 0 43 -37v-348v0z" />
    <glyph glyph-name="paragraph" unicode="&#xb6;" horiz-adv-x="441" 
d="M328 613q20 0 31.5 -7t11.5 -31v-644q-5 -2 -15 -4t-21 -2q-21 0 -32.5 8.5t-11.5 28.5v582h-66v-268q0 -12 -13 -20t-42 -8q-28 0 -56 10.5t-50 32.5t-35.5 55.5t-13.5 79.5q0 48 16.5 83t43.5 58t63 34.5t75 11.5h115z" />
    <glyph glyph-name="periodcentered" unicode="&#xb7;" horiz-adv-x="141" 
d="M16 252q0 24 14.5 40t40.5 16t40 -16t14 -40q0 -23 -14 -39t-40 -16t-40.5 16t-14.5 39z" />
    <glyph glyph-name="cedilla" unicode="&#xb8;" horiz-adv-x="195" 
d="M111 17q28 -20 40 -45.5t12 -56.5q0 -48 -30 -76t-78 -28q-52 0 -52 36q0 13 6 24h15q36 0 52.5 15.5t16.5 41.5q0 17 -7.5 37t-24.5 37z" />
    <glyph glyph-name="onesuperior" unicode="&#xb9;" horiz-adv-x="211" 
d="M100 628l-61 -29q-8 4 -15.5 12t-7.5 19q0 18 24 29l74 33h12q31 0 31 -33v-286q-12 -6 -27 -6q-14 0 -22 5.5t-8 22.5v233z" />
    <glyph glyph-name="ordmasculine" unicode="&#xba;" horiz-adv-x="378" 
d="M333 462q0 -76 -39 -116.5t-105 -40.5q-64 0 -104.5 40t-40.5 118q0 39 11 68t30.5 49t46 30t57.5 10q66 0 105 -40.5t39 -117.5zM189 566q-37 0 -59.5 -27t-22.5 -76q0 -50 22 -76.5t60 -26.5q37 0 59 26t22 76q0 49 -21.5 76.5t-59.5 27.5z" />
    <glyph glyph-name="guillemotright" unicode="&#xbb;" horiz-adv-x="469" 
d="M230 376q0 15 9.5 27.5t27.5 12.5q14 0 25 -8t20 -19l112 -123q10 -15 10 -34q0 -16 -4 -24.5t-11 -14.5l-146 -151q-38 9 -38 36q0 12 6.5 21.5t20.5 24.5l105 109zM40 376q0 15 9.5 27.5t27.5 12.5q14 0 25 -8t20 -19l112 -123q10 -15 10 -34q0 -16 -4 -24.5t-12 -14.5
l-145 -151q-38 9 -38 36q0 12 6.5 21.5t20.5 24.5l105 109z" />
    <glyph glyph-name="onequarter" unicode="&#xbc;" horiz-adv-x="602" 
d="M92 548l-61 -29q-8 4 -15.5 12t-7.5 19q0 18 24 29l74 33h12q31 0 31 -33v-286q-12 -6 -27 -6q-14 0 -22 5.5t-8 22.5v233zM481 73h-143q-8 4 -13.5 12t-5.5 19q0 16 10 29l136 183q15 5 32 5t28.5 -8t11.5 -23v-169h48q2 -5 3.5 -9.5t1.5 -12.5q0 -14 -7.5 -20t-16.5 -6
h-29v-71q-12 -6 -27 -6q-14 0 -21.5 5.5t-7.5 22.5v49zM483 187q0 15 0.5 35t1.5 38l-97 -139h95v66zM456 609q39 -2 39 -29q0 -10 -3.5 -18t-11.5 -20l-367 -547q-40 2 -40 29q0 10 4 18t12 21z" />
    <glyph glyph-name="onehalf" unicode="&#xbd;" horiz-adv-x="621" 
d="M92 548l-61 -29q-8 4 -15.5 12t-7.5 19q0 18 24 29l74 33h12q31 0 31 -33v-286q-12 -6 -27 -6q-14 0 -22 5.5t-8 22.5v233zM473 326q53 0 83 -26t30 -73q0 -31 -16.5 -59t-59.5 -63l-70 -56h148q6 -11 6 -25q0 -10 -5.5 -17t-20.5 -7h-182q-13 13 -13 32q0 14 4.5 22.5
t11.5 14.5l87 77q24 21 38 41t14 40q0 25 -17 37t-41 12q-20 0 -37.5 -7t-31.5 -18q-7 4 -12 10.5t-5 17.5q0 10 7.5 18.5t20 15t28.5 10t33 3.5zM456 609q39 -2 39 -29q0 -10 -3.5 -18t-11.5 -20l-367 -547q-40 2 -40 29q0 10 4 18t12 21z" />
    <glyph glyph-name="threequarters" unicode="&#xbe;" horiz-adv-x="647" 
d="M134 479q20 0 33 11.5t13 29.5q0 22 -17.5 34.5t-47.5 12.5q-23 0 -41.5 -7t-30.5 -15q-8 5 -12 11.5t-4 17.5q0 19 28.5 31t65.5 12q57 0 87 -24.5t30 -66.5q0 -24 -13 -43t-36 -27q24 -8 38.5 -29t14.5 -48q0 -50 -35.5 -73t-86.5 -23q-44 0 -73.5 14.5t-29.5 34.5
q0 21 20 31q12 -10 31.5 -20t49.5 -10q29 0 47.5 12.5t18.5 38.5q0 20 -13.5 33t-36.5 13h-57q-8 11 -8 25q0 16 8 24h57zM527 73h-143q-8 4 -13.5 12t-5.5 19q0 16 10 29l136 183q15 5 32 5t28.5 -8t11.5 -23v-169h48q2 -5 3.5 -9.5t1.5 -12.5q0 -14 -7.5 -20t-16.5 -6h-29
v-71q-12 -6 -27 -6q-14 0 -21.5 5.5t-7.5 22.5v49zM529 187q0 15 0.5 35t1.5 38l-97 -139h95v66zM506 609q39 -2 39 -29q0 -10 -3.5 -18t-11.5 -20l-367 -547q-40 2 -40 29q0 10 4 18t12 21z" />
    <glyph glyph-name="questiondown" unicode="&#xbf;" horiz-adv-x="459" 
d="M344 256q20 -20 20 -44q0 -14 -8 -23t-28 -14l-69 -18q-66 -17 -101.5 -50.5t-35.5 -87.5q0 -48 34.5 -82.5t107.5 -34.5q40 0 80.5 12.5t64.5 32.5q23 -17 23 -43q0 -15 -12.5 -28t-35.5 -23t-54.5 -16t-68.5 -6q-50 0 -90.5 14t-70 38.5t-45.5 59t-16 75.5
q0 85 51.5 136.5t155.5 77.5zM355 411q0 -24 -15 -40.5t-41 -16.5t-41.5 16.5t-15.5 40.5t15.5 40t41.5 16t41 -16t15 -40z" />
    <glyph glyph-name="Agrave" unicode="&#xc0;" horiz-adv-x="592" 
d="M428 162h-268q-7 -20 -15 -43.5t-15.5 -46t-14.5 -42t-11 -32.5q-14 -6 -33 -6q-16 0 -28.5 8.5t-12.5 27.5q0 9 3 18.5t7 20.5q15 42 38.5 108t51 140.5t56 150t52.5 135.5q8 4 24 8t33 4q20 0 38.5 -6t23.5 -20q24 -58 51.5 -132.5t55.5 -152.5t53.5 -153.5
t45.5 -136.5q-8 -9 -19 -14.5t-25 -5.5q-19 0 -29 8.5t-17 28.5zM294 545q-11 -30 -25 -68.5t-29 -80.5t-30 -85t-28 -82h225q-15 45 -31 90.5t-30.5 87.5t-27 77.5t-20.5 60.5h-4zM172 768q-1 5 -1 12q0 16 9.5 26.5t24.5 10.5q22 0 36 -18l84 -101q-1 -16 -9.5 -25
t-22.5 -9q-11 0 -18 4t-15 12z" />
    <glyph glyph-name="Aacute" unicode="&#xc1;" horiz-adv-x="592" 
d="M428 162h-268q-7 -20 -15 -43.5t-15.5 -46t-14.5 -42t-11 -32.5q-14 -6 -33 -6q-16 0 -28.5 8.5t-12.5 27.5q0 9 3 18.5t7 20.5q15 42 38.5 108t51 140.5t56 150t52.5 135.5q8 4 24 8t33 4q20 0 38.5 -6t23.5 -20q24 -58 51.5 -132.5t55.5 -152.5t53.5 -153.5
t45.5 -136.5q-8 -9 -19 -14.5t-25 -5.5q-19 0 -29 8.5t-17 28.5zM294 545q-11 -30 -25 -68.5t-29 -80.5t-30 -85t-28 -82h225q-15 45 -31 90.5t-30.5 87.5t-27 77.5t-20.5 60.5h-4zM376 820q22 -1 33.5 -11.5t11.5 -24.5t-5.5 -23t-19.5 -21l-85 -76q-19 2 -29.5 10
t-10.5 20q0 10 4 17t10 13z" />
    <glyph glyph-name="Acircumflex" unicode="&#xc2;" horiz-adv-x="592" 
d="M298 751q-17 -17 -40 -41.5t-52 -50.5q-17 2 -28 10.5t-11 22.5q0 11 7.5 20.5t18.5 20.5l59 59q22 22 47 22q16 0 27 -6.5t23 -19.5l82 -93q0 -15 -9.5 -24.5t-24.5 -9.5q-11 0 -21 6t-24 22zM428 162h-268q-7 -20 -15 -43.5t-15.5 -46t-14.5 -42t-11 -32.5
q-14 -6 -33 -6q-16 0 -28.5 8.5t-12.5 27.5q0 9 3 18.5t7 20.5q15 42 38.5 108t51 140.5t56 150t52.5 135.5q8 4 24 8t33 4q20 0 38.5 -6t23.5 -20q24 -58 51.5 -132.5t55.5 -152.5t53.5 -153.5t45.5 -136.5q-8 -9 -19 -14.5t-25 -5.5q-19 0 -29 8.5t-17 28.5zM294 545
q-11 -30 -25 -68.5t-29 -80.5t-30 -85t-28 -82h225q-15 45 -31 90.5t-30.5 87.5t-27 77.5t-20.5 60.5h-4z" />
    <glyph glyph-name="Atilde" unicode="&#xc3;" horiz-adv-x="592" 
d="M428 162h-268q-7 -20 -15 -43.5t-15.5 -46t-14.5 -42t-11 -32.5q-14 -6 -33 -6q-16 0 -28.5 8.5t-12.5 27.5q0 9 3 18.5t7 20.5q15 42 38.5 108t51 140.5t56 150t52.5 135.5q8 4 24 8t33 4q20 0 38.5 -6t23.5 -20q24 -58 51.5 -132.5t55.5 -152.5t53.5 -153.5
t45.5 -136.5q-8 -9 -19 -14.5t-25 -5.5q-19 0 -29 8.5t-17 28.5zM294 545q-11 -30 -25 -68.5t-29 -80.5t-30 -85t-28 -82h225q-15 45 -31 90.5t-30.5 87.5t-27 77.5t-20.5 60.5h-4zM230 786q21 0 39 -5.5t33.5 -11.5t29.5 -11.5t27 -5.5q18 0 26.5 10.5t12.5 27.5h6
q18 0 32 -8.5t14 -29.5q0 -29 -20 -45.5t-53 -16.5q-21 0 -40 5.5t-35.5 12t-30.5 12t-26 5.5q-18 0 -26 -11t-12 -28h-6q-18 0 -32 9t-14 29q0 29 23 45.5t52 16.5z" />
    <glyph glyph-name="Adieresis" unicode="&#xc4;" horiz-adv-x="592" 
d="M428 162h-268q-7 -20 -15 -43.5t-15.5 -46t-14.5 -42t-11 -32.5q-14 -6 -33 -6q-16 0 -28.5 8.5t-12.5 27.5q0 9 3 18.5t7 20.5q15 42 38.5 108t51 140.5t56 150t52.5 135.5q8 4 24 8t33 4q20 0 38.5 -6t23.5 -20q24 -58 51.5 -132.5t55.5 -152.5t53.5 -153.5
t45.5 -136.5q-8 -9 -19 -14.5t-25 -5.5q-19 0 -29 8.5t-17 28.5zM294 545q-11 -30 -25 -68.5t-29 -80.5t-30 -85t-28 -82h225q-15 45 -31 90.5t-30.5 87.5t-27 77.5t-20.5 60.5h-4zM259 738q0 -20 -14 -34t-36 -14q-21 0 -34.5 14t-13.5 34t13.5 34t34.5 14q22 0 36 -14
t14 -34zM432 738q0 -20 -14.5 -34t-35.5 -14q-20 0 -34.5 14t-14.5 34t14.5 34t34.5 14q21 0 35.5 -14t14.5 -34z" />
    <glyph glyph-name="Aring" unicode="&#xc5;" horiz-adv-x="592" 
d="M428 162h-268q-7 -20 -15 -43.5t-15.5 -46t-14.5 -42t-11 -32.5q-14 -6 -33 -6q-16 0 -28.5 8.5t-12.5 27.5q0 9 3 18.5t7 20.5q15 42 38.5 108t51 140.5t56 150t52.5 135.5q8 4 24 8t33 4q20 0 38.5 -6t23.5 -20q24 -58 51.5 -132.5t55.5 -152.5t53.5 -153.5
t45.5 -136.5q-8 -9 -19 -14.5t-25 -5.5q-19 0 -29 8.5t-17 28.5zM294 545q-11 -30 -25 -68.5t-29 -80.5t-30 -85t-28 -82h225q-15 45 -31 90.5t-30.5 87.5t-27 77.5t-20.5 60.5h-4zM191 744q0 39 28 65t78 26q51 0 78.5 -26t27.5 -65q0 -38 -27.5 -64t-78.5 -26
q-50 0 -78 26t-28 64zM251 744q0 -19 13 -30t33 -11t33.5 11t13.5 30q0 20 -13.5 31t-33.5 11t-33 -11t-13 -31z" />
    <glyph glyph-name="AE" unicode="&#xc6;" horiz-adv-x="844" 
d="M397 613q15 0 29 -4t22 -11q13 10 35 10h295q4 -5 7 -13.5t3 -18.5q0 -17 -8.5 -27t-22.5 -10h-273v-193h263q4 -5 7 -13.5t3 -18.5q0 -17 -8.5 -26.5t-22.5 -9.5h-242v-210h299q3 -5 6.5 -13t3.5 -19q0 -17 -8.5 -26.5t-22.5 -9.5h-316q-19 0 -30.5 12t-11.5 32v118
h-210l-86 -165q-7 -2 -12.5 -3.5t-16.5 -1.5q-40 0 -40 32q0 9 4 19.5t11 23.5l27 51t42.5 78.5t52.5 97t57.5 106t58.5 105.5t54 96q8 5 21 8.5t30 3.5zM230 229h174v312h-6z" />
    <glyph glyph-name="Ccedilla" unicode="&#xc7;" horiz-adv-x="588" 
d="M533 541q0 -14 -8.5 -24t-19.5 -15q-26 18 -61 34t-91 16q-46 0 -85 -16t-68 -47t-45.5 -78t-16.5 -108q0 -62 16 -108t44.5 -77t68.5 -46.5t89 -15.5q52 0 90.5 14.5t64.5 34.5q10 -4 19 -14.5t9 -24.5q0 -21 -24 -38q-20 -14 -51 -24.5t-77 -14.5q22 -31 22 -74
q0 -48 -30 -76t-78 -28q-52 0 -52 36q0 13 6 24h15q36 0 52.5 15.5t16.5 41.5q0 14 -5 30t-16 31q-57 4 -105 26t-83.5 61.5t-55.5 96t-20 130.5q0 79 23.5 138.5t63.5 99.5t93.5 60t112.5 20q41 0 75.5 -7t59 -18.5t38 -26t13.5 -28.5z" />
    <glyph glyph-name="Egrave" unicode="&#xc8;" horiz-adv-x="542" 
d="M145 0q-20 0 -32 12t-12 32v520q0 20 12 32t32 12h332q3 -5 6 -13.5t3 -18.5q0 -17 -8 -27t-23 -10h-273v-193h264q3 -5 6 -13.5t3 -18.5q0 -17 -8 -26.5t-23 -9.5h-242v-210h300q3 -5 6 -13t3 -19q0 -17 -8 -26.5t-23 -9.5h-315zM191 768q-1 5 -1 12q0 16 9.5 26.5
t24.5 10.5q22 0 36 -18l84 -101q-1 -16 -9.5 -25t-22.5 -9q-11 0 -18 4t-15 12z" />
    <glyph glyph-name="Eacute" unicode="&#xc9;" horiz-adv-x="542" 
d="M145 0q-20 0 -32 12t-12 32v520q0 20 12 32t32 12h332q3 -5 6 -13.5t3 -18.5q0 -17 -8 -27t-23 -10h-273v-193h264q3 -5 6 -13.5t3 -18.5q0 -17 -8 -26.5t-23 -9.5h-242v-210h300q3 -5 6 -13t3 -19q0 -17 -8 -26.5t-23 -9.5h-315zM370 820q22 -1 33.5 -11.5t11.5 -24.5
t-5.5 -23t-19.5 -21l-85 -76q-19 2 -29.5 10t-10.5 20q0 10 4 17t10 13z" />
    <glyph glyph-name="Ecircumflex" unicode="&#xca;" horiz-adv-x="542" 
d="M145 0q-20 0 -32 12t-12 32v520q0 20 12 32t32 12h332q3 -5 6 -13.5t3 -18.5q0 -17 -8 -27t-23 -10h-273v-193h264q3 -5 6 -13.5t3 -18.5q0 -17 -8 -26.5t-23 -9.5h-242v-210h300q3 -5 6 -13t3 -19q0 -17 -8 -26.5t-23 -9.5h-315zM296 751q-17 -17 -40 -41.5t-52 -50.5
q-17 2 -28 10.5t-11 22.5q0 11 7.5 20.5t18.5 20.5l59 59q22 22 47 22q16 0 27 -6.5t23 -19.5l82 -93q0 -15 -9.5 -24.5t-24.5 -9.5q-11 0 -21 6t-24 22z" />
    <glyph glyph-name="Edieresis" unicode="&#xcb;" horiz-adv-x="542" 
d="M145 0q-20 0 -32 12t-12 32v520q0 20 12 32t32 12h332q3 -5 6 -13.5t3 -18.5q0 -17 -8 -27t-23 -10h-273v-193h264q3 -5 6 -13.5t3 -18.5q0 -17 -8 -26.5t-23 -9.5h-242v-210h300q3 -5 6 -13t3 -19q0 -17 -8 -26.5t-23 -9.5h-315zM264 729q0 -20 -14 -34t-36 -14
q-21 0 -34.5 14t-13.5 34t13.5 34t34.5 14q22 0 36 -14t14 -34zM437 729q0 -20 -14.5 -34t-35.5 -14q-20 0 -34.5 14t-14.5 34t14.5 34t34.5 14q21 0 35.5 -14t14.5 -34z" />
    <glyph glyph-name="Igrave" unicode="&#xcc;" horiz-adv-x="262" 
d="M171 2q-5 -2 -15 -4.5t-22 -2.5q-44 0 -44 37v574q5 2 15.5 4.5t22.5 2.5q43 0 43 -37v-574zM4 768q-1 5 -1 12q0 16 9.5 26.5t24.5 10.5q22 0 36 -18l84 -101q-1 -16 -9.5 -25t-22.5 -9q-11 0 -18 4t-15 12z" />
    <glyph glyph-name="Iacute" unicode="&#xcd;" horiz-adv-x="262" 
d="M171 2q-5 -2 -15 -4.5t-22 -2.5q-44 0 -44 37v574q5 2 15.5 4.5t22.5 2.5q43 0 43 -37v-574zM204 820q22 -1 33.5 -11.5t11.5 -24.5t-5.5 -23t-19.5 -21l-85 -76q-19 2 -29.5 10t-10.5 20q0 10 4 17t10 13z" />
    <glyph glyph-name="Icircumflex" unicode="&#xce;" horiz-adv-x="262" 
d="M171 2q-5 -2 -15 -4.5t-22 -2.5q-44 0 -44 37v574q5 2 15.5 4.5t22.5 2.5q43 0 43 -37v-574zM132 751q-17 -17 -40 -41.5t-52 -50.5q-17 2 -28 10.5t-11 22.5q0 11 7.5 20.5t18.5 20.5l59 59q22 22 47 22q16 0 27 -6.5t23 -19.5l82 -93q0 -15 -9.5 -24.5t-24.5 -9.5
q-11 0 -21 6t-24 22z" />
    <glyph glyph-name="Idieresis" unicode="&#xcf;" horiz-adv-x="262" 
d="M171 2q-5 -2 -15 -4.5t-22 -2.5q-44 0 -44 37v574q5 2 15.5 4.5t22.5 2.5q43 0 43 -37v-574zM94 729q0 -20 -14 -34t-36 -14q-21 0 -34.5 14t-13.5 34t13.5 34t34.5 14q22 0 36 -14t14 -34zM267 729q0 -20 -14.5 -34t-35.5 -14q-20 0 -34.5 14t-14.5 34t14.5 34t34.5 14
q21 0 35.5 -14t14.5 -34z" />
    <glyph glyph-name="Eth" unicode="&#xd0;" horiz-adv-x="682" 
d="M627 311q0 -82 -22.5 -142.5t-64 -100.5t-100.5 -59.5t-132 -19.5q-32 0 -72 2.5t-76 13.5q-42 13 -42 46v219h-98q-4 5 -7 13.5t-3 18.5q0 17 8.5 26.5t22.5 9.5h77v227q0 16 8 24.5t25 13.5q31 10 70 13t78 3q73 0 133.5 -19.5t103.5 -58t67 -96t24 -134.5zM544 311
q0 64 -19.5 109.5t-53 74.5t-78 42.5t-95.5 13.5q-32 0 -55.5 -2t-43.5 -6v-205h154q3 -5 6 -13t3 -19q0 -17 -8.5 -26.5t-22.5 -9.5h-132v-203q24 -6 51.5 -8t56.5 -2q118 0 177.5 64t59.5 190z" />
    <glyph glyph-name="Ntilde" unicode="&#xd1;" horiz-adv-x="660" 
d="M133 -5q-44 0 -44 36v565q18 18 54 18q24 0 41 -9.5t31 -34.5l191 -320q12 -21 25 -44.5t25 -47t22.5 -44t17.5 -34.5l4 1q-8 81 -9.5 163t-1.5 160v202q6 2 16 4.5t22 2.5q44 0 44 -36v-566q-9 -8 -23 -12.5t-31 -4.5q-24 0 -41 9.5t-31 34.5l-190 320q-12 20 -25.5 44
t-26 47t-23 44l-17.5 35l-4 -1q5 -48 8 -109.5t3 -116.5v-299q-5 -2 -15.5 -4.5t-21.5 -2.5zM250 786q21 0 39 -5.5t33.5 -11.5t29.5 -11.5t27 -5.5q18 0 26.5 10.5t12.5 27.5h6q18 0 32 -8.5t14 -29.5q0 -29 -20 -45.5t-53 -16.5q-21 0 -40 5.5t-35.5 12t-30.5 12t-26 5.5
q-18 0 -26 -11t-12 -28h-6q-18 0 -32 9t-14 29q0 29 23 45.5t52 16.5z" />
    <glyph glyph-name="Ograve" unicode="&#xd2;" horiz-adv-x="689" 
d="M634 304q0 -78 -22 -137.5t-61 -99t-92 -60t-115 -20.5t-115 20.5t-92 60t-61 99t-22 137.5t22.5 137t61.5 99t92 60.5t114 20.5t114 -20.5t92 -60.5t61.5 -99t22.5 -137zM551 304q0 120 -56.5 184t-150.5 64q-47 0 -85 -16.5t-65 -48t-41.5 -77.5t-14.5 -106
q0 -120 56 -184t150 -64q95 0 151 64t56 184zM223 768q-1 5 -1 12q0 16 9.5 26.5t24.5 10.5q22 0 36 -18l84 -101q-1 -16 -9.5 -25t-22.5 -9q-11 0 -18 4t-15 12z" />
    <glyph glyph-name="Oacute" unicode="&#xd3;" horiz-adv-x="689" 
d="M634 304q0 -78 -22 -137.5t-61 -99t-92 -60t-115 -20.5t-115 20.5t-92 60t-61 99t-22 137.5t22.5 137t61.5 99t92 60.5t114 20.5t114 -20.5t92 -60.5t61.5 -99t22.5 -137zM551 304q0 120 -56.5 184t-150.5 64q-47 0 -85 -16.5t-65 -48t-41.5 -77.5t-14.5 -106
q0 -120 56 -184t150 -64q95 0 151 64t56 184zM422 820q22 -1 33.5 -11.5t11.5 -24.5t-5.5 -23t-19.5 -21l-85 -76q-19 2 -29.5 10t-10.5 20q0 10 4 17t10 13z" />
    <glyph glyph-name="Ocircumflex" unicode="&#xd4;" horiz-adv-x="689" 
d="M634 304q0 -78 -22 -137.5t-61 -99t-92 -60t-115 -20.5t-115 20.5t-92 60t-61 99t-22 137.5t22.5 137t61.5 99t92 60.5t114 20.5t114 -20.5t92 -60.5t61.5 -99t22.5 -137zM551 304q0 120 -56.5 184t-150.5 64q-47 0 -85 -16.5t-65 -48t-41.5 -77.5t-14.5 -106
q0 -120 56 -184t150 -64q95 0 151 64t56 184zM343 751q-17 -17 -40 -41.5t-52 -50.5q-17 2 -28 10.5t-11 22.5q0 11 7.5 20.5t18.5 20.5l59 59q22 22 47 22q16 0 27 -6.5t23 -19.5l82 -93q0 -15 -9.5 -24.5t-24.5 -9.5q-11 0 -21 6t-24 22z" />
    <glyph glyph-name="Otilde" unicode="&#xd5;" horiz-adv-x="689" 
d="M634 304q0 -78 -22 -137.5t-61 -99t-92 -60t-115 -20.5t-115 20.5t-92 60t-61 99t-22 137.5t22.5 137t61.5 99t92 60.5t114 20.5t114 -20.5t92 -60.5t61.5 -99t22.5 -137zM551 304q0 120 -56.5 184t-150.5 64q-47 0 -85 -16.5t-65 -48t-41.5 -77.5t-14.5 -106
q0 -120 56 -184t150 -64q95 0 151 64t56 184zM272 786q21 0 39 -5.5t33.5 -11.5t29.5 -11.5t27 -5.5q18 0 26.5 10.5t12.5 27.5h6q18 0 32 -8.5t14 -29.5q0 -29 -20 -45.5t-53 -16.5q-21 0 -40 5.5t-35.5 12t-30.5 12t-26 5.5q-18 0 -26 -11t-12 -28h-6q-18 0 -32 9t-14 29
q0 29 23 45.5t52 16.5z" />
    <glyph glyph-name="Odieresis" unicode="&#xd6;" horiz-adv-x="689" 
d="M634 304q0 -78 -22 -137.5t-61 -99t-92 -60t-115 -20.5t-115 20.5t-92 60t-61 99t-22 137.5t22.5 137t61.5 99t92 60.5t114 20.5t114 -20.5t92 -60.5t61.5 -99t22.5 -137zM551 304q0 120 -56.5 184t-150.5 64q-47 0 -85 -16.5t-65 -48t-41.5 -77.5t-14.5 -106
q0 -120 56 -184t150 -64q95 0 151 64t56 184zM306 729q0 -20 -14 -34t-36 -14q-21 0 -34.5 14t-13.5 34t13.5 34t34.5 14q22 0 36 -14t14 -34zM479 729q0 -20 -14.5 -34t-35.5 -14q-20 0 -34.5 14t-14.5 34t14.5 34t34.5 14q21 0 35.5 -14t14.5 -34z" />
    <glyph glyph-name="multiply" unicode="&#xd7;" horiz-adv-x="495" 
d="M298 289l138 -148q-5 -13 -15 -24t-26 -11q-9 0 -17 4.5t-13 10.5l-116 129l-148 -148q-13 5 -27 14.5t-14 24.5q0 9 6 17t14 16l123 120l-141 150q4 13 14 25t25 12q10 0 18 -5.5t13 -11.5l120 -131l139 146q12 -4 24 -13.5t12 -25.5q0 -9 -5 -17t-12 -15z" />
    <glyph glyph-name="Oslash" unicode="&#xd8;" horiz-adv-x="689" 
d="M634 304q0 -78 -22 -137.5t-61 -99t-92 -60t-115 -20.5q-110 0 -187 63l-61 -66q-26 5 -36.5 17.5t-10.5 23.5q0 13 6.5 22.5t19.5 22.5l33 34q-26 38 -40 88.5t-14 111.5q0 78 22.5 137t61.5 99t92 60.5t114 20.5q51 0 96.5 -15t82.5 -44l58 64q20 -5 33.5 -15t13.5 -24
q0 -9 -5.5 -19t-19.5 -27l-29 -32q28 -39 44 -90.5t16 -114.5zM552 304q0 44 -8.5 80.5t-24.5 65.5l-310 -344q26 -24 60 -37t75 -13q95 0 151.5 64t56.5 184zM137 304q0 -82 29 -140l307 343q-53 45 -129 45q-47 0 -85 -16.5t-65 -48t-42 -77.5t-15 -106z" />
    <glyph glyph-name="Ugrave" unicode="&#xd9;" horiz-adv-x="649" 
d="M561 210q0 -51 -15.5 -92t-46 -70t-74.5 -45t-101 -16t-101 16t-74 45t-45.5 70t-15.5 92v396q5 2 15.5 4.5t22.5 2.5q43 0 43 -37v-359q0 -40 12 -70t32.5 -50.5t49 -30.5t61.5 -10t61.5 10t49 30.5t32.5 50.5t12 70v389q5 2 15.5 4.5t22.5 2.5q44 0 44 -37v-366z
M198 768q-1 5 -1 12q0 16 9.5 26.5t24.5 10.5q22 0 36 -18l84 -101q-1 -16 -9.5 -25t-22.5 -9q-11 0 -18 4t-15 12z" />
    <glyph glyph-name="Uacute" unicode="&#xda;" horiz-adv-x="649" 
d="M561 210q0 -51 -15.5 -92t-46 -70t-74.5 -45t-101 -16t-101 16t-74 45t-45.5 70t-15.5 92v396q5 2 15.5 4.5t22.5 2.5q43 0 43 -37v-359q0 -40 12 -70t32.5 -50.5t49 -30.5t61.5 -10t61.5 10t49 30.5t32.5 50.5t12 70v389q5 2 15.5 4.5t22.5 2.5q44 0 44 -37v-366z
M401 820q22 -1 33.5 -11.5t11.5 -24.5t-5.5 -23t-19.5 -21l-85 -76q-19 2 -29.5 10t-10.5 20q0 10 4 17t10 13z" />
    <glyph glyph-name="Ucircumflex" unicode="&#xdb;" horiz-adv-x="649" 
d="M561 210q0 -51 -15.5 -92t-46 -70t-74.5 -45t-101 -16t-101 16t-74 45t-45.5 70t-15.5 92v396q5 2 15.5 4.5t22.5 2.5q43 0 43 -37v-359q0 -40 12 -70t32.5 -50.5t49 -30.5t61.5 -10t61.5 10t49 30.5t32.5 50.5t12 70v389q5 2 15.5 4.5t22.5 2.5q44 0 44 -37v-366z
M329 751q-17 -17 -40 -41.5t-52 -50.5q-17 2 -28 10.5t-11 22.5q0 11 7.5 20.5t18.5 20.5l59 59q22 22 47 22q16 0 27 -6.5t23 -19.5l82 -93q0 -15 -9.5 -24.5t-24.5 -9.5q-11 0 -21 6t-24 22z" />
    <glyph glyph-name="Udieresis" unicode="&#xdc;" horiz-adv-x="649" 
d="M561 210q0 -51 -15.5 -92t-46 -70t-74.5 -45t-101 -16t-101 16t-74 45t-45.5 70t-15.5 92v396q5 2 15.5 4.5t22.5 2.5q43 0 43 -37v-359q0 -40 12 -70t32.5 -50.5t49 -30.5t61.5 -10t61.5 10t49 30.5t32.5 50.5t12 70v389q5 2 15.5 4.5t22.5 2.5q44 0 44 -37v-366z
M286 729q0 -20 -14 -34t-36 -14q-21 0 -34.5 14t-13.5 34t13.5 34t34.5 14q22 0 36 -14t14 -34zM459 729q0 -20 -14.5 -34t-35.5 -14q-20 0 -34.5 14t-14.5 34t14.5 34t34.5 14q21 0 35.5 -14t14.5 -34z" />
    <glyph glyph-name="Yacute" unicode="&#xdd;" horiz-adv-x="550" 
d="M523 580q0 -11 -15 -42.5t-42 -78.5t-64.5 -107t-82.5 -127v-223q-5 -2 -15.5 -4.5t-21.5 -2.5q-44 0 -44 37v193q-28 41 -57.5 87t-58.5 93t-55 92t-46 85q4 11 15 21.5t29 10.5q19 0 29.5 -10t21.5 -30q16 -28 37.5 -66t44 -77t43.5 -75.5t36 -60.5h4q52 87 92.5 162
t80.5 150q6 4 14.5 5.5t16.5 1.5q38 0 38 -34zM345 820q22 -1 33.5 -11.5t11.5 -24.5t-5.5 -23t-19.5 -21l-85 -76q-19 2 -29.5 10t-10.5 20q0 10 4 17t10 13z" />
    <glyph glyph-name="Thorn" unicode="&#xde;" horiz-adv-x="575" 
d="M89 607q5 2 15.5 4t21.5 2q44 0 44 -36v-80h128q113 0 168.5 -51.5t55.5 -140.5q0 -43 -14 -78.5t-42 -60.5t-70 -39t-98 -14h-128v-112q-5 -2 -15 -4t-21 -2q-45 0 -45 36v576zM170 182h109q76 0 119 30t43 93t-43 93t-119 30h-109v-246z" />
    <glyph glyph-name="germandbls" unicode="&#xdf;" horiz-adv-x="577" 
d="M160 -2q-5 -2 -14.5 -4t-20.5 -2q-45 0 -45 37v446q0 47 15 83.5t41.5 61t62.5 37.5t78 13t78.5 -12.5t63.5 -38.5t42.5 -65t15.5 -91q0 -34 -35 -48l-44 -17q-26 -13 -36.5 -25t-10.5 -33q0 -20 12 -34.5t44 -34.5q31 -18 55 -34t40 -33.5t24.5 -38.5t8.5 -49
q0 -67 -46 -100t-119 -33q-58 0 -90.5 18t-32.5 44q0 12 6 24t20 17q19 -15 43 -25t57 -10q36 0 58.5 18.5t22.5 47.5q0 13 -3.5 24.5t-13 22t-26 21.5t-41.5 25q-50 26 -75.5 56t-25.5 75q0 42 21.5 68.5t63.5 44.5l43 18q0 28 -9 52t-24.5 41t-38 27t-49.5 10
q-23 0 -44 -7t-37 -22.5t-25.5 -40t-9.5 -58.5v-476z" />
    <glyph glyph-name="agrave" unicode="&#xe0;" horiz-adv-x="499" 
d="M240 52q42 0 69.5 8.5t39.5 16.5v145l-124 -13q-52 -5 -77 -23.5t-25 -54.5q0 -38 29 -58.5t88 -20.5zM239 475q87 0 138 -39t51 -123v-237q0 -22 -8.5 -33.5t-25.5 -21.5q-24 -14 -63.5 -24.5t-90.5 -10.5q-94 0 -145.5 37t-51.5 107q0 66 43 99.5t121 41.5l142 14v28
q0 50 -30 73t-81 23q-42 0 -79 -12t-66 -27q-8 7 -14.5 16t-6.5 20q0 14 7 23t22 17q27 14 62 21.5t76 7.5zM118 634q-2 10 -2 13q0 16 10.5 26t27.5 10q21 0 35 -17l90 -113q-1 -16 -10 -25.5t-23 -9.5q-11 0 -18.5 4t-15.5 12z" />
    <glyph glyph-name="aacute" unicode="&#xe1;" horiz-adv-x="499" 
d="M240 52q42 0 69.5 8.5t39.5 16.5v145l-124 -13q-52 -5 -77 -23.5t-25 -54.5q0 -38 29 -58.5t88 -20.5zM239 475q87 0 138 -39t51 -123v-237q0 -22 -8.5 -33.5t-25.5 -21.5q-24 -14 -63.5 -24.5t-90.5 -10.5q-94 0 -145.5 37t-51.5 107q0 66 43 99.5t121 41.5l142 14v28
q0 50 -30 73t-81 23q-42 0 -79 -12t-66 -27q-8 7 -14.5 16t-6.5 20q0 14 7 23t22 17q27 14 62 21.5t76 7.5zM315 687q22 -1 35.5 -12.5t13.5 -25.5t-6 -22.5t-20 -21.5l-91 -89q-20 0 -32 10.5t-12 23.5q0 8 5 15t10 13z" />
    <glyph glyph-name="acircumflex" unicode="&#xe2;" horiz-adv-x="499" 
d="M240 52q42 0 69.5 8.5t39.5 16.5v145l-124 -13q-52 -5 -77 -23.5t-25 -54.5q0 -38 29 -58.5t88 -20.5zM239 475q87 0 138 -39t51 -123v-237q0 -22 -8.5 -33.5t-25.5 -21.5q-24 -14 -63.5 -24.5t-90.5 -10.5q-94 0 -145.5 37t-51.5 107q0 66 43 99.5t121 41.5l142 14v28
q0 50 -30 73t-81 23q-42 0 -79 -12t-66 -27q-8 7 -14.5 16t-6.5 20q0 14 7 23t22 17q27 14 62 21.5t76 7.5zM243 618q-23 -28 -45.5 -51.5t-42.5 -46.5q-18 2 -30 10.5t-12 22.5q0 11 6 19t16 19l61 66q13 11 23 17t24 6q16 0 26 -6t21 -18l84 -100q0 -14 -7.5 -24
t-23.5 -10q-12 0 -19.5 5.5t-15.5 13.5z" />
    <glyph glyph-name="atilde" unicode="&#xe3;" horiz-adv-x="499" 
d="M240 52q42 0 69.5 8.5t39.5 16.5v145l-124 -13q-52 -5 -77 -23.5t-25 -54.5q0 -38 29 -58.5t88 -20.5zM239 475q87 0 138 -39t51 -123v-237q0 -22 -8.5 -33.5t-25.5 -21.5q-24 -14 -63.5 -24.5t-90.5 -10.5q-94 0 -145.5 37t-51.5 107q0 66 43 99.5t121 41.5l142 14v28
q0 50 -30 73t-81 23q-42 0 -79 -12t-66 -27q-8 7 -14.5 16t-6.5 20q0 14 7 23t22 17q27 14 62 21.5t76 7.5zM167 651q21 0 39 -5.5t33.5 -11.5t29.5 -11.5t27 -5.5q18 0 26.5 10.5t12.5 27.5h6q18 0 32 -8.5t14 -29.5q0 -29 -20 -45.5t-53 -16.5q-21 0 -40 5.5t-35.5 12
t-30.5 12t-26 5.5q-18 0 -26 -11t-12 -28h-6q-18 0 -32 9t-14 29q0 29 23 45.5t52 16.5z" />
    <glyph glyph-name="adieresis" unicode="&#xe4;" horiz-adv-x="499" 
d="M240 52q42 0 69.5 8.5t39.5 16.5v145l-124 -13q-52 -5 -77 -23.5t-25 -54.5q0 -38 29 -58.5t88 -20.5zM239 475q87 0 138 -39t51 -123v-237q0 -22 -8.5 -33.5t-25.5 -21.5q-24 -14 -63.5 -24.5t-90.5 -10.5q-94 0 -145.5 37t-51.5 107q0 66 43 99.5t121 41.5l142 14v28
q0 50 -30 73t-81 23q-42 0 -79 -12t-66 -27q-8 7 -14.5 16t-6.5 20q0 14 7 23t22 17q27 14 62 21.5t76 7.5zM211 601q0 -20 -14 -34t-36 -14q-21 0 -34.5 14t-13.5 34t13.5 34t34.5 14q22 0 36 -14t14 -34zM384 601q0 -20 -14.5 -34t-35.5 -14q-20 0 -34.5 14t-14.5 34
t14.5 34t34.5 14q21 0 35.5 -14t14.5 -34z" />
    <glyph glyph-name="aring" unicode="&#xe5;" horiz-adv-x="499" 
d="M240 52q42 0 69.5 8.5t39.5 16.5v145l-124 -13q-52 -5 -77 -23.5t-25 -54.5q0 -38 29 -58.5t88 -20.5zM239 475q87 0 138 -39t51 -123v-237q0 -22 -8.5 -33.5t-25.5 -21.5q-24 -14 -63.5 -24.5t-90.5 -10.5q-94 0 -145.5 37t-51.5 107q0 66 43 99.5t121 41.5l142 14v28
q0 50 -30 73t-81 23q-42 0 -79 -12t-66 -27q-8 7 -14.5 16t-6.5 20q0 14 7 23t22 17q27 14 62 21.5t76 7.5zM147 612q0 39 27 66t77 27t77 -27t27 -66t-27 -66t-77 -27t-77 27t-27 66zM205 612q0 -22 13 -34t33 -12t33.5 12t13.5 34t-13.5 34t-33.5 12t-33 -12t-13 -34z" />
    <glyph glyph-name="ae" unicode="&#xe6;" horiz-adv-x="811" 
d="M239 475q60 0 100 -20.5t59 -63.5q27 41 69 62.5t96 21.5q45 0 83 -15t65.5 -42.5t43 -65t15.5 -82.5q0 -22 -10 -31.5t-28 -11.5l-309 -43q14 -65 57.5 -98t114.5 -33q42 0 76 14t55 30q24 -14 24 -38q0 -14 -12.5 -27t-34 -23t-50 -16t-61.5 -6q-61 0 -106 19t-74 54
q-2 -18 -12.5 -29.5t-24.5 -18.5q-22 -11 -53 -18.5t-82 -7.5q-94 0 -145.5 37t-51.5 107q0 66 43 99.5t121 41.5l142 14v28q0 50 -30 73t-81 23q-42 0 -79 -12t-66 -27q-8 7 -14.5 16t-6.5 20q0 14 7 23t22 17q27 14 62 21.5t76 7.5zM240 52q42 0 69.5 8.5t39.5 16.5v145
l-124 -13q-52 -5 -77 -23.5t-25 -54.5q0 -38 29 -58.5t88 -20.5zM562 410q-62 0 -101.5 -42.5t-41.5 -120.5l275 37q-5 55 -38.5 90.5t-93.5 35.5z" />
    <glyph glyph-name="ccedilla" unicode="&#xe7;" horiz-adv-x="478" 
d="M289 408q-34 0 -63 -11.5t-50 -34t-33 -56t-12 -76.5q0 -86 43 -131.5t115 -45.5q42 0 70 11.5t50 26.5q11 -6 18 -15t7 -22q0 -23 -29 -40.5t-76 -23.5q23 -32 23 -75q0 -48 -30 -76t-78 -28q-52 0 -52 36q0 13 6 24h15q36 0 52.5 15.5t16.5 41.5q0 14 -4.5 29.5
t-15.5 30.5q-47 4 -86 20.5t-67 46.5t-44 73.5t-16 101.5q0 61 19 106.5t51 76.5t75.5 46.5t92.5 15.5q31 0 57.5 -5.5t45.5 -15.5t29.5 -22.5t10.5 -25.5q0 -12 -7 -21t-18 -14q-22 15 -48 26t-68 11z" />
    <glyph glyph-name="egrave" unicode="&#xe8;" horiz-adv-x="519" 
d="M132 184q27 -131 172 -131q42 0 76 14t54 30q24 -14 24 -38q0 -14 -12.5 -27t-34 -23t-50 -16t-61.5 -6q-116 0 -183.5 63t-67.5 184q0 57 16.5 101.5t46 75.5t70.5 47.5t89 16.5q45 0 83 -15t65.5 -42.5t43 -65t15.5 -82.5q0 -22 -10 -31.5t-28 -11.5zM270 410
q-61 0 -101 -42.5t-42 -121.5l275 38q-5 55 -38.5 90.5t-93.5 35.5zM141 634q-2 10 -2 13q0 16 10.5 26t27.5 10q21 0 35 -17l90 -113q-1 -16 -10 -25.5t-23 -9.5q-11 0 -18.5 4t-15.5 12z" />
    <glyph glyph-name="eacute" unicode="&#xe9;" horiz-adv-x="519" 
d="M132 184q27 -131 172 -131q42 0 76 14t54 30q24 -14 24 -38q0 -14 -12.5 -27t-34 -23t-50 -16t-61.5 -6q-116 0 -183.5 63t-67.5 184q0 57 16.5 101.5t46 75.5t70.5 47.5t89 16.5q45 0 83 -15t65.5 -42.5t43 -65t15.5 -82.5q0 -22 -10 -31.5t-28 -11.5zM270 410
q-61 0 -101 -42.5t-42 -121.5l275 38q-5 55 -38.5 90.5t-93.5 35.5zM355 687q22 -1 35.5 -12.5t13.5 -25.5t-6 -22.5t-20 -21.5l-91 -89q-20 0 -32 10.5t-12 23.5q0 8 5 15t10 13z" />
    <glyph glyph-name="ecircumflex" unicode="&#xea;" horiz-adv-x="519" 
d="M132 184q27 -131 172 -131q42 0 76 14t54 30q24 -14 24 -38q0 -14 -12.5 -27t-34 -23t-50 -16t-61.5 -6q-116 0 -183.5 63t-67.5 184q0 57 16.5 101.5t46 75.5t70.5 47.5t89 16.5q45 0 83 -15t65.5 -42.5t43 -65t15.5 -82.5q0 -22 -10 -31.5t-28 -11.5zM270 410
q-61 0 -101 -42.5t-42 -121.5l275 38q-5 55 -38.5 90.5t-93.5 35.5zM272 618q-23 -28 -45.5 -51.5t-42.5 -46.5q-18 2 -30 10.5t-12 22.5q0 11 6 19t16 19l61 66q13 11 23 17t24 6q16 0 26 -6t21 -18l84 -100q0 -14 -7.5 -24t-23.5 -10q-12 0 -19.5 5.5t-15.5 13.5z" />
    <glyph glyph-name="edieresis" unicode="&#xeb;" horiz-adv-x="519" 
d="M132 184q27 -131 172 -131q42 0 76 14t54 30q24 -14 24 -38q0 -14 -12.5 -27t-34 -23t-50 -16t-61.5 -6q-116 0 -183.5 63t-67.5 184q0 57 16.5 101.5t46 75.5t70.5 47.5t89 16.5q45 0 83 -15t65.5 -42.5t43 -65t15.5 -82.5q0 -22 -10 -31.5t-28 -11.5zM270 410
q-61 0 -101 -42.5t-42 -121.5l275 38q-5 55 -38.5 90.5t-93.5 35.5zM232 601q0 -20 -14 -34t-36 -14q-21 0 -34.5 14t-13.5 34t13.5 34t34.5 14q22 0 36 -14t14 -34zM405 601q0 -20 -14.5 -34t-35.5 -14q-20 0 -34.5 14t-14.5 34t14.5 34t34.5 14q21 0 35.5 -14t14.5 -34z
" />
    <glyph glyph-name="igrave" unicode="&#xec;" horiz-adv-x="241" 
d="M125 -8q-45 0 -45 37v430q5 2 15 4t21 2q44 0 44 -37v-430q-5 -2 -14.5 -4t-20.5 -2zM-10 634q-2 10 -2 13q0 16 10.5 26t27.5 10q21 0 35 -17l90 -113q-1 -16 -10 -25.5t-23 -9.5q-11 0 -18.5 4t-15.5 12z" />
    <glyph glyph-name="iacute" unicode="&#xed;" horiz-adv-x="241" 
d="M125 -8q-45 0 -45 37v430q5 2 15 4t21 2q44 0 44 -37v-430q-5 -2 -14.5 -4t-20.5 -2zM201 687q22 -1 35.5 -12.5t13.5 -25.5t-6 -22.5t-20 -21.5l-91 -89q-20 0 -32 10.5t-12 23.5q0 8 5 15t10 13z" />
    <glyph glyph-name="icircumflex" unicode="&#xee;" horiz-adv-x="241" 
d="M125 -8q-45 0 -45 37v430q5 2 15 4t21 2q44 0 44 -37v-430q-5 -2 -14.5 -4t-20.5 -2zM123 618q-23 -28 -45.5 -51.5t-42.5 -46.5q-18 2 -30 10.5t-12 22.5q0 11 6 19t16 19l61 66q13 11 23 17t24 6q16 0 26 -6t21 -18l84 -100q0 -14 -7.5 -24t-23.5 -10q-12 0 -19.5 5.5
t-15.5 13.5z" />
    <glyph glyph-name="idieresis" unicode="&#xef;" horiz-adv-x="241" 
d="M125 -8q-45 0 -45 37v430q5 2 15 4t21 2q44 0 44 -37v-430q-5 -2 -14.5 -4t-20.5 -2zM83 601q0 -20 -14 -34t-36 -14q-21 0 -34.5 14t-13.5 34t13.5 34t34.5 14q22 0 36 -14t14 -34zM256 601q0 -20 -14.5 -34t-35.5 -14q-20 0 -34.5 14t-14.5 34t14.5 34t34.5 14
q21 0 35.5 -14t14.5 -34z" />
    <glyph glyph-name="eth" unicode="&#xf0;" horiz-adv-x="537" 
d="M376 544q46 -56 78.5 -135t32.5 -170q0 -125 -57 -188.5t-159 -63.5q-51 0 -92 15.5t-70 45t-44.5 71.5t-15.5 95q0 58 17.5 100t47 69t67 40t78.5 13q36 0 65.5 -10.5t52.5 -27.5q-16 34 -34.5 63.5t-43.5 54.5l-114 -40q-11 6 -17.5 16.5t-6.5 23.5q0 21 25 30l57 21
q-23 16 -47.5 26t-50.5 18q0 19 10.5 33.5t31.5 14.5q29 0 65.5 -17.5t72.5 -46.5l98 39q10 -7 17.5 -16.5t7.5 -23.5t-6 -20.5t-19 -11.5zM406 220q0 23 -1.5 42t-3.5 37q-22 33 -55 52t-73 19q-72 0 -107 -42t-35 -114q0 -74 37.5 -117.5t103.5 -43.5q67 0 100.5 45.5
t33.5 121.5z" />
    <glyph glyph-name="ntilde" unicode="&#xf1;" horiz-adv-x="560" 
d="M405 301q0 56 -31.5 82t-84.5 26q-40 0 -71 -10t-53 -23v-374q-5 -2 -15 -4.5t-22 -2.5q-43 0 -43 36v341q0 21 8.5 34.5t29.5 26.5q26 16 69 29t97 13q91 0 143.5 -41t52.5 -129v-303q-5 -2 -15.5 -4.5t-21.5 -2.5q-43 0 -43 36v270zM203 651q21 0 39 -5.5t33.5 -11.5
t29.5 -11.5t27 -5.5q18 0 26.5 10.5t12.5 27.5h6q18 0 32 -8.5t14 -29.5q0 -29 -20 -45.5t-53 -16.5q-21 0 -40 5.5t-35.5 12t-30.5 12t-26 5.5q-18 0 -26 -11t-12 -28h-6q-18 0 -32 9t-14 29q0 29 23 45.5t52 16.5z" />
    <glyph glyph-name="ograve" unicode="&#xf2;" horiz-adv-x="553" 
d="M504 231q0 -56 -16 -101t-45.5 -77t-71.5 -49t-94 -17t-94 17t-72 49t-46 77t-16 101t16.5 101t46.5 77t72 49t93 17t93 -17t71.5 -49t46 -77t16.5 -101zM277 409q-68 0 -107 -47t-39 -131q0 -85 38.5 -131.5t107.5 -46.5t107 47t38 131t-38.5 131t-106.5 47zM149 634
q-2 10 -2 13q0 16 10.5 26t27.5 10q21 0 35 -17l90 -113q-1 -16 -10 -25.5t-23 -9.5q-11 0 -18.5 4t-15.5 12z" />
    <glyph glyph-name="oacute" unicode="&#xf3;" horiz-adv-x="553" 
d="M504 231q0 -56 -16 -101t-45.5 -77t-71.5 -49t-94 -17t-94 17t-72 49t-46 77t-16 101t16.5 101t46.5 77t72 49t93 17t93 -17t71.5 -49t46 -77t16.5 -101zM277 409q-68 0 -107 -47t-39 -131q0 -85 38.5 -131.5t107.5 -46.5t107 47t38 131t-38.5 131t-106.5 47zM371 687
q22 -1 35.5 -12.5t13.5 -25.5t-6 -22.5t-20 -21.5l-91 -89q-20 0 -32 10.5t-12 23.5q0 8 5 15t10 13z" />
    <glyph glyph-name="ocircumflex" unicode="&#xf4;" horiz-adv-x="553" 
d="M504 231q0 -56 -16 -101t-45.5 -77t-71.5 -49t-94 -17t-94 17t-72 49t-46 77t-16 101t16.5 101t46.5 77t72 49t93 17t93 -17t71.5 -49t46 -77t16.5 -101zM277 409q-68 0 -107 -47t-39 -131q0 -85 38.5 -131.5t107.5 -46.5t107 47t38 131t-38.5 131t-106.5 47zM277 618
q-23 -28 -45.5 -51.5t-42.5 -46.5q-18 2 -30 10.5t-12 22.5q0 11 6 19t16 19l61 66q13 11 23 17t24 6q16 0 26 -6t21 -18l84 -100q0 -14 -7.5 -24t-23.5 -10q-12 0 -19.5 5.5t-15.5 13.5z" />
    <glyph glyph-name="otilde" unicode="&#xf5;" horiz-adv-x="553" 
d="M504 231q0 -56 -16 -101t-45.5 -77t-71.5 -49t-94 -17t-94 17t-72 49t-46 77t-16 101t16.5 101t46.5 77t72 49t93 17t93 -17t71.5 -49t46 -77t16.5 -101zM277 409q-68 0 -107 -47t-39 -131q0 -85 38.5 -131.5t107.5 -46.5t107 47t38 131t-38.5 131t-106.5 47zM206 651
q21 0 39 -5.5t33.5 -11.5t29.5 -11.5t27 -5.5q18 0 26.5 10.5t12.5 27.5h6q18 0 32 -8.5t14 -29.5q0 -29 -20 -45.5t-53 -16.5q-21 0 -40 5.5t-35.5 12t-30.5 12t-26 5.5q-18 0 -26 -11t-12 -28h-6q-18 0 -32 9t-14 29q0 29 23 45.5t52 16.5z" />
    <glyph glyph-name="odieresis" unicode="&#xf6;" horiz-adv-x="553" 
d="M504 231q0 -56 -16 -101t-45.5 -77t-71.5 -49t-94 -17t-94 17t-72 49t-46 77t-16 101t16.5 101t46.5 77t72 49t93 17t93 -17t71.5 -49t46 -77t16.5 -101zM277 409q-68 0 -107 -47t-39 -131q0 -85 38.5 -131.5t107.5 -46.5t107 47t38 131t-38.5 131t-106.5 47zM240 601
q0 -20 -14 -34t-36 -14q-21 0 -34.5 14t-13.5 34t13.5 34t34.5 14q22 0 36 -14t14 -34zM413 601q0 -20 -14.5 -34t-35.5 -14q-20 0 -34.5 14t-14.5 34t14.5 34t34.5 14q21 0 35.5 -14t14.5 -34z" />
    <glyph glyph-name="divide" unicode="&#xf7;" horiz-adv-x="522" 
d="M58 266q-3 7 -5 14.5t-2 17.5q0 34 35 34h378q7 -14 7 -31q0 -35 -35 -35h-378zM210 135q0 23 14.5 38t38.5 15t38.5 -15t14.5 -38t-14.5 -38t-38.5 -15t-38.5 15t-14.5 38zM210 459q0 23 14.5 38t38.5 15t38.5 -15t14.5 -38t-14.5 -38t-38.5 -15t-38.5 15t-14.5 38z" />
    <glyph glyph-name="oslash" unicode="&#xf8;" horiz-adv-x="553" 
d="M504 231q0 -56 -16 -101t-45.5 -77t-71.5 -49t-94 -17q-60 0 -108 23l-48 -71q-23 0 -36.5 10t-13.5 25q0 9 6 18l39 56q-32 32 -49.5 78t-17.5 105q0 56 16.5 101t46.5 77t72 49t93 17q58 0 106 -23l47 71q21 0 35 -9.5t14 -26.5q0 -7 -6 -16l-38 -56q33 -32 51 -78.5
t18 -105.5zM424 231q0 76 -34 122l-182 -285q30 -15 69 -15q69 0 108 46.5t39 131.5zM277 409q-68 0 -108 -47t-40 -131q0 -75 32 -121l183 284q-30 15 -67 15z" />
    <glyph glyph-name="ugrave" unicode="&#xf9;" horiz-adv-x="550" 
d="M75 460q5 2 15.5 4.5t22.5 2.5q42 0 42 -37v-257q0 -65 34 -92.5t94 -27.5q40 0 68 8.5t44 17.5v381q5 2 15.5 4.5t21.5 2.5q43 0 43 -37v-348q0 -21 -5.5 -33.5t-26.5 -24.5q-23 -13 -63.5 -25t-97.5 -12q-100 0 -153.5 44t-53.5 138v291zM144 634q-2 10 -2 13
q0 16 10.5 26t27.5 10q21 0 35 -17l90 -113q-1 -16 -10 -25.5t-23 -9.5q-11 0 -18.5 4t-15.5 12z" />
    <glyph glyph-name="uacute" unicode="&#xfa;" horiz-adv-x="550" 
d="M75 460q5 2 15.5 4.5t22.5 2.5q42 0 42 -37v-257q0 -65 34 -92.5t94 -27.5q40 0 68 8.5t44 17.5v381q5 2 15.5 4.5t21.5 2.5q43 0 43 -37v-348q0 -21 -5.5 -33.5t-26.5 -24.5q-23 -13 -63.5 -25t-97.5 -12q-100 0 -153.5 44t-53.5 138v291zM356 687q22 -1 35.5 -12.5
t13.5 -25.5t-6 -22.5t-20 -21.5l-91 -89q-20 0 -32 10.5t-12 23.5q0 8 5 15t10 13z" />
    <glyph glyph-name="ucircumflex" unicode="&#xfb;" horiz-adv-x="550" 
d="M75 460q5 2 15.5 4.5t22.5 2.5q42 0 42 -37v-257q0 -65 34 -92.5t94 -27.5q40 0 68 8.5t44 17.5v381q5 2 15.5 4.5t21.5 2.5q43 0 43 -37v-348q0 -21 -5.5 -33.5t-26.5 -24.5q-23 -13 -63.5 -25t-97.5 -12q-100 0 -153.5 44t-53.5 138v291zM278 618q-23 -28 -45.5 -51.5
t-42.5 -46.5q-18 2 -30 10.5t-12 22.5q0 11 6 19t16 19l61 66q13 11 23 17t24 6q16 0 26 -6t21 -18l84 -100q0 -14 -7.5 -24t-23.5 -10q-12 0 -19.5 5.5t-15.5 13.5z" />
    <glyph glyph-name="udieresis" unicode="&#xfc;" horiz-adv-x="550" 
d="M75 460q5 2 15.5 4.5t22.5 2.5q42 0 42 -37v-257q0 -65 34 -92.5t94 -27.5q40 0 68 8.5t44 17.5v381q5 2 15.5 4.5t21.5 2.5q43 0 43 -37v-348q0 -21 -5.5 -33.5t-26.5 -24.5q-23 -13 -63.5 -25t-97.5 -12q-100 0 -153.5 44t-53.5 138v291zM236 601q0 -20 -14 -34
t-36 -14q-21 0 -34.5 14t-13.5 34t13.5 34t34.5 14q22 0 36 -14t14 -34zM409 601q0 -20 -14.5 -34t-35.5 -14q-20 0 -34.5 14t-14.5 34t14.5 34t34.5 14q21 0 35.5 -14t14.5 -34z" />
    <glyph glyph-name="yacute" unicode="&#xfd;" horiz-adv-x="489" 
d="M169 103q-13 24 -30 61t-35.5 83t-37.5 97.5t-36 104.5q7 10 18.5 16t24.5 6q17 0 27.5 -9t18.5 -30q30 -85 62.5 -167t73.5 -172h4q16 31 33 75.5t33.5 94.5t31 101.5t25.5 98.5q7 3 15 5.5t19 2.5q17 0 28 -8.5t11 -25.5q0 -20 -14 -73t-36.5 -119t-51.5 -135.5
t-59 -123.5q-47 -85 -84.5 -130.5t-69.5 -45.5q-23 0 -35.5 12t-15.5 28q16 14 36 36t40 47.5t38 52.5t30 52q-17 5 -31.5 17.5t-32.5 47.5zM329 687q22 -1 35.5 -12.5t13.5 -25.5t-6 -22.5t-20 -21.5l-91 -89q-20 0 -32 10.5t-12 23.5q0 8 5 15t10 13z" />
    <glyph glyph-name="thorn" unicode="&#xfe;" horiz-adv-x="553" 
d="M274 -13q-35 0 -66 8t-51 19v-194q-5 -2 -15 -4.5t-22 -2.5q-43 0 -43 37v799q5 2 15.5 4t21.5 2q43 0 43 -36v-168q22 10 50.5 17t61.5 7q48 0 89.5 -14t73 -43.5t49.5 -75.5t18 -110q0 -62 -16.5 -108t-46.5 -76.5t-71.5 -45.5t-90.5 -15zM263 53q70 0 112.5 42.5
t42.5 136.5q0 49 -12.5 83t-34 55t-49.5 30t-59 9q-35 0 -60.5 -8.5t-45.5 -19.5v-296q19 -14 45 -23t61 -9z" />
    <glyph glyph-name="ydieresis" unicode="&#xff;" horiz-adv-x="489" 
d="M169 103q-13 24 -30 61t-35.5 83t-37.5 97.5t-36 104.5q7 10 18.5 16t24.5 6q17 0 27.5 -9t18.5 -30q30 -85 62.5 -167t73.5 -172h4q16 31 33 75.5t33.5 94.5t31 101.5t25.5 98.5q7 3 15 5.5t19 2.5q17 0 28 -8.5t11 -25.5q0 -20 -14 -73t-36.5 -119t-51.5 -135.5
t-59 -123.5q-47 -85 -84.5 -130.5t-69.5 -45.5q-23 0 -35.5 12t-15.5 28q16 14 36 36t40 47.5t38 52.5t30 52q-17 5 -31.5 17.5t-32.5 47.5zM208 601q0 -20 -14 -34t-36 -14q-21 0 -34.5 14t-13.5 34t13.5 34t34.5 14q22 0 36 -14t14 -34zM381 601q0 -20 -14.5 -34
t-35.5 -14q-20 0 -34.5 14t-14.5 34t14.5 34t34.5 14q21 0 35.5 -14t14.5 -34z" />
    <glyph glyph-name="Amacron" unicode="&#x100;" horiz-adv-x="592" 
d="M165 690q-4 6 -7.5 14t-3.5 18q0 17 9 25t23 8h228q4 -6 7 -14.5t3 -17.5q0 -33 -32 -33h-227zM428 162h-268q-7 -20 -15 -43.5t-15.5 -46t-14.5 -42t-11 -32.5q-14 -6 -33 -6q-16 0 -28.5 8.5t-12.5 27.5q0 9 3 18.5t7 20.5q15 42 38.5 108t51 140.5t56 150t52.5 135.5
q8 4 24 8t33 4q20 0 38.5 -6t23.5 -20q24 -58 51.5 -132.5t55.5 -152.5t53.5 -153.5t45.5 -136.5q-8 -9 -19 -14.5t-25 -5.5q-19 0 -29 8.5t-17 28.5zM294 545q-11 -30 -25 -68.5t-29 -80.5t-30 -85t-28 -82h225q-15 45 -31 90.5t-30.5 87.5t-27 77.5t-20.5 60.5h-4z" />
    <glyph glyph-name="amacron" unicode="&#x101;" horiz-adv-x="499" 
d="M240 52q42 0 69.5 8.5t39.5 16.5v145l-124 -13q-52 -5 -77 -23.5t-25 -54.5q0 -38 29 -58.5t88 -20.5zM239 475q87 0 138 -39t51 -123v-237q0 -22 -8.5 -33.5t-25.5 -21.5q-24 -14 -63.5 -24.5t-90.5 -10.5q-94 0 -145.5 37t-51.5 107q0 66 43 99.5t121 41.5l142 14v28
q0 50 -30 73t-81 23q-42 0 -79 -12t-66 -27q-8 7 -14.5 16t-6.5 20q0 14 7 23t22 17q27 14 62 21.5t76 7.5zM125 570q-4 6 -7.5 14t-3.5 18q0 17 9 25t23 8h228q4 -6 7 -14.5t3 -17.5q0 -33 -32 -33h-227z" />
    <glyph glyph-name="Abreve" unicode="&#x102;" horiz-adv-x="592" 
d="M428 162h-268q-7 -20 -15 -43.5t-15.5 -46t-14.5 -42t-11 -32.5q-14 -6 -33 -6q-16 0 -28.5 8.5t-12.5 27.5q0 9 3 18.5t7 20.5q15 42 38.5 108t51 140.5t56 150t52.5 135.5q8 4 24 8t33 4q20 0 38.5 -6t23.5 -20q24 -58 51.5 -132.5t55.5 -152.5t53.5 -153.5
t45.5 -136.5q-8 -9 -19 -14.5t-25 -5.5q-19 0 -29 8.5t-17 28.5zM294 545q-11 -30 -25 -68.5t-29 -80.5t-30 -85t-28 -82h225q-15 45 -31 90.5t-30.5 87.5t-27 77.5t-20.5 60.5h-4zM296 725q65 0 76 66q4 1 8 1.5t9 0.5q16 0 25.5 -9t9.5 -29q0 -16 -8 -31.5t-24 -28
t-40 -20.5t-56 -8q-33 0 -57 8t-40 20.5t-23.5 28.5t-7.5 31q0 38 35 38q9 0 17 -2q11 -66 76 -66z" />
    <glyph glyph-name="abreve" unicode="&#x103;" horiz-adv-x="499" 
d="M240 52q42 0 69.5 8.5t39.5 16.5v145l-124 -13q-52 -5 -77 -23.5t-25 -54.5q0 -38 29 -58.5t88 -20.5zM239 475q87 0 138 -39t51 -123v-237q0 -22 -8.5 -33.5t-25.5 -21.5q-24 -14 -63.5 -24.5t-90.5 -10.5q-94 0 -145.5 37t-51.5 107q0 66 43 99.5t121 41.5l142 14v28
q0 50 -30 73t-81 23q-42 0 -79 -12t-66 -27q-8 7 -14.5 16t-6.5 20q0 14 7 23t22 17q27 14 62 21.5t76 7.5zM253 599q65 0 76 66q4 1 8 1.5t9 0.5q16 0 25.5 -9t9.5 -29q0 -16 -8 -31.5t-24 -28t-40 -20.5t-56 -8q-33 0 -57 8t-40 20.5t-23.5 28.5t-7.5 31q0 38 35 38
q9 0 17 -2q11 -66 76 -66z" />
    <glyph glyph-name="Aogonek" unicode="&#x104;" horiz-adv-x="592" 
d="M428 162h-268q-7 -20 -15 -43.5t-15.5 -46t-14.5 -42t-11 -32.5q-14 -6 -33 -6q-16 0 -28.5 8.5t-12.5 27.5q0 9 3 18.5t7 20.5q15 42 38.5 108t51 140.5t56 150t52.5 135.5q8 4 24 8t33 4q20 0 38.5 -6t23.5 -20q24 -58 51.5 -132.5t55.5 -152.5t53.5 -153.5
t45.5 -136.5l-6 -6t-7 -5q-19 -14 -32.5 -31t-13.5 -43q0 -27 17.5 -40t46.5 -13h14q6 -12 6 -23q0 -16 -11 -26t-37 -10q-22 0 -41.5 6.5t-34.5 19t-23.5 30t-8.5 40.5q0 35 16.5 58.5t35.5 35.5q-7 10 -11 24zM294 545q-11 -30 -25 -68.5t-29 -80.5t-30 -85t-28 -82h225
q-15 45 -31 90.5t-30.5 87.5t-27 77.5t-20.5 60.5h-4z" />
    <glyph glyph-name="aogonek" unicode="&#x105;" horiz-adv-x="499" 
d="M239 475q87 0 138 -39t51 -123v-237q0 -22 -8.5 -33.5t-24.5 -20.5q-26 -21 -41 -42t-15 -53q0 -27 17 -40t46 -13h15q6 -12 6 -23q0 -16 -11 -26t-38 -10q-22 0 -41.5 6.5t-34 19t-23 30t-8.5 40.5q0 27 10 46.5t24 33.5q-14 -2 -29.5 -3.5t-31.5 -1.5q-94 0 -145.5 37
t-51.5 107q0 66 43 99.5t121 41.5l142 14v28q0 50 -30 73t-81 23q-42 0 -79 -12t-66 -27q-8 7 -14.5 16t-6.5 20q0 14 7 23t22 17q27 14 62 21.5t76 7.5zM240 52q42 0 69.5 8.5t39.5 16.5v145l-124 -13q-52 -5 -77 -23.5t-25 -54.5q0 -38 29 -58.5t88 -20.5z" />
    <glyph glyph-name="Cacute" unicode="&#x106;" horiz-adv-x="588" 
d="M533 541q0 -14 -8.5 -24t-19.5 -15q-26 18 -61 34t-91 16q-46 0 -85 -16t-68 -47t-45.5 -78t-16.5 -108q0 -62 16 -108t44.5 -77t68.5 -46.5t89 -15.5q52 0 90.5 14.5t64.5 34.5q10 -4 19 -14.5t9 -24.5q0 -21 -24 -38q-23 -16 -63 -28.5t-102 -12.5q-63 0 -117 20
t-93.5 59.5t-62.5 98.5t-23 138t23.5 138.5t63.5 99.5t93.5 60t112.5 20q41 0 75.5 -7t59 -18.5t38 -26t13.5 -28.5zM409 820q22 -1 33.5 -11.5t11.5 -24.5t-5.5 -23t-19.5 -21l-85 -76q-19 2 -29.5 10t-10.5 20q0 10 4 17t10 13z" />
    <glyph glyph-name="cacute" unicode="&#x107;" horiz-adv-x="478" 
d="M289 408q-34 0 -63 -11.5t-50 -34t-33 -56t-12 -76.5q0 -86 43 -131.5t115 -45.5q42 0 70 11.5t50 26.5q11 -6 18 -15t7 -22q0 -14 -11 -26t-30.5 -21t-46 -14.5t-57.5 -5.5q-52 0 -96 15t-76 45t-50 75.5t-18 107.5q0 61 19 106.5t51 76.5t75.5 46.5t92.5 15.5
q31 0 57.5 -5.5t45.5 -15.5t29.5 -22.5t10.5 -25.5q0 -12 -7 -21t-18 -14q-22 15 -48 26t-68 11zM357 687q22 -1 35.5 -12.5t13.5 -25.5t-6 -22.5t-20 -21.5l-91 -89q-20 0 -32 10.5t-12 23.5q0 8 5 15t10 13z" />
    <glyph glyph-name="Ccircumflex" unicode="&#x108;" horiz-adv-x="588" 
d="M533 541q0 -14 -8.5 -24t-19.5 -15q-26 18 -61 34t-91 16q-46 0 -85 -16t-68 -47t-45.5 -78t-16.5 -108q0 -62 16 -108t44.5 -77t68.5 -46.5t89 -15.5q52 0 90.5 14.5t64.5 34.5q10 -4 19 -14.5t9 -24.5q0 -21 -24 -38q-23 -16 -63 -28.5t-102 -12.5q-63 0 -117 20
t-93.5 59.5t-62.5 98.5t-23 138t23.5 138.5t63.5 99.5t93.5 60t112.5 20q41 0 75.5 -7t59 -18.5t38 -26t13.5 -28.5zM342 751q-17 -17 -40 -41.5t-52 -50.5q-17 2 -28 10.5t-11 22.5q0 11 7.5 20.5t18.5 20.5l59 59q22 22 47 22q16 0 27 -6.5t23 -19.5l82 -93
q0 -15 -9.5 -24.5t-24.5 -9.5q-11 0 -21 6t-24 22z" />
    <glyph glyph-name="ccircumflex" unicode="&#x109;" horiz-adv-x="478" 
d="M289 408q-34 0 -63 -11.5t-50 -34t-33 -56t-12 -76.5q0 -86 43 -131.5t115 -45.5q42 0 70 11.5t50 26.5q11 -6 18 -15t7 -22q0 -14 -11 -26t-30.5 -21t-46 -14.5t-57.5 -5.5q-52 0 -96 15t-76 45t-50 75.5t-18 107.5q0 61 19 106.5t51 76.5t75.5 46.5t92.5 15.5
q31 0 57.5 -5.5t45.5 -15.5t29.5 -22.5t10.5 -25.5q0 -12 -7 -21t-18 -14q-22 15 -48 26t-68 11zM277 618q-23 -28 -45.5 -51.5t-42.5 -46.5q-18 2 -30 10.5t-12 22.5q0 11 6 19t16 19l61 66q13 11 23 17t24 6q16 0 26 -6t21 -18l84 -100q0 -14 -7.5 -24t-23.5 -10
q-12 0 -19.5 5.5t-15.5 13.5z" />
    <glyph glyph-name="Cdotaccent" unicode="&#x10a;" horiz-adv-x="588" 
d="M533 541q0 -14 -8.5 -24t-19.5 -15q-26 18 -61 34t-91 16q-46 0 -85 -16t-68 -47t-45.5 -78t-16.5 -108q0 -62 16 -108t44.5 -77t68.5 -46.5t89 -15.5q52 0 90.5 14.5t64.5 34.5q10 -4 19 -14.5t9 -24.5q0 -21 -24 -38q-23 -16 -63 -28.5t-102 -12.5q-63 0 -117 20
t-93.5 59.5t-62.5 98.5t-23 138t23.5 138.5t63.5 99.5t93.5 60t112.5 20q41 0 75.5 -7t59 -18.5t38 -26t13.5 -28.5zM387 730q0 -22 -14 -35.5t-37 -13.5t-36.5 13.5t-13.5 35.5q0 23 13.5 36.5t36.5 13.5t37 -13.5t14 -36.5z" />
    <glyph glyph-name="cdotaccent" unicode="&#x10b;" horiz-adv-x="478" 
d="M289 408q-34 0 -63 -11.5t-50 -34t-33 -56t-12 -76.5q0 -86 43 -131.5t115 -45.5q42 0 70 11.5t50 26.5q11 -6 18 -15t7 -22q0 -14 -11 -26t-30.5 -21t-46 -14.5t-57.5 -5.5q-52 0 -96 15t-76 45t-50 75.5t-18 107.5q0 61 19 106.5t51 76.5t75.5 46.5t92.5 15.5
q31 0 57.5 -5.5t45.5 -15.5t29.5 -22.5t10.5 -25.5q0 -12 -7 -21t-18 -14q-22 15 -48 26t-68 11zM321 607q0 -22 -14 -35.5t-37 -13.5t-36.5 13.5t-13.5 35.5q0 23 13.5 36.5t36.5 13.5t37 -13.5t14 -36.5z" />
    <glyph glyph-name="Ccaron" unicode="&#x10c;" horiz-adv-x="588" 
d="M533 541q0 -14 -8.5 -24t-19.5 -15q-26 18 -61 34t-91 16q-46 0 -85 -16t-68 -47t-45.5 -78t-16.5 -108q0 -62 16 -108t44.5 -77t68.5 -46.5t89 -15.5q52 0 90.5 14.5t64.5 34.5q10 -4 19 -14.5t9 -24.5q0 -21 -24 -38q-23 -16 -63 -28.5t-102 -12.5q-63 0 -117 20
t-93.5 59.5t-62.5 98.5t-23 138t23.5 138.5t63.5 99.5t93.5 60t112.5 20q41 0 75.5 -7t59 -18.5t38 -26t13.5 -28.5zM436 814q18 -2 31 -10.5t13 -22.5q0 -12 -7.5 -21t-18.5 -20l-60 -60q-11 -11 -21.5 -15.5t-24.5 -4.5q-15 0 -26.5 6t-22.5 19l-83 88q0 19 9 29t24 10
q11 0 21 -6t24 -22l54 -63z" />
    <glyph glyph-name="ccaron" unicode="&#x10d;" horiz-adv-x="478" 
d="M289 408q-34 0 -63 -11.5t-50 -34t-33 -56t-12 -76.5q0 -86 43 -131.5t115 -45.5q42 0 70 11.5t50 26.5q11 -6 18 -15t7 -22q0 -14 -11 -26t-30.5 -21t-46 -14.5t-57.5 -5.5q-52 0 -96 15t-76 45t-50 75.5t-18 107.5q0 61 19 106.5t51 76.5t75.5 46.5t92.5 15.5
q31 0 57.5 -5.5t45.5 -15.5t29.5 -22.5t10.5 -25.5q0 -12 -7 -21t-18 -14q-22 15 -48 26t-68 11zM273 583l88 97q20 -2 31.5 -11t11.5 -23q0 -11 -7 -20t-18 -21l-63 -64q-10 -10 -20 -15t-24 -5t-25.5 6.5t-23.5 19.5l-85 93q0 15 9 26.5t24 11.5q13 0 21.5 -5.5
t19.5 -18.5z" />
    <glyph glyph-name="Dcaron" unicode="&#x10e;" horiz-adv-x="652" 
d="M515 311q0 64 -19.5 109.5t-53 74.5t-78 42.5t-95.5 13.5q-32 0 -55.5 -2t-43.5 -6v-476q24 -6 51.5 -8t56.5 -2q118 0 177.5 64t59.5 190zM598 311q0 -82 -22.5 -142.5t-64 -100.5t-100.5 -59.5t-132 -19.5q-32 0 -72 2.5t-76 13.5q-42 13 -42 46v514q0 16 8 24.5
t25 13.5q31 10 70 13t78 3q73 0 133.5 -19.5t103.5 -58t67 -96t24 -134.5zM403 814q18 -2 31 -10.5t13 -22.5q0 -12 -7.5 -21t-18.5 -20l-60 -60q-11 -11 -21.5 -15.5t-24.5 -4.5q-15 0 -26.5 6t-22.5 19l-83 88q0 19 9 29t24 10q11 0 21 -6t24 -22l54 -63z" />
    <glyph glyph-name="dcaron" unicode="&#x10f;" horiz-adv-x="624" 
d="M470 76q0 -20 -8.5 -31t-26.5 -22q-20 -13 -57 -24.5t-85 -11.5q-54 0 -99 14t-77.5 43.5t-50 75t-17.5 109.5q0 65 18 111.5t48.5 76.5t72 44t88.5 14q32 0 62 -8t52 -20v201q5 2 15.5 4.5t21.5 2.5q43 0 43 -36v-543zM390 375q-20 14 -46 24t-60 10q-31 0 -58.5 -9.5
t-48.5 -31t-33.5 -56.5t-12.5 -85q0 -92 44 -133t117 -41q35 0 57.5 7.5t40.5 18.5v296zM589 516q-15 -18 -38 -18q-21 0 -31 13q14 35 26 71.5t15 65.5q17 7 36 7q16 0 26.5 -7.5t10.5 -22.5q0 -12 -4 -27.5t-11 -30.5t-15 -28.5t-15 -22.5z" />
    <glyph glyph-name="Dcroat" unicode="&#x110;" horiz-adv-x="691" 
d="M637 311q0 -82 -22.5 -142.5t-64 -100.5t-100.5 -59.5t-132 -19.5q-32 0 -72 2.5t-76 13.5q-42 13 -42 46v219h-113q-4 5 -7 13.5t-3 18.5q0 17 8.5 26.5t22.5 9.5h92v227q0 16 8 24.5t25 13.5q31 10 70 13t78 3q73 0 133.5 -19.5t103.5 -58t67 -96t24 -134.5zM554 311
q0 64 -19.5 109.5t-53 74.5t-78 42.5t-95.5 13.5q-32 0 -55.5 -2t-43.5 -6v-205h146q3 -5 6.5 -13t3.5 -19q0 -17 -8.5 -26.5t-23.5 -9.5h-124v-203q24 -6 51.5 -8t56.5 -2q118 0 177.5 64t59.5 190z" />
    <glyph glyph-name="dcroat" unicode="&#x111;" horiz-adv-x="550" 
d="M470 76q0 -20 -8.5 -31t-26.5 -22q-20 -13 -57 -24.5t-85 -11.5q-54 0 -99 14t-77.5 43.5t-50 75t-17.5 109.5q0 65 18 111.5t48.5 76.5t72 44t88.5 14q32 0 62 -8t52 -20v80h-103q-3 5 -5.5 12.5t-2.5 17.5q0 30 27 30h84v62q5 2 15.5 4.5t21.5 2.5q43 0 43 -36v-33h67
q2 -5 5 -12t3 -16q0 -32 -28 -32h-47v-451zM390 375q-20 14 -46 24t-60 10q-31 0 -58.5 -9.5t-48.5 -31t-33.5 -56.5t-12.5 -85q0 -92 44 -133t117 -41q35 0 57.5 7.5t40.5 18.5v296z" />
    <glyph glyph-name="Emacron" unicode="&#x112;" horiz-adv-x="542" 
d="M145 0q-20 0 -32 12t-12 32v520q0 20 12 32t32 12h332q3 -5 6 -13.5t3 -18.5q0 -17 -8 -27t-23 -10h-273v-193h264q3 -5 6 -13.5t3 -18.5q0 -17 -8 -26.5t-23 -9.5h-242v-210h300q3 -5 6 -13t3 -19q0 -17 -8 -26.5t-23 -9.5h-315zM162 690q-4 6 -7.5 14t-3.5 18
q0 17 9 25t23 8h228q4 -6 7 -14.5t3 -17.5q0 -33 -32 -33h-227z" />
    <glyph glyph-name="emacron" unicode="&#x113;" horiz-adv-x="519" 
d="M132 184q27 -131 172 -131q42 0 76 14t54 30q24 -14 24 -38q0 -14 -12.5 -27t-34 -23t-50 -16t-61.5 -6q-116 0 -183.5 63t-67.5 184q0 57 16.5 101.5t46 75.5t70.5 47.5t89 16.5q45 0 83 -15t65.5 -42.5t43 -65t15.5 -82.5q0 -22 -10 -31.5t-28 -11.5zM270 410
q-61 0 -101 -42.5t-42 -121.5l275 38q-5 55 -38.5 90.5t-93.5 35.5zM145 570q-4 6 -7.5 14t-3.5 18q0 17 9 25t23 8h228q4 -6 7 -14.5t3 -17.5q0 -33 -32 -33h-227z" />
    <glyph glyph-name="Ebreve" unicode="&#x114;" horiz-adv-x="542" 
d="M145 0q-20 0 -32 12t-12 32v520q0 20 12 32t32 12h332q3 -5 6 -13.5t3 -18.5q0 -17 -8 -27t-23 -10h-273v-193h264q3 -5 6 -13.5t3 -18.5q0 -17 -8 -26.5t-23 -9.5h-242v-210h300q3 -5 6 -13t3 -19q0 -17 -8 -26.5t-23 -9.5h-315zM302 726q65 0 76 66q4 1 8 1.5t9 0.5
q16 0 25.5 -9t9.5 -29q0 -16 -8 -31.5t-24 -28t-40 -20.5t-56 -8q-33 0 -57 8t-40 20.5t-23.5 28.5t-7.5 31q0 38 35 38q9 0 17 -2q11 -66 76 -66z" />
    <glyph glyph-name="ebreve" unicode="&#x115;" horiz-adv-x="519" 
d="M132 184q27 -131 172 -131q42 0 76 14t54 30q24 -14 24 -38q0 -14 -12.5 -27t-34 -23t-50 -16t-61.5 -6q-116 0 -183.5 63t-67.5 184q0 57 16.5 101.5t46 75.5t70.5 47.5t89 16.5q45 0 83 -15t65.5 -42.5t43 -65t15.5 -82.5q0 -22 -10 -31.5t-28 -11.5zM270 410
q-61 0 -101 -42.5t-42 -121.5l275 38q-5 55 -38.5 90.5t-93.5 35.5zM271 599q65 0 76 66q4 1 8 1.5t9 0.5q16 0 25.5 -9t9.5 -29q0 -16 -8 -31.5t-24 -28t-40 -20.5t-56 -8q-33 0 -57 8t-40 20.5t-23.5 28.5t-7.5 31q0 38 35 38q9 0 17 -2q11 -66 76 -66z" />
    <glyph glyph-name="Edotaccent" unicode="&#x116;" horiz-adv-x="542" 
d="M145 0q-20 0 -32 12t-12 32v520q0 20 12 32t32 12h332q3 -5 6 -13.5t3 -18.5q0 -17 -8 -27t-23 -10h-273v-193h264q3 -5 6 -13.5t3 -18.5q0 -17 -8 -26.5t-23 -9.5h-242v-210h300q3 -5 6 -13t3 -19q0 -17 -8 -26.5t-23 -9.5h-315zM363 730q0 -22 -14 -35.5t-37 -13.5
t-36.5 13.5t-13.5 35.5q0 23 13.5 36.5t36.5 13.5t37 -13.5t14 -36.5z" />
    <glyph glyph-name="edotaccent" unicode="&#x117;" horiz-adv-x="519" 
d="M132 184q27 -131 172 -131q42 0 76 14t54 30q24 -14 24 -38q0 -14 -12.5 -27t-34 -23t-50 -16t-61.5 -6q-116 0 -183.5 63t-67.5 184q0 57 16.5 101.5t46 75.5t70.5 47.5t89 16.5q45 0 83 -15t65.5 -42.5t43 -65t15.5 -82.5q0 -22 -10 -31.5t-28 -11.5zM270 410
q-61 0 -101 -42.5t-42 -121.5l275 38q-5 55 -38.5 90.5t-93.5 35.5zM320 607q0 -22 -14 -35.5t-37 -13.5t-36.5 13.5t-13.5 35.5q0 23 13.5 36.5t36.5 13.5t37 -13.5t14 -36.5z" />
    <glyph glyph-name="Eogonek" unicode="&#x118;" horiz-adv-x="542" 
d="M145 0q-20 0 -32 12t-12 32v520q0 20 12 32t32 12h332q3 -5 6 -13.5t3 -18.5q0 -17 -8 -27t-23 -10h-273v-193h264q3 -5 6 -13.5t3 -18.5q0 -17 -8 -26.5t-23 -9.5h-242v-210h300q3 -5 6 -13t3 -19q0 -17 -8 -26.5t-23 -9.5h-1q-19 -14 -32 -30.5t-13 -42.5q0 -27 17 -40
t46 -13h15q6 -12 6 -23q0 -16 -11 -26t-38 -10q-22 0 -41.5 6.5t-34 19t-23 30t-8.5 40.5q0 32 14 53.5t31 35.5h-242v0z" />
    <glyph glyph-name="eogonek" unicode="&#x119;" horiz-adv-x="519" 
d="M132 184q27 -131 172 -131q42 0 76 14t54 30q24 -14 24 -38q0 -17 -15.5 -31t-41.5 -24q-21 -14 -36 -31.5t-15 -45.5q0 -27 17 -40t46 -13h15q6 -12 6 -23q0 -16 -11 -26t-38 -10q-22 0 -41.5 6.5t-34 19t-23 30t-8.5 40.5q0 26 9 44t22 32h-9q-116 0 -183.5 63
t-67.5 184q0 57 16.5 101.5t46 75.5t70.5 47.5t89 16.5q45 0 83 -15t65.5 -42.5t43 -65t15.5 -82.5q0 -22 -10 -31.5t-28 -11.5zM270 410q-61 0 -101 -42.5t-42 -121.5l275 38q-5 55 -38.5 90.5t-93.5 35.5z" />
    <glyph glyph-name="Ecaron" unicode="&#x11a;" horiz-adv-x="542" 
d="M145 0q-20 0 -32 12t-12 32v520q0 20 12 32t32 12h332q3 -5 6 -13.5t3 -18.5q0 -17 -8 -27t-23 -10h-273v-193h264q3 -5 6 -13.5t3 -18.5q0 -17 -8 -26.5t-23 -9.5h-242v-210h300q3 -5 6 -13t3 -19q0 -17 -8 -26.5t-23 -9.5h-315zM394 814q18 -2 31 -10.5t13 -22.5
q0 -12 -7.5 -21t-18.5 -20l-60 -60q-11 -11 -21.5 -15.5t-24.5 -4.5q-15 0 -26.5 6t-22.5 19l-83 88q0 19 9 29t24 10q11 0 21 -6t24 -22l54 -63z" />
    <glyph glyph-name="ecaron" unicode="&#x11b;" horiz-adv-x="519" 
d="M132 184q27 -131 172 -131q42 0 76 14t54 30q24 -14 24 -38q0 -14 -12.5 -27t-34 -23t-50 -16t-61.5 -6q-116 0 -183.5 63t-67.5 184q0 57 16.5 101.5t46 75.5t70.5 47.5t89 16.5q45 0 83 -15t65.5 -42.5t43 -65t15.5 -82.5q0 -22 -10 -31.5t-28 -11.5zM270 410
q-61 0 -101 -42.5t-42 -121.5l275 38q-5 55 -38.5 90.5t-93.5 35.5zM273 583l88 97q20 -2 31.5 -11t11.5 -23q0 -11 -7 -20t-18 -21l-63 -64q-10 -10 -20 -15t-24 -5t-25.5 6.5t-23.5 19.5l-85 93q0 15 9 26.5t24 11.5q13 0 21.5 -5.5t19.5 -18.5z" />
    <glyph glyph-name="Gcircumflex" unicode="&#x11c;" horiz-adv-x="639" 
d="M570 70q0 -18 -10.5 -30t-31.5 -23q-25 -12 -69 -21t-89 -9q-70 0 -128 19t-100 58t-65 98.5t-23 140.5q0 80 24 140t65.5 99.5t96.5 59t117 19.5q42 0 77.5 -7t60.5 -18.5t39 -25.5t14 -28t-8 -24t-19 -15q-27 18 -64 33.5t-95 15.5q-48 0 -89 -16t-71 -47t-47 -78
t-17 -108q0 -65 17.5 -111.5t49 -76.5t74 -44.5t92.5 -14.5q36 0 68 6t50 15v184h-151q-3 5 -6 13.5t-3 18.5q0 17 8 26.5t23 9.5h167q18 0 30.5 -11.5t12.5 -30.5v-217zM345 751q-17 -17 -40 -41.5t-52 -50.5q-17 2 -28 10.5t-11 22.5q0 11 7.5 20.5t18.5 20.5l59 59
q22 22 47 22q16 0 27 -6.5t23 -19.5l82 -93q0 -15 -9.5 -24.5t-24.5 -9.5q-11 0 -21 6t-24 22z" />
    <glyph glyph-name="gcircumflex" unicode="&#x11d;" horiz-adv-x="537" 
d="M384 48q-17 -14 -46.5 -24t-70.5 -10q-44 0 -83 12.5t-68.5 40t-47 71.5t-17.5 107q0 57 17 100t47.5 72t72.5 43.5t93 14.5q46 0 84.5 -11.5t64.5 -28.5q15 -10 24.5 -22.5t9.5 -30.5v-402q0 -50 -16.5 -84.5t-46 -56t-69.5 -31.5t-86 -10q-51 0 -86.5 10.5t-48.5 18.5
q-30 17 -30 43q0 14 6.5 23.5t16.5 14.5q21 -16 59 -29.5t83 -13.5q67 0 102.5 28.5t35.5 91.5v63zM276 80q40 0 65.5 12.5t42.5 28.5v260q-17 11 -42.5 19.5t-60.5 8.5q-68 0 -108.5 -41t-40.5 -122q0 -45 11 -76.5t30.5 -51.5t46 -29t56.5 -9zM277 618
q-23 -28 -45.5 -51.5t-42.5 -46.5q-18 2 -30 10.5t-12 22.5q0 11 6 19t16 19l61 66q13 11 23 17t24 6q16 0 26 -6t21 -18l84 -100q0 -14 -7.5 -24t-23.5 -10q-12 0 -19.5 5.5t-15.5 13.5z" />
    <glyph glyph-name="Gbreve" unicode="&#x11e;" horiz-adv-x="639" 
d="M570 70q0 -18 -10.5 -30t-31.5 -23q-25 -12 -69 -21t-89 -9q-70 0 -128 19t-100 58t-65 98.5t-23 140.5q0 80 24 140t65.5 99.5t96.5 59t117 19.5q42 0 77.5 -7t60.5 -18.5t39 -25.5t14 -28t-8 -24t-19 -15q-27 18 -64 33.5t-95 15.5q-48 0 -89 -16t-71 -47t-47 -78
t-17 -108q0 -65 17.5 -111.5t49 -76.5t74 -44.5t92.5 -14.5q36 0 68 6t50 15v184h-151q-3 5 -6 13.5t-3 18.5q0 17 8 26.5t23 9.5h167q18 0 30.5 -11.5t12.5 -30.5v-217zM340 726q65 0 76 66q4 1 8 1.5t9 0.5q16 0 25.5 -9t9.5 -29q0 -16 -8 -31.5t-24 -28t-40 -20.5t-56 -8
q-33 0 -57 8t-40 20.5t-23.5 28.5t-7.5 31q0 38 35 38q9 0 17 -2q11 -66 76 -66z" />
    <glyph glyph-name="gbreve" unicode="&#x11f;" horiz-adv-x="537" 
d="M384 48q-17 -14 -46.5 -24t-70.5 -10q-44 0 -83 12.5t-68.5 40t-47 71.5t-17.5 107q0 57 17 100t47.5 72t72.5 43.5t93 14.5q46 0 84.5 -11.5t64.5 -28.5q15 -10 24.5 -22.5t9.5 -30.5v-402q0 -50 -16.5 -84.5t-46 -56t-69.5 -31.5t-86 -10q-51 0 -86.5 10.5t-48.5 18.5
q-30 17 -30 43q0 14 6.5 23.5t16.5 14.5q21 -16 59 -29.5t83 -13.5q67 0 102.5 28.5t35.5 91.5v63zM276 80q40 0 65.5 12.5t42.5 28.5v260q-17 11 -42.5 19.5t-60.5 8.5q-68 0 -108.5 -41t-40.5 -122q0 -45 11 -76.5t30.5 -51.5t46 -29t56.5 -9zM275 599q65 0 76 66
q4 1 8 1.5t9 0.5q16 0 25.5 -9t9.5 -29q0 -16 -8 -31.5t-24 -28t-40 -20.5t-56 -8q-33 0 -57 8t-40 20.5t-23.5 28.5t-7.5 31q0 38 35 38q9 0 17 -2q11 -66 76 -66z" />
    <glyph glyph-name="Gdotaccent" unicode="&#x120;" horiz-adv-x="639" 
d="M570 70q0 -18 -10.5 -30t-31.5 -23q-25 -12 -69 -21t-89 -9q-70 0 -128 19t-100 58t-65 98.5t-23 140.5q0 80 24 140t65.5 99.5t96.5 59t117 19.5q42 0 77.5 -7t60.5 -18.5t39 -25.5t14 -28t-8 -24t-19 -15q-27 18 -64 33.5t-95 15.5q-48 0 -89 -16t-71 -47t-47 -78
t-17 -108q0 -65 17.5 -111.5t49 -76.5t74 -44.5t92.5 -14.5q36 0 68 6t50 15v184h-151q-3 5 -6 13.5t-3 18.5q0 17 8 26.5t23 9.5h167q18 0 30.5 -11.5t12.5 -30.5v-217zM406 730q0 -22 -14 -35.5t-37 -13.5t-36.5 13.5t-13.5 35.5q0 23 13.5 36.5t36.5 13.5t37 -13.5
t14 -36.5z" />
    <glyph glyph-name="gdotaccent" unicode="&#x121;" horiz-adv-x="537" 
d="M384 48q-17 -14 -46.5 -24t-70.5 -10q-44 0 -83 12.5t-68.5 40t-47 71.5t-17.5 107q0 57 17 100t47.5 72t72.5 43.5t93 14.5q46 0 84.5 -11.5t64.5 -28.5q15 -10 24.5 -22.5t9.5 -30.5v-402q0 -50 -16.5 -84.5t-46 -56t-69.5 -31.5t-86 -10q-51 0 -86.5 10.5t-48.5 18.5
q-30 17 -30 43q0 14 6.5 23.5t16.5 14.5q21 -16 59 -29.5t83 -13.5q67 0 102.5 28.5t35.5 91.5v63zM276 80q40 0 65.5 12.5t42.5 28.5v260q-17 11 -42.5 19.5t-60.5 8.5q-68 0 -108.5 -41t-40.5 -122q0 -45 11 -76.5t30.5 -51.5t46 -29t56.5 -9zM328 607q0 -22 -14 -35.5
t-37 -13.5t-36.5 13.5t-13.5 35.5q0 23 13.5 36.5t36.5 13.5t37 -13.5t14 -36.5z" />
    <glyph glyph-name="Gcommaaccent" unicode="&#x122;" horiz-adv-x="639" 
d="M570 70q0 -18 -10.5 -30t-31.5 -23q-25 -12 -69 -21t-89 -9q-70 0 -128 19t-100 58t-65 98.5t-23 140.5q0 80 24 140t65.5 99.5t96.5 59t117 19.5q42 0 77.5 -7t60.5 -18.5t39 -25.5t14 -28t-8 -24t-19 -15q-27 18 -64 33.5t-95 15.5q-48 0 -89 -16t-71 -47t-47 -78
t-17 -108q0 -65 17.5 -111.5t49 -76.5t74 -44.5t92.5 -14.5q36 0 68 6t50 15v184h-151q-3 5 -6 13.5t-3 18.5q0 17 8 26.5t23 9.5h167q18 0 30.5 -11.5t12.5 -30.5v-217zM344 -201q-15 -18 -38 -18q-21 0 -31 13q14 35 26 71.5t15 65.5q17 7 36 7q16 0 26.5 -7.5t10.5 -22.5
q0 -12 -4 -27.5t-11 -30.5t-15 -28.5t-15 -22.5z" />
    <glyph glyph-name="gcommaaccent" unicode="&#x123;" horiz-adv-x="537" 
d="M278 664q16 20 38 20q9 0 18.5 -4t14.5 -9q-16 -34 -27 -69.5t-15 -67.5q-8 -3 -16.5 -5t-17.5 -2q-17 0 -27.5 6.5t-10.5 18.5q0 13 4 29t10 31.5t13.5 29t15.5 22.5zM384 48q-17 -14 -46.5 -24t-70.5 -10q-44 0 -83 12.5t-68.5 40t-47 71.5t-17.5 107q0 57 17 100
t47.5 72t72.5 43.5t93 14.5q46 0 84.5 -11.5t64.5 -28.5q15 -10 24.5 -22.5t9.5 -30.5v-402q0 -50 -16.5 -84.5t-46 -56t-69.5 -31.5t-86 -10q-51 0 -86.5 10.5t-48.5 18.5q-30 17 -30 43q0 14 6.5 23.5t16.5 14.5q21 -16 59 -29.5t83 -13.5q67 0 102.5 28.5t35.5 91.5v63z
M276 80q40 0 65.5 12.5t42.5 28.5v260q-17 11 -42.5 19.5t-60.5 8.5q-68 0 -108.5 -41t-40.5 -122q0 -45 11 -76.5t30.5 -51.5t46 -29t56.5 -9z" />
    <glyph glyph-name="Hcircumflex" unicode="&#x124;" horiz-adv-x="645" 
d="M566 2q-6 -2 -16 -4.5t-22 -2.5q-44 0 -44 37v242h-312v-272q-6 -2 -16 -4.5t-22 -2.5q-44 0 -44 37v574q5 2 15.5 4.5t22.5 2.5q44 0 44 -37v-234h312v264q5 2 15.5 4.5t22.5 2.5q44 0 44 -37v-574zM326 751q-17 -17 -40 -41.5t-52 -50.5q-17 2 -28 10.5t-11 22.5
q0 11 7.5 20.5t18.5 20.5l59 59q22 22 47 22q16 0 27 -6.5t23 -19.5l82 -93q0 -15 -9.5 -24.5t-24.5 -9.5q-11 0 -21 6t-24 22z" />
    <glyph glyph-name="hcircumflex" unicode="&#x125;" horiz-adv-x="557" 
d="M136 2q-5 -2 -15 -4.5t-22 -2.5q-43 0 -43 36v617q5 2 15.5 4.5t22.5 2.5q42 0 42 -36v-180q24 14 56.5 25t73.5 11q42 0 76.5 -11t59.5 -33.5t39 -57t14 -80.5v-291q-5 -2 -15.5 -4.5t-21.5 -2.5q-43 0 -43 36v260q0 60 -33 89t-87 29q-35 0 -65.5 -12.5t-53.5 -30.5
v-364zM94 756q-17 -17 -40 -41.5t-52 -50.5q-17 2 -28 10.5t-11 22.5q0 11 7.5 20.5t18.5 20.5l59 59q22 22 47 22q16 0 27 -6.5t23 -19.5l82 -93q0 -15 -9.5 -24.5t-24.5 -9.5q-11 0 -21 6t-24 22z" />
    <glyph glyph-name="Hbar" unicode="&#x126;" horiz-adv-x="654" 
d="M569 2q-6 -2 -16 -4.5t-22 -2.5q-44 0 -44 37v242h-312v-272q-6 -2 -16 -4.5t-22 -2.5q-44 0 -44 37v403h-60q-3 5 -6 12.5t-3 17.5q0 32 29 32h40v109q5 2 15.5 4.5t22.5 2.5q44 0 44 -37v-79h312v109q5 2 15.5 4.5t22.5 2.5q44 0 44 -37v-79h53l5 -12.5t3 -17.5
q0 -18 -7.5 -25t-21.5 -7h-32v-433zM487 342v93h-312v-93h312z" />
    <glyph glyph-name="hbar" unicode="&#x127;" horiz-adv-x="558" 
d="M77 587v62q5 2 15.5 4.5t22.5 2.5q42 0 42 -36v-33h105q4 -5 6.5 -12t2.5 -17q0 -31 -28 -31h-86v-88q24 14 56.5 25t73.5 11q42 0 76.5 -11t59.5 -33.5t39 -57t14 -80.5v-291q-5 -2 -15.5 -4.5t-21.5 -2.5q-43 0 -43 36v260q0 60 -33 89t-87 29q-35 0 -65.5 -12.5
t-53.5 -30.5v-364q-5 -2 -15 -4.5t-22 -2.5q-43 0 -43 36v496h-64q-2 5 -5 12t-3 17q0 31 27 31h45z" />
    <glyph glyph-name="Itilde" unicode="&#x128;" horiz-adv-x="262" 
d="M171 2q-5 -2 -15 -4.5t-22 -2.5q-44 0 -44 37v574q5 2 15.5 4.5t22.5 2.5q43 0 43 -37v-574zM59 786q21 0 39 -5.5t33.5 -11.5t29.5 -11.5t27 -5.5q18 0 26.5 10.5t12.5 27.5h6q18 0 32 -8.5t14 -29.5q0 -29 -20 -45.5t-53 -16.5q-21 0 -40 5.5t-35.5 12t-30.5 12
t-26 5.5q-18 0 -26 -11t-12 -28h-6q-18 0 -32 9t-14 29q0 29 23 45.5t52 16.5z" />
    <glyph glyph-name="itilde" unicode="&#x129;" horiz-adv-x="241" 
d="M125 -8q-45 0 -45 37v430q5 2 15 4t21 2q44 0 44 -37v-430q-5 -2 -14.5 -4t-20.5 -2zM51 651q21 0 39 -5.5t33.5 -11.5t29.5 -11.5t27 -5.5q18 0 26.5 10.5t12.5 27.5h6q18 0 32 -8.5t14 -29.5q0 -29 -20 -45.5t-53 -16.5q-21 0 -40 5.5t-35.5 12t-30.5 12t-26 5.5
q-18 0 -26 -11t-12 -28h-6q-18 0 -32 9t-14 29q0 29 23 45.5t52 16.5z" />
    <glyph glyph-name="Imacron" unicode="&#x12a;" horiz-adv-x="262" 
d="M171 2q-5 -2 -15 -4.5t-22 -2.5q-44 0 -44 37v574q5 2 15.5 4.5t22.5 2.5q43 0 43 -37v-574zM2 690q-4 6 -7.5 14t-3.5 18q0 17 9 25t23 8h228q4 -6 7 -14.5t3 -17.5q0 -33 -32 -33h-227z" />
    <glyph glyph-name="imacron" unicode="&#x12b;" horiz-adv-x="241" 
d="M125 -8q-45 0 -45 37v430q5 2 15 4t21 2q44 0 44 -37v-430q-5 -2 -14.5 -4t-20.5 -2zM-8 570q-4 6 -7.5 14t-3.5 18q0 17 9 25t23 8h228q4 -6 7 -14.5t3 -17.5q0 -33 -32 -33h-227z" />
    <glyph glyph-name="Ibreve" unicode="&#x12c;" horiz-adv-x="262" 
d="M171 2q-5 -2 -15 -4.5t-22 -2.5q-44 0 -44 37v574q5 2 15.5 4.5t22.5 2.5q43 0 43 -37v-574zM130 725q65 0 76 66q4 1 8 1.5t9 0.5q16 0 25.5 -9t9.5 -29q0 -16 -8 -31.5t-24 -28t-40 -20.5t-56 -8q-33 0 -57 8t-40 20.5t-23.5 28.5t-7.5 31q0 38 35 38q9 0 17 -2
q11 -66 76 -66z" />
    <glyph glyph-name="ibreve" unicode="&#x12d;" horiz-adv-x="241" 
d="M125 -5q-45 0 -45 36v430q5 2 15 4t21 2q44 0 44 -37v-429q-5 -2 -14.5 -4t-20.5 -2zM120 599q65 0 76 66q4 1 8 1.5t9 0.5q16 0 25.5 -9t9.5 -29q0 -16 -8 -31.5t-24 -28t-40 -20.5t-56 -8q-33 0 -57 8t-40 20.5t-23.5 28.5t-7.5 31q0 38 35 38q9 0 17 -2q11 -66 76 -66
z" />
    <glyph glyph-name="Iogonek" unicode="&#x12e;" horiz-adv-x="262" 
d="M171 2q-16 -12 -25.5 -28.5t-9.5 -39.5q0 -30 17.5 -46t46.5 -16h24q6 -11 6 -25q0 -17 -12 -27.5t-42 -10.5q-51 0 -82 30.5t-31 76.5q0 53 41 85q-14 8 -14 31v574q5 2 15.5 4.5t22.5 2.5q43 0 43 -37v-574v0z" />
    <glyph glyph-name="iogonek" unicode="&#x12f;" horiz-adv-x="241" 
d="M160 2q-20 -14 -34 -31.5t-14 -43.5q0 -27 17 -40t46 -13h15q6 -12 6 -23q0 -16 -11 -26t-38 -10q-22 0 -41.5 6.5t-34 19t-23 30t-8.5 40.5q0 35 15.5 57t34.5 36q-10 9 -10 27v429q5 2 15.5 4.5t22.5 2.5q42 0 42 -37v-428zM68 608q0 21 14.5 35.5t37.5 14.5t37 -14.5
t14 -35.5t-14 -35.5t-37 -14.5t-37.5 14.5t-14.5 35.5z" />
    <glyph glyph-name="Idotaccent" unicode="&#x130;" horiz-adv-x="262" 
d="M171 2q-5 -2 -15 -4.5t-22 -2.5q-44 0 -44 37v574q5 2 15.5 4.5t22.5 2.5q43 0 43 -37v-574zM180 730q0 -22 -14 -35.5t-37 -13.5t-36.5 13.5t-13.5 35.5q0 23 13.5 36.5t36.5 13.5t37 -13.5t14 -36.5z" />
    <glyph glyph-name="dotlessi" unicode="&#x131;" horiz-adv-x="241" 
d="M125 -5q-45 0 -45 36v430q5 2 15 4t21 2q44 0 44 -37v-429q-5 -2 -14.5 -4t-20.5 -2z" />
    <glyph glyph-name="IJ" unicode="&#x132;" horiz-adv-x="647" 
d="M171 2q-5 -2 -15 -4.5t-22 -2.5q-44 0 -44 37v574q5 2 15.5 4.5t22.5 2.5q43 0 43 -37v-574zM477 606q5 2 15.5 4.5t21.5 2.5q44 0 44 -37v-428q0 -45 -13 -75.5t-35.5 -49t-52 -26.5t-61.5 -8q-57 0 -83 13.5t-26 35.5q0 14 6 24t11 15q15 -7 36 -13t44 -6q45 0 69 21.5
t24 72.5v454z" />
    <glyph glyph-name="ij" unicode="&#x133;" horiz-adv-x="484" 
d="M160 2q-5 -2 -15 -4.5t-22 -2.5q-43 0 -43 36v429q5 2 15.5 4.5t22.5 2.5q42 0 42 -37v-428zM68 608q0 21 14.5 35.5t37.5 14.5t37 -14.5t14 -35.5t-14 -35.5t-37 -14.5t-37.5 14.5t-14.5 35.5zM247 -146q18 8 32.5 16.5t24 21t15 31t5.5 47.5v490q5 2 15.5 4.5t22.5 2.5
q42 0 42 -37v-475q0 -44 -12 -72.5t-29.5 -46t-36.5 -24.5t-33 -7q-25 0 -34.5 14.5t-11.5 34.5zM312 608q0 21 14.5 35.5t37.5 14.5t37 -14.5t14 -35.5t-14 -35.5t-37 -14.5t-37.5 14.5t-14.5 35.5z" />
    <glyph glyph-name="Jcircumflex" unicode="&#x134;" horiz-adv-x="372" 
d="M206 606q5 2 15.5 4.5t21.5 2.5q44 0 44 -37v-428q0 -45 -13 -75.5t-35.5 -49t-52 -26.5t-61.5 -8q-57 0 -83 13.5t-26 35.5q0 14 6 24t11 15q15 -7 36 -13t44 -6q45 0 69 21.5t24 72.5v454zM241 751q-17 -17 -40 -41.5t-52 -50.5q-17 2 -28 10.5t-11 22.5q0 11 7.5 20.5
t18.5 20.5l59 59q22 22 47 22q16 0 27 -6.5t23 -19.5l82 -93q0 -15 -9.5 -24.5t-24.5 -9.5q-11 0 -21 6t-24 22z" />
    <glyph glyph-name="jcircumflex" unicode="&#x135;" horiz-adv-x="238" 
d="M160 -53q0 -70 -29 -103q-16 -20 -34 -27.5t-35 -7.5q-22 0 -35.5 12t-13.5 38l20 9q26 13 36 31.5t10 56.5v503q5 2 15 4t21 2q45 0 45 -37v-481zM116 618q-23 -28 -45.5 -51.5t-42.5 -46.5q-18 2 -30 10.5t-12 22.5q0 11 6 19t16 19l61 66q13 11 23 17t24 6q16 0 26 -6
t21 -18l84 -100q0 -14 -7.5 -24t-23.5 -10q-12 0 -19.5 5.5t-15.5 13.5z" />
    <glyph glyph-name="Kcommaaccent" unicode="&#x136;" horiz-adv-x="557" 
d="M162 290v-289q-6 -2 -16 -4.5t-22 -2.5q-44 0 -44 37v575q5 2 15.5 4.5t22.5 2.5q44 0 44 -37v-249l275 285q26 -1 39 -13t13 -28q0 -13 -7 -24t-20 -24l-216 -212q91 -89 157.5 -158.5t114.5 -112.5q-2 -22 -13.5 -34.5t-29.5 -12.5q-17 0 -30.5 9.5t-27.5 23.5z
M280 -201q-15 -18 -38 -18q-21 0 -31 13q14 35 26 71.5t15 65.5q17 7 36 7q16 0 26.5 -7.5t10.5 -22.5q0 -12 -4 -27.5t-11 -30.5t-15 -28.5t-15 -22.5z" />
    <glyph glyph-name="kcommaaccent" unicode="&#x137;" horiz-adv-x="487" 
d="M157 2q-5 -2 -15 -4.5t-22 -2.5q-43 0 -43 36v617q5 2 15.5 4.5t22.5 2.5q42 0 42 -36v-360l219 212q24 -1 37.5 -11.5t13.5 -27.5q0 -14 -9 -24.5t-24 -24.5l-161 -141l223 -200q-2 -22 -13.5 -35t-30.5 -13q-15 0 -27.5 7.5t-25.5 21.5l-202 203v-224zM262 -201
q-15 -18 -38 -18q-21 0 -31 13q14 35 26 71.5t15 65.5q17 7 36 7q16 0 26.5 -7.5t10.5 -22.5q0 -12 -4 -27.5t-11 -30.5t-15 -28.5t-15 -22.5z" />
    <glyph glyph-name="kgreenlandic" unicode="&#x138;" horiz-adv-x="487" 
d="M385 471q25 -1 38.5 -12t13.5 -28q0 -13 -10 -24t-25 -24l-168 -144l222 -197q-2 -22 -13.5 -35t-30.5 -13q-15 0 -27 8t-26 21l-202 201v-222q-5 -2 -15 -4.5t-22 -2.5q-43 0 -43 36v430q5 2 15 4t21 2q44 0 44 -37v-173z" />
    <glyph glyph-name="Lacute" unicode="&#x139;" horiz-adv-x="501" 
d="M133 0q-19 0 -31.5 12t-12.5 32v562q5 2 15.5 4.5t22.5 2.5q44 0 44 -37v-506h287q11 -11 11 -33q0 -17 -9 -27t-24 -10h-303zM210 820q22 -1 33.5 -11.5t11.5 -24.5t-5.5 -23t-19.5 -21l-85 -76q-19 2 -29.5 10t-10.5 20q0 10 4 17t10 13z" />
    <glyph glyph-name="lacute" unicode="&#x13a;" horiz-adv-x="246" 
d="M197 851q22 -1 33.5 -11.5t11.5 -24.5t-5.5 -23t-19.5 -21l-85 -76q-19 2 -29.5 10t-10.5 20q0 10 4 17t10 13zM163 2q-5 -2 -15 -4.5t-22 -2.5q-43 0 -43 36v617q5 2 15.5 4.5t21.5 2.5q43 0 43 -36v-617z" />
    <glyph glyph-name="Lcommaaccent" unicode="&#x13b;" horiz-adv-x="501" 
d="M133 0q-19 0 -31.5 12t-12.5 32v562q5 2 15.5 4.5t22.5 2.5q44 0 44 -37v-506h287q11 -11 11 -33q0 -17 -9 -27t-24 -10h-303zM271 -201q-15 -18 -38 -18q-21 0 -31 13q14 35 26 71.5t15 65.5q17 7 36 7q16 0 26.5 -7.5t10.5 -22.5q0 -12 -4 -27.5t-11 -30.5t-15 -28.5
t-15 -22.5z" />
    <glyph glyph-name="lcommaaccent" unicode="&#x13c;" horiz-adv-x="246" 
d="M163 2q-5 -2 -15 -4.5t-22 -2.5q-43 0 -43 36v617q5 2 15.5 4.5t21.5 2.5q43 0 43 -36v-617zM115 -201q-15 -18 -38 -18q-21 0 -31 13q14 35 26 71.5t15 65.5q17 7 36 7q16 0 26.5 -7.5t10.5 -22.5q0 -12 -4 -27.5t-11 -30.5t-15 -28.5t-15 -22.5z" />
    <glyph glyph-name="Lcaron" unicode="&#x13d;" horiz-adv-x="501" 
d="M133 0q-19 0 -31.5 12t-12.5 32v562q5 2 15.5 4.5t22.5 2.5q44 0 44 -37v-506h287q11 -11 11 -33q0 -17 -9 -27t-24 -10h-303zM347 474q-15 -18 -38 -18q-21 0 -31 13q14 35 26 71.5t15 65.5q17 7 36 7q16 0 26.5 -7.5t10.5 -22.5q0 -12 -4 -27.5t-11 -30.5t-15 -28.5
t-15 -22.5z" />
    <glyph glyph-name="lcaron" unicode="&#x13e;" horiz-adv-x="317" 
d="M163 2q-5 -2 -15 -4.5t-22 -2.5q-43 0 -43 36v617q5 2 15.5 4.5t21.5 2.5q43 0 43 -36v-617zM282 516q-15 -18 -38 -18q-21 0 -31 13q14 35 26 71.5t15 65.5q17 7 36 7q16 0 26.5 -7.5t10.5 -22.5q0 -12 -4 -27.5t-11 -30.5t-15 -28.5t-15 -22.5z" />
    <glyph glyph-name="Ldot" unicode="&#x13f;" horiz-adv-x="501" 
d="M133 0q-19 0 -31.5 12t-12.5 32v562q5 2 15.5 4.5t22.5 2.5q44 0 44 -37v-506h287q11 -11 11 -33q0 -17 -9 -27t-24 -10h-303zM317 320q0 24 14.5 40t40.5 16t40 -16t14 -40q0 -23 -14 -39t-40 -16t-40.5 16t-14.5 39z" />
    <glyph glyph-name="ldot" unicode="&#x140;" horiz-adv-x="316" 
d="M163 2q-5 -2 -15 -4.5t-22 -2.5q-43 0 -43 36v617q5 2 15.5 4.5t21.5 2.5q43 0 43 -36v-617zM227 302q0 24 14.5 40t40.5 16t40 -16t14 -40q0 -23 -14 -39t-40 -16t-40.5 16t-14.5 39z" />
    <glyph glyph-name="Lslash" unicode="&#x141;" horiz-adv-x="521" 
d="M163 0q-19 0 -31.5 12t-12.5 32v212l-82 -33q-9 7 -18 18t-9 26q0 20 21 29l88 35v275q5 2 15.5 4.5t22.5 2.5q44 0 44 -37v-213l149 60q9 -6 18 -17.5t9 -25.5q0 -21 -21 -29l-155 -62v-219h287q11 -11 11 -33q0 -17 -9 -27t-24 -10h-303v0z" />
    <glyph glyph-name="lslash" unicode="&#x142;" horiz-adv-x="325" 
d="M202 2q-5 -2 -15 -4.5t-22 -2.5q-43 0 -43 36v242l-85 -34q-9 6 -18 17.5t-9 26.5q0 20 21 28l91 37v300q5 2 15.5 4.5t21.5 2.5q43 0 43 -36v-239l87 36q9 -6 17.5 -17.5t8.5 -26.5q0 -20 -20 -28l-93 -38v-304v0z" />
    <glyph glyph-name="Nacute" unicode="&#x143;" horiz-adv-x="651" 
d="M131 -5q-44 0 -44 36v565q18 18 54 18q24 0 41 -9.5t31 -34.5l191 -320q12 -21 25 -44.5t25 -47t22.5 -44t17.5 -34.5l4 1q-8 81 -9.5 163t-1.5 160v202q6 2 16 4.5t22 2.5q44 0 44 -36v-566q-9 -8 -23 -12.5t-31 -4.5q-24 0 -41 9.5t-31 34.5l-190 320q-12 20 -25.5 44
t-26 47t-23 44l-17.5 35l-4 -1q5 -48 8 -109.5t3 -116.5v-299q-5 -2 -15.5 -4.5t-21.5 -2.5zM412 820q22 -1 33.5 -11.5t11.5 -24.5t-5.5 -23t-19.5 -21l-85 -76q-19 2 -29.5 10t-10.5 20q0 10 4 17t10 13z" />
    <glyph glyph-name="nacute" unicode="&#x144;" horiz-adv-x="550" 
d="M395 301q0 56 -31.5 82t-84.5 26q-40 0 -71 -10t-53 -23v-374q-5 -2 -15 -4.5t-22 -2.5q-43 0 -43 36v341q0 21 8.5 34.5t29.5 26.5q26 16 69 29t97 13q91 0 143.5 -41t52.5 -129v-303q-5 -2 -15.5 -4.5t-21.5 -2.5q-43 0 -43 36v270zM359 687q22 -1 35.5 -12.5
t13.5 -25.5t-6 -22.5t-20 -21.5l-91 -89q-20 0 -32 10.5t-12 23.5q0 8 5 15t10 13z" />
    <glyph glyph-name="Ncommaaccent" unicode="&#x145;" horiz-adv-x="651" 
d="M131 -5q-44 0 -44 36v565q18 18 54 18q24 0 41 -9.5t31 -34.5l191 -320q12 -21 25 -44.5t25 -47t22.5 -44t17.5 -34.5l4 1q-8 81 -9.5 163t-1.5 160v202q6 2 16 4.5t22 2.5q44 0 44 -36v-566q-9 -8 -23 -12.5t-31 -4.5q-24 0 -41 9.5t-31 34.5l-190 320q-12 20 -25.5 44
t-26 47t-23 44l-17.5 35l-4 -1q5 -48 8 -109.5t3 -116.5v-299q-5 -2 -15.5 -4.5t-21.5 -2.5zM334 -201q-15 -18 -38 -18q-21 0 -31 13q14 35 26 71.5t15 65.5q17 7 36 7q16 0 26.5 -7.5t10.5 -22.5q0 -12 -4 -27.5t-11 -30.5t-15 -28.5t-15 -22.5z" />
    <glyph glyph-name="ncommaaccent" unicode="&#x146;" horiz-adv-x="550" 
d="M395 301q0 56 -31.5 82t-84.5 26q-40 0 -71 -10t-53 -23v-374q-5 -2 -15 -4.5t-22 -2.5q-43 0 -43 36v341q0 21 8.5 34.5t29.5 26.5q26 16 69 29t97 13q91 0 143.5 -41t52.5 -129v-303q-5 -2 -15.5 -4.5t-21.5 -2.5q-43 0 -43 36v270zM272 -201q-15 -18 -38 -18
q-21 0 -31 13q14 35 26 71.5t15 65.5q17 7 36 7q16 0 26.5 -7.5t10.5 -22.5q0 -12 -4 -27.5t-11 -30.5t-15 -28.5t-15 -22.5z" />
    <glyph glyph-name="Ncaron" unicode="&#x147;" horiz-adv-x="651" 
d="M131 -5q-44 0 -44 36v565q18 18 54 18q24 0 41 -9.5t31 -34.5l191 -320q12 -21 25 -44.5t25 -47t22.5 -44t17.5 -34.5l4 1q-8 81 -9.5 163t-1.5 160v202q6 2 16 4.5t22 2.5q44 0 44 -36v-566q-9 -8 -23 -12.5t-31 -4.5q-24 0 -41 9.5t-31 34.5l-190 320q-12 20 -25.5 44
t-26 47t-23 44l-17.5 35l-4 -1q5 -48 8 -109.5t3 -116.5v-299q-5 -2 -15.5 -4.5t-21.5 -2.5zM423 814q18 -2 31 -10.5t13 -22.5q0 -12 -7.5 -21t-18.5 -20l-60 -60q-11 -11 -21.5 -15.5t-24.5 -4.5q-15 0 -26.5 6t-22.5 19l-83 88q0 19 9 29t24 10q11 0 21 -6t24 -22l54 -63
z" />
    <glyph glyph-name="ncaron" unicode="&#x148;" horiz-adv-x="550" 
d="M395 301q0 56 -31.5 82t-84.5 26q-40 0 -71 -10t-53 -23v-374q-5 -2 -15 -4.5t-22 -2.5q-43 0 -43 36v341q0 21 8.5 34.5t29.5 26.5q26 16 69 29t97 13q91 0 143.5 -41t52.5 -129v-303q-5 -2 -15.5 -4.5t-21.5 -2.5q-43 0 -43 36v270zM269 583l88 97q20 -2 31.5 -11
t11.5 -23q0 -11 -7 -20t-18 -21l-63 -64q-10 -10 -20 -15t-24 -5t-25.5 6.5t-23.5 19.5l-85 93q0 15 9 26.5t24 11.5q13 0 21.5 -5.5t19.5 -18.5z" />
    <glyph glyph-name="napostrophe" unicode="&#x149;" horiz-adv-x="627" 
d="M472 301q0 56 -31.5 82t-84.5 26q-40 0 -71 -10t-53 -23v-374q-5 -2 -15 -4.5t-22 -2.5q-43 0 -43 36v341q0 21 8.5 34.5t29.5 26.5q26 16 69 29t97 13q91 0 143.5 -41t52.5 -129v-303q-5 -2 -15.5 -4.5t-21.5 -2.5q-43 0 -43 36v270zM79 437q-7 -14 -15 -20.5t-22 -6.5
q-9 0 -17.5 3t-14.5 8q3 19 7.5 43.5t8 51.5t6.5 53.5t5 49.5q18 6 38 6q17 0 27.5 -9.5t10.5 -29.5q0 -15 -3.5 -36t-9 -42.5t-11.5 -40.5t-10 -30z" />
    <glyph glyph-name="Eng" unicode="&#x14a;" horiz-adv-x="660" 
d="M133 -5q-44 0 -44 36v565q18 18 54 18q24 0 41 -9.5t31 -34.5l191 -320q12 -21 25 -44.5t25 -47t22.5 -44t17.5 -34.5l4 1q-8 81 -9.5 163t-1.5 160v202q6 2 16 4.5t22 2.5q44 0 44 -36v-622q0 -44 -12 -72.5t-29.5 -46t-36.5 -24.5t-33 -7q-25 0 -34.5 14.5t-11.5 34.5
q18 8 32.5 16.5t24 21t15 31t5.5 47.5v27q-27 7 -46 41l-190 320q-12 20 -25.5 44t-26 47t-23 44l-17.5 35l-4 -1q5 -48 8 -109.5t3 -116.5v-299q-5 -2 -15.5 -4.5t-21.5 -2.5z" />
    <glyph glyph-name="eng" unicode="&#x14b;" horiz-adv-x="550" 
d="M318 -146q18 8 32.5 16.5t24 21t15 31t5.5 47.5v331q0 56 -31.5 82t-84.5 26q-40 0 -71 -10t-53 -23v-374q-5 -2 -15 -4.5t-22 -2.5q-43 0 -43 36v341q0 21 8.5 34.5t29.5 26.5q26 16 69 29t97 13q91 0 143.5 -41t52.5 -129v-350q0 -44 -12 -72.5t-29.5 -46t-36.5 -24.5
t-33 -7q-25 0 -34.5 14.5t-11.5 34.5z" />
    <glyph glyph-name="Omacron" unicode="&#x14c;" horiz-adv-x="689" 
d="M634 304q0 -78 -22 -137.5t-61 -99t-92 -60t-115 -20.5t-115 20.5t-92 60t-61 99t-22 137.5t22.5 137t61.5 99t92 60.5t114 20.5t114 -20.5t92 -60.5t61.5 -99t22.5 -137zM551 304q0 120 -56.5 184t-150.5 64q-47 0 -85 -16.5t-65 -48t-41.5 -77.5t-14.5 -106
q0 -120 56 -184t150 -64q95 0 151 64t56 184zM215 690q-4 6 -7.5 14t-3.5 18q0 17 9 25t23 8h228q4 -6 7 -14.5t3 -17.5q0 -33 -32 -33h-227z" />
    <glyph glyph-name="omacron" unicode="&#x14d;" horiz-adv-x="553" 
d="M504 231q0 -56 -16 -101t-45.5 -77t-71.5 -49t-94 -17t-94 17t-72 49t-46 77t-16 101t16.5 101t46.5 77t72 49t93 17t93 -17t71.5 -49t46 -77t16.5 -101zM277 409q-68 0 -107 -47t-39 -131q0 -85 38.5 -131.5t107.5 -46.5t107 47t38 131t-38.5 131t-106.5 47zM154 570
q-4 6 -7.5 14t-3.5 18q0 17 9 25t23 8h228q4 -6 7 -14.5t3 -17.5q0 -33 -32 -33h-227z" />
    <glyph glyph-name="Obreve" unicode="&#x14e;" horiz-adv-x="689" 
d="M634 304q0 -78 -22 -137.5t-61 -99t-92 -60t-115 -20.5t-115 20.5t-92 60t-61 99t-22 137.5t22.5 137t61.5 99t92 60.5t114 20.5t114 -20.5t92 -60.5t61.5 -99t22.5 -137zM551 304q0 120 -56.5 184t-150.5 64q-47 0 -85 -16.5t-65 -48t-41.5 -77.5t-14.5 -106
q0 -120 56 -184t150 -64q95 0 151 64t56 184zM344 725q65 0 76 66q4 1 8 1.5t9 0.5q16 0 25.5 -9t9.5 -29q0 -16 -8 -31.5t-24 -28t-40 -20.5t-56 -8q-33 0 -57 8t-40 20.5t-23.5 28.5t-7.5 31q0 38 35 38q9 0 17 -2q11 -66 76 -66z" />
    <glyph glyph-name="obreve" unicode="&#x14f;" horiz-adv-x="553" 
d="M504 231q0 -56 -16 -101t-45.5 -77t-71.5 -49t-94 -17t-94 17t-72 49t-46 77t-16 101t16.5 101t46.5 77t72 49t93 17t93 -17t71.5 -49t46 -77t16.5 -101zM277 409q-68 0 -107 -47t-39 -131q0 -85 38.5 -131.5t107.5 -46.5t107 47t38 131t-38.5 131t-106.5 47zM276 599
q65 0 76 66q4 1 8 1.5t9 0.5q16 0 25.5 -9t9.5 -29q0 -16 -8 -31.5t-24 -28t-40 -20.5t-56 -8q-33 0 -57 8t-40 20.5t-23.5 28.5t-7.5 31q0 38 35 38q9 0 17 -2q11 -66 76 -66z" />
    <glyph glyph-name="Ohungarumlaut" unicode="&#x150;" horiz-adv-x="689" 
d="M634 304q0 -78 -22 -137.5t-61 -99t-92 -60t-115 -20.5t-115 20.5t-92 60t-61 99t-22 137.5t22.5 137t61.5 99t92 60.5t114 20.5t114 -20.5t92 -60.5t61.5 -99t22.5 -137zM551 304q0 120 -56.5 184t-150.5 64q-47 0 -85 -16.5t-65 -48t-41.5 -77.5t-14.5 -106
q0 -120 56 -184t150 -64q95 0 151 64t56 184zM305 818q22 -1 35 -11t13 -24q0 -13 -6.5 -23t-18.5 -24l-60 -72q-20 0 -31.5 9.5t-11.5 22.5q0 9 3.5 16t8.5 14zM474 818q22 -1 35 -11t13 -24t-7 -23.5t-18 -23.5l-60 -72q-20 0 -31.5 9.5t-11.5 22.5q0 9 3.5 16t8.5 14z
" />
    <glyph glyph-name="ohungarumlaut" unicode="&#x151;" horiz-adv-x="553" 
d="M504 231q0 -56 -16 -101t-45.5 -77t-71.5 -49t-94 -17t-94 17t-72 49t-46 77t-16 101t16.5 101t46.5 77t72 49t93 17t93 -17t71.5 -49t46 -77t16.5 -101zM277 409q-68 0 -107 -47t-39 -131q0 -85 38.5 -131.5t107.5 -46.5t107 47t38 131t-38.5 131t-106.5 47zM249 687
q22 -1 35 -11t13 -24t-7 -23.5t-18 -23.5l-71 -89q-20 0 -32 9.5t-12 22.5q0 9 4 16t9 14zM417 687q22 -1 35 -11t13 -24t-7 -23.5t-18 -23.5l-71 -89q-20 0 -31.5 9.5t-11.5 22.5q0 9 3.5 16t8.5 14z" />
    <glyph glyph-name="OE" unicode="&#x152;" horiz-adv-x="953" 
d="M556 0q-21 0 -32.5 12t-11.5 32l-1 16q-33 -38 -79 -55.5t-100 -17.5q-59 0 -110 20t-88.5 59.5t-59 99t-21.5 138.5q0 78 22 137t60 99t89 60.5t109 20.5q51 0 97 -16t81 -55l1 14q0 20 11.5 32t32.5 12h331q3 -5 6 -13.5t3 -18.5q0 -17 -8 -27t-23 -10h-272v-193h263
q3 -5 6.5 -13.5t3.5 -18.5q0 -17 -8.5 -26.5t-22.5 -9.5h-242v-210h299q3 -5 6 -13t3 -19q0 -17 -8 -26.5t-23 -9.5h-314zM511 446q-26 53 -72 79.5t-105 26.5q-44 0 -80 -16.5t-62 -48t-40.5 -77.5t-14.5 -106q0 -120 54 -184t143 -64q127 0 177 102v288z" />
    <glyph glyph-name="oe" unicode="&#x153;" horiz-adv-x="887" 
d="M274 475q63 0 110.5 -26t75.5 -76q27 50 73.5 76t106.5 26q45 0 83 -15t65.5 -42.5t43 -65t15.5 -82.5q0 -22 -10.5 -31.5t-28.5 -11.5l-308 -43q13 -65 56.5 -98t115.5 -33q42 0 76 14t54 30q11 -7 18 -16.5t7 -21.5q0 -14 -12.5 -27t-34.5 -23t-50.5 -16t-61.5 -6
q-72 0 -125 25t-83 78q-27 -50 -75 -76.5t-111 -26.5q-52 0 -93.5 17t-71 49t-45 77t-15.5 101t16 101t45.5 77t71 49t92.5 17zM277 409q-68 0 -107 -47t-39 -131q0 -85 38.5 -131.5t107.5 -46.5t107 47t38 131t-38.5 131t-106.5 47zM639 410q-62 0 -102 -42.5t-42 -120.5
l276 37q-5 55 -38.5 90.5t-93.5 35.5z" />
    <glyph glyph-name="Racute" unicode="&#x154;" horiz-adv-x="589" 
d="M171 2q-6 -2 -16 -4.5t-22 -2.5q-44 0 -44 37v532q0 16 8 24.5t25 13.5q29 9 71.5 13t82.5 4q126 0 187.5 -50.5t61.5 -143.5q0 -69 -35.5 -116t-107.5 -67l50 -64t47.5 -60.5t40 -51.5t27.5 -36q-4 -17 -17.5 -27t-27.5 -10q-17 0 -28 8t-23 25l-146 204h-134v-228z
M285 298q74 0 116 32t42 95t-44 94.5t-126 31.5q-27 0 -54.5 -2.5t-48.5 -6.5v-244h115zM369 820q22 -1 33.5 -11.5t11.5 -24.5t-5.5 -23t-19.5 -21l-85 -76q-19 2 -29.5 10t-10.5 20q0 10 4 17t10 13z" />
    <glyph glyph-name="racute" unicode="&#x155;" horiz-adv-x="382" 
d="M155 2q-5 -2 -15 -4.5t-22 -2.5q-43 0 -43 36v339q0 23 8.5 36.5t28.5 26.5q26 17 70.5 29.5t100.5 12.5q80 0 80 -40q0 -10 -3 -18.5t-8 -14.5q-10 2 -26 4t-32 2q-46 0 -81 -9.5t-58 -22.5v-374zM288 687q22 -1 35.5 -12.5t13.5 -25.5t-6 -22.5t-20 -21.5l-91 -89
q-20 0 -32 10.5t-12 23.5q0 8 5 15t10 13z" />
    <glyph glyph-name="Rcommaaccent" unicode="&#x156;" horiz-adv-x="589" 
d="M171 2q-6 -2 -16 -4.5t-22 -2.5q-44 0 -44 37v532q0 16 8 24.5t25 13.5q29 9 71.5 13t82.5 4q126 0 187.5 -50.5t61.5 -143.5q0 -69 -35.5 -116t-107.5 -67l50 -64t47.5 -60.5t40 -51.5t27.5 -36q-4 -17 -17.5 -27t-27.5 -10q-17 0 -28 8t-23 25l-146 204h-134v-228z
M285 298q74 0 116 32t42 95t-44 94.5t-126 31.5q-27 0 -54.5 -2.5t-48.5 -6.5v-244h115zM301 -201q-15 -18 -38 -18q-21 0 -31 13q14 35 26 71.5t15 65.5q17 7 36 7q16 0 26.5 -7.5t10.5 -22.5q0 -12 -4 -27.5t-11 -30.5t-15 -28.5t-15 -22.5z" />
    <glyph glyph-name="rcommaaccent" unicode="&#x157;" horiz-adv-x="382" 
d="M155 2q-5 -2 -15 -4.5t-22 -2.5q-43 0 -43 36v339q0 23 8.5 36.5t28.5 26.5q26 17 70.5 29.5t100.5 12.5q80 0 80 -40q0 -10 -3 -18.5t-8 -14.5q-10 2 -26 4t-32 2q-46 0 -81 -9.5t-58 -22.5v-374zM109 -201q-15 -18 -38 -18q-21 0 -31 13q14 35 26 71.5t15 65.5
q17 7 36 7q16 0 26.5 -7.5t10.5 -22.5q0 -12 -4 -27.5t-11 -30.5t-15 -28.5t-15 -22.5z" />
    <glyph glyph-name="Rcaron" unicode="&#x158;" horiz-adv-x="589" 
d="M171 2q-6 -2 -16 -4.5t-22 -2.5q-44 0 -44 37v532q0 16 8 24.5t25 13.5q29 9 71.5 13t82.5 4q126 0 187.5 -50.5t61.5 -143.5q0 -69 -35.5 -116t-107.5 -67l50 -64t47.5 -60.5t40 -51.5t27.5 -36q-4 -17 -17.5 -27t-27.5 -10q-17 0 -28 8t-23 25l-146 204h-134v-228z
M285 298q74 0 116 32t42 95t-44 94.5t-126 31.5q-27 0 -54.5 -2.5t-48.5 -6.5v-244h115zM384 814q18 -2 31 -10.5t13 -22.5q0 -12 -7.5 -21t-18.5 -20l-60 -60q-11 -11 -21.5 -15.5t-24.5 -4.5q-15 0 -26.5 6t-22.5 19l-83 88q0 19 9 29t24 10q11 0 21 -6t24 -22l54 -63z
" />
    <glyph glyph-name="rcaron" unicode="&#x159;" horiz-adv-x="382" 
d="M155 2q-5 -2 -15 -4.5t-22 -2.5q-43 0 -43 36v339q0 23 8.5 36.5t28.5 26.5q26 17 70.5 29.5t100.5 12.5q80 0 80 -40q0 -10 -3 -18.5t-8 -14.5q-10 2 -26 4t-32 2q-46 0 -81 -9.5t-58 -22.5v-374zM218 583l88 97q20 -2 31.5 -11t11.5 -23q0 -11 -7 -20t-18 -21l-63 -64
q-10 -10 -20 -15t-24 -5t-25.5 6.5t-23.5 19.5l-85 93q0 15 9 26.5t24 11.5q13 0 21.5 -5.5t19.5 -18.5z" />
    <glyph glyph-name="Sacute" unicode="&#x15a;" horiz-adv-x="523" 
d="M257 55q67 0 101.5 30.5t34.5 78.5q0 42 -26.5 68t-83.5 43l-87 26q-64 19 -100.5 56t-36.5 100q0 38 14.5 68.5t41.5 51.5t64.5 32.5t84.5 11.5q40 0 74.5 -6.5t60 -18t39.5 -25.5t14 -29q0 -14 -7 -24t-18 -16q-26 20 -67.5 35t-92.5 15q-59 0 -92.5 -25t-33.5 -70
q0 -35 24 -57t80 -38l61 -18q79 -23 124.5 -64.5t45.5 -115.5q0 -79 -57 -128t-162 -49q-46 0 -83.5 8t-64 21t-41 28.5t-14.5 30.5q0 17 10.5 28.5t24.5 16.5q11 -11 27 -22.5t37 -21t47 -15.5t57 -6zM329 820q22 -1 33.5 -11.5t11.5 -24.5t-5.5 -23t-19.5 -21l-85 -76
q-19 2 -29.5 10t-10.5 20q0 10 4 17t10 13z" />
    <glyph glyph-name="sacute" unicode="&#x15b;" horiz-adv-x="447" 
d="M401 123q0 -64 -47 -100t-136 -36q-38 0 -70 6.5t-54.5 17t-35 24t-12.5 27.5q0 12 6.5 23t19.5 19q27 -20 63 -35.5t82 -15.5q104 0 104 70q0 57 -69 74l-83 22q-61 16 -89 46.5t-28 78.5q0 26 10.5 50t32.5 42t54.5 28.5t76.5 10.5q70 0 113 -20.5t43 -47.5
q0 -13 -6.5 -23t-17.5 -15q-18 12 -51 26t-78 14t-71.5 -17t-26.5 -48q0 -23 15 -39t50 -24l69 -17q68 -17 102 -50.5t34 -90.5zM297 687q22 -1 35.5 -12.5t13.5 -25.5t-6 -22.5t-20 -21.5l-91 -89q-20 0 -32 10.5t-12 23.5q0 8 5 15t10 13z" />
    <glyph glyph-name="Scircumflex" unicode="&#x15c;" horiz-adv-x="523" 
d="M257 55q67 0 101.5 30.5t34.5 78.5q0 42 -26.5 68t-83.5 43l-87 26q-64 19 -100.5 56t-36.5 100q0 38 14.5 68.5t41.5 51.5t64.5 32.5t84.5 11.5q40 0 74.5 -6.5t60 -18t39.5 -25.5t14 -29q0 -14 -7 -24t-18 -16q-26 20 -67.5 35t-92.5 15q-59 0 -92.5 -25t-33.5 -70
q0 -35 24 -57t80 -38l61 -18q79 -23 124.5 -64.5t45.5 -115.5q0 -79 -57 -128t-162 -49q-46 0 -83.5 8t-64 21t-41 28.5t-14.5 30.5q0 17 10.5 28.5t24.5 16.5q11 -11 27 -22.5t37 -21t47 -15.5t57 -6zM271 751q-17 -17 -40 -41.5t-52 -50.5q-17 2 -28 10.5t-11 22.5
q0 11 7.5 20.5t18.5 20.5l59 59q22 22 47 22q16 0 27 -6.5t23 -19.5l82 -93q0 -15 -9.5 -24.5t-24.5 -9.5q-11 0 -21 6t-24 22z" />
    <glyph glyph-name="scircumflex" unicode="&#x15d;" horiz-adv-x="447" 
d="M401 123q0 -64 -47 -100t-136 -36q-38 0 -70 6.5t-54.5 17t-35 24t-12.5 27.5q0 12 6.5 23t19.5 19q27 -20 63 -35.5t82 -15.5q104 0 104 70q0 57 -69 74l-83 22q-61 16 -89 46.5t-28 78.5q0 26 10.5 50t32.5 42t54.5 28.5t76.5 10.5q70 0 113 -20.5t43 -47.5
q0 -13 -6.5 -23t-17.5 -15q-18 12 -51 26t-78 14t-71.5 -17t-26.5 -48q0 -23 15 -39t50 -24l69 -17q68 -17 102 -50.5t34 -90.5zM224 618q-23 -28 -45.5 -51.5t-42.5 -46.5q-18 2 -30 10.5t-12 22.5q0 11 6 19t16 19l61 66q13 11 23 17t24 6q16 0 26 -6t21 -18l84 -100
q0 -14 -7.5 -24t-23.5 -10q-12 0 -19.5 5.5t-15.5 13.5z" />
    <glyph glyph-name="Scedilla" unicode="&#x15e;" horiz-adv-x="523" 
d="M257 55q67 0 101.5 30.5t34.5 78.5q0 42 -26.5 68t-83.5 43l-87 26q-64 19 -100.5 56t-36.5 100q0 38 14.5 68.5t41.5 51.5t64.5 32.5t84.5 11.5q40 0 74.5 -6.5t60 -18t39.5 -25.5t14 -29q0 -14 -7 -24t-18 -16q-26 20 -67.5 35t-92.5 15q-59 0 -92.5 -25t-33.5 -70
q0 -35 24 -57t80 -38l61 -18q79 -23 124.5 -64.5t45.5 -115.5q0 -70 -45 -117t-129 -57q23 -32 23 -75q0 -48 -30 -76t-78 -28q-52 0 -52 36q0 13 6 24h15q36 0 52.5 15.5t16.5 41.5q0 14 -4.5 29.5t-15.5 30.5q-41 2 -74.5 10.5t-57 20.5t-36.5 27t-13 29q0 17 10.5 28.5
t24.5 16.5q11 -11 27 -22.5t37 -21t47 -15.5t57 -6z" />
    <glyph glyph-name="scedilla" unicode="&#x15f;" horiz-adv-x="447" 
d="M401 123q0 -53 -32 -86.5t-94 -44.5q25 -32 25 -77q0 -48 -30 -76t-78 -28q-52 0 -52 36q0 13 6 24h15q36 0 52.5 15.5t16.5 41.5q0 14 -4.5 29t-15.5 30q-37 1 -67 7.5t-51.5 17t-33.5 23.5t-12 27q0 12 6.5 23t19.5 19q27 -20 63 -35.5t82 -15.5q104 0 104 70
q0 57 -69 74l-83 22q-61 16 -89 46.5t-28 78.5q0 26 10.5 50t32.5 42t54.5 28.5t76.5 10.5q70 0 113 -20.5t43 -47.5q0 -13 -6.5 -23t-17.5 -15q-18 12 -51 26t-78 14t-71.5 -17t-26.5 -48q0 -23 15 -39t50 -24l69 -17q68 -17 102 -50.5t34 -90.5z" />
    <glyph glyph-name="Scaron" unicode="&#x160;" horiz-adv-x="523" 
d="M257 55q67 0 101.5 30.5t34.5 78.5q0 42 -26.5 68t-83.5 43l-87 26q-64 19 -100.5 56t-36.5 100q0 38 14.5 68.5t41.5 51.5t64.5 32.5t84.5 11.5q40 0 74.5 -6.5t60 -18t39.5 -25.5t14 -29q0 -14 -7 -24t-18 -16q-26 20 -67.5 35t-92.5 15q-59 0 -92.5 -25t-33.5 -70
q0 -35 24 -57t80 -38l61 -18q79 -23 124.5 -64.5t45.5 -115.5q0 -79 -57 -128t-162 -49q-46 0 -83.5 8t-64 21t-41 28.5t-14.5 30.5q0 17 10.5 28.5t24.5 16.5q11 -11 27 -22.5t37 -21t47 -15.5t57 -6zM353 814q18 -2 31 -10.5t13 -22.5q0 -12 -7.5 -21t-18.5 -20l-60 -60
q-11 -11 -21.5 -15.5t-24.5 -4.5q-15 0 -26.5 6t-22.5 19l-83 88q0 19 9 29t24 10q11 0 21 -6t24 -22l54 -63z" />
    <glyph glyph-name="scaron" unicode="&#x161;" horiz-adv-x="447" 
d="M401 123q0 -64 -47 -100t-136 -36q-38 0 -70 6.5t-54.5 17t-35 24t-12.5 27.5q0 12 6.5 23t19.5 19q27 -20 63 -35.5t82 -15.5q104 0 104 70q0 57 -69 74l-83 22q-61 16 -89 46.5t-28 78.5q0 26 10.5 50t32.5 42t54.5 28.5t76.5 10.5q70 0 113 -20.5t43 -47.5
q0 -13 -6.5 -23t-17.5 -15q-18 12 -51 26t-78 14t-71.5 -17t-26.5 -48q0 -23 15 -39t50 -24l69 -17q68 -17 102 -50.5t34 -90.5zM224 583l88 97q20 -2 31.5 -11t11.5 -23q0 -11 -7 -20t-18 -21l-63 -64q-10 -10 -20 -15t-24 -5t-25.5 6.5t-23.5 19.5l-85 93q0 15 9 26.5
t24 11.5q13 0 21.5 -5.5t19.5 -18.5z" />
    <glyph glyph-name="uni0162" unicode="&#x162;" horiz-adv-x="523" 
d="M234 2q-13 9 -13 30v507h-187q-3 5 -6 13.5t-3 19.5q0 17 8 26.5t23 9.5h433q3 -5 6 -13.5t3 -18.5q0 -17 -8 -27t-23 -10h-165v-537q18 -18 26 -39.5t8 -47.5q0 -48 -30 -76t-78 -28q-52 0 -52 36q0 13 6 24h15q36 0 52.5 15.5t16.5 41.5q0 17 -7.5 37t-24.5 37z" />
    <glyph glyph-name="uni0163" unicode="&#x163;" horiz-adv-x="372" 
d="M147 2q-33 14 -52 43t-19 76v475q5 2 15.5 4.5t22.5 2.5q42 0 42 -36v-115h164q3 -5 6 -13.5t3 -18.5q0 -34 -30 -34h-143v-260q0 -40 22.5 -56.5t63.5 -16.5q17 0 38 6t35 14q6 -6 11 -15t5 -21q0 -22 -26 -36t-72 -14h-5q11 -16 16 -34t5 -38q0 -48 -30 -76t-78 -28
q-52 0 -52 36q0 13 6 24h15q36 0 52.5 15.5t16.5 41.5q0 17 -7.5 37t-24.5 37z" />
    <glyph glyph-name="Tcaron" unicode="&#x164;" horiz-adv-x="523" 
d="M302 539v-537q-5 -2 -15.5 -4.5t-21.5 -2.5q-44 0 -44 37v507h-187q-3 5 -6 13.5t-3 19.5q0 17 8 26.5t23 9.5h433q3 -5 6 -13.5t3 -18.5q0 -17 -8 -27t-23 -10h-165zM349 814q18 -2 31 -10.5t13 -22.5q0 -12 -7.5 -21t-18.5 -20l-60 -60q-11 -11 -21.5 -15.5t-24.5 -4.5
q-15 0 -26.5 6t-22.5 19l-83 88q0 19 9 29t24 10q11 0 21 -6t24 -22l54 -63z" />
    <glyph glyph-name="tcaron" unicode="&#x165;" horiz-adv-x="453" 
d="M233 -13q-70 0 -113.5 31t-43.5 103v475q5 2 15.5 4.5t22.5 2.5q42 0 42 -36v-115h164q3 -5 6 -13.5t3 -18.5q0 -34 -30 -34h-143v-260q0 -40 22.5 -56.5t63.5 -16.5q17 0 38 6t35 14q6 -6 11 -15t5 -21q0 -22 -26 -36t-72 -14zM428 516q-15 -18 -38 -18q-21 0 -31 13
q14 35 26 71.5t15 65.5q17 7 36 7q16 0 26.5 -7.5t10.5 -22.5q0 -12 -4 -27.5t-11 -30.5t-15 -28.5t-15 -22.5z" />
    <glyph glyph-name="Tbar" unicode="&#x166;" horiz-adv-x="523" 
d="M302 305v-303q-5 -2 -15.5 -4.5t-21.5 -2.5q-44 0 -44 37v273h-117q-3 5 -6 12.5t-3 17.5q0 32 29 32h97v172h-187q-3 5 -6 13.5t-3 19.5q0 17 8 26.5t23 9.5h433q3 -5 6 -13.5t3 -18.5q0 -17 -8 -27t-23 -10h-165v-172h118l5 -12.5t3 -17.5q0 -18 -7.5 -25t-21.5 -7h-97
z" />
    <glyph glyph-name="tbar" unicode="&#x167;" horiz-adv-x="372" 
d="M233 -13q-70 0 -113.5 31t-43.5 103v475q5 2 15.5 4.5t22.5 2.5q42 0 42 -36v-115h164q3 -5 6 -13.5t3 -18.5q0 -34 -30 -34h-143v-110h165l5 -12.5t3 -17.5q0 -18 -7.5 -25t-21.5 -7h-144v-88q0 -40 22.5 -56.5t63.5 -16.5q17 0 38 6t35 14q6 -6 11 -15t5 -21
q0 -22 -26 -36t-72 -14z" />
    <glyph glyph-name="Utilde" unicode="&#x168;" horiz-adv-x="649" 
d="M561 210q0 -51 -15.5 -92t-46 -70t-74.5 -45t-101 -16t-101 16t-74 45t-45.5 70t-15.5 92v396q5 2 15.5 4.5t22.5 2.5q43 0 43 -37v-359q0 -40 12 -70t32.5 -50.5t49 -30.5t61.5 -10t61.5 10t49 30.5t32.5 50.5t12 70v389q5 2 15.5 4.5t22.5 2.5q44 0 44 -37v-366z
M255 786q21 0 39 -5.5t33.5 -11.5t29.5 -11.5t27 -5.5q18 0 26.5 10.5t12.5 27.5h6q18 0 32 -8.5t14 -29.5q0 -29 -20 -45.5t-53 -16.5q-21 0 -40 5.5t-35.5 12t-30.5 12t-26 5.5q-18 0 -26 -11t-12 -28h-6q-18 0 -32 9t-14 29q0 29 23 45.5t52 16.5z" />
    <glyph glyph-name="utilde" unicode="&#x169;" horiz-adv-x="551" 
d="M75 460q5 2 15.5 4.5t22.5 2.5q42 0 42 -37v-257q0 -65 34 -92.5t94 -27.5q40 0 68 8.5t44 17.5v381q5 2 15.5 4.5t21.5 2.5q43 0 43 -37v-348q0 -21 -5.5 -33.5t-26.5 -24.5q-23 -13 -63.5 -25t-97.5 -12q-100 0 -153.5 44t-53.5 138v291zM203 651q21 0 39 -5.5
t33.5 -11.5t29.5 -11.5t27 -5.5q18 0 26.5 10.5t12.5 27.5h6q18 0 32 -8.5t14 -29.5q0 -29 -20 -45.5t-53 -16.5q-21 0 -40 5.5t-35.5 12t-30.5 12t-26 5.5q-18 0 -26 -11t-12 -28h-6q-18 0 -32 9t-14 29q0 29 23 45.5t52 16.5z" />
    <glyph glyph-name="Umacron" unicode="&#x16a;" horiz-adv-x="649" 
d="M561 210q0 -51 -15.5 -92t-46 -70t-74.5 -45t-101 -16t-101 16t-74 45t-45.5 70t-15.5 92v396q5 2 15.5 4.5t22.5 2.5q43 0 43 -37v-359q0 -40 12 -70t32.5 -50.5t49 -30.5t61.5 -10t61.5 10t49 30.5t32.5 50.5t12 70v389q5 2 15.5 4.5t22.5 2.5q44 0 44 -37v-366z
M197 690q-4 6 -7.5 14t-3.5 18q0 17 9 25t23 8h228q4 -6 7 -14.5t3 -17.5q0 -33 -32 -33h-227z" />
    <glyph glyph-name="umacron" unicode="&#x16b;" horiz-adv-x="550" 
d="M75 460q5 2 15.5 4.5t22.5 2.5q42 0 42 -37v-257q0 -65 34 -92.5t94 -27.5q40 0 68 8.5t44 17.5v381q5 2 15.5 4.5t21.5 2.5q43 0 43 -37v-348q0 -21 -5.5 -33.5t-26.5 -24.5q-23 -13 -63.5 -25t-97.5 -12q-100 0 -153.5 44t-53.5 138v291zM151 570q-4 6 -7.5 14t-3.5 18
q0 17 9 25t23 8h228q4 -6 7 -14.5t3 -17.5q0 -33 -32 -33h-227z" />
    <glyph glyph-name="Ubreve" unicode="&#x16c;" horiz-adv-x="649" 
d="M561 210q0 -51 -15.5 -92t-46 -70t-74.5 -45t-101 -16t-101 16t-74 45t-45.5 70t-15.5 92v396q5 2 15.5 4.5t22.5 2.5q43 0 43 -37v-359q0 -40 12 -70t32.5 -50.5t49 -30.5t61.5 -10t61.5 10t49 30.5t32.5 50.5t12 70v389q5 2 15.5 4.5t22.5 2.5q44 0 44 -37v-366z
M326 716q65 0 76 66q4 1 8 1.5t9 0.5q16 0 25.5 -9t9.5 -29q0 -16 -8 -31.5t-24 -28t-40 -20.5t-56 -8q-33 0 -57 8t-40 20.5t-23.5 28.5t-7.5 31q0 38 35 38q9 0 17 -2q11 -66 76 -66z" />
    <glyph glyph-name="ubreve" unicode="&#x16d;" horiz-adv-x="551" 
d="M75 460q5 2 15.5 4.5t22.5 2.5q42 0 42 -37v-257q0 -65 34 -92.5t94 -27.5q40 0 68 8.5t44 17.5v381q5 2 15.5 4.5t21.5 2.5q43 0 43 -37v-348q0 -21 -5.5 -33.5t-26.5 -24.5q-23 -13 -63.5 -25t-97.5 -12q-100 0 -153.5 44t-53.5 138v291zM275 599q65 0 76 66q4 1 8 1.5
t9 0.5q16 0 25.5 -9t9.5 -29q0 -16 -8 -31.5t-24 -28t-40 -20.5t-56 -8q-33 0 -57 8t-40 20.5t-23.5 28.5t-7.5 31q0 38 35 38q9 0 17 -2q11 -66 76 -66z" />
    <glyph glyph-name="Uring" unicode="&#x16e;" horiz-adv-x="649" 
d="M561 210q0 -51 -15.5 -92t-46 -70t-74.5 -45t-101 -16t-101 16t-74 45t-45.5 70t-15.5 92v396q5 2 15.5 4.5t22.5 2.5q43 0 43 -37v-359q0 -40 12 -70t32.5 -50.5t49 -30.5t61.5 -10t61.5 10t49 30.5t32.5 50.5t12 70v389q5 2 15.5 4.5t22.5 2.5q44 0 44 -37v-366z
M219 744q0 39 28 65t78 26q51 0 78.5 -26t27.5 -65q0 -38 -27.5 -64t-78.5 -26q-50 0 -78 26t-28 64zM279 744q0 -19 13 -30t33 -11t33.5 11t13.5 30q0 20 -13.5 31t-33.5 11t-33 -11t-13 -31z" />
    <glyph glyph-name="uring" unicode="&#x16f;" horiz-adv-x="550" 
d="M75 460q5 2 15.5 4.5t22.5 2.5q42 0 42 -37v-257q0 -65 34 -92.5t94 -27.5q40 0 68 8.5t44 17.5v381q5 2 15.5 4.5t21.5 2.5q43 0 43 -37v-348q0 -21 -5.5 -33.5t-26.5 -24.5q-23 -13 -63.5 -25t-97.5 -12q-100 0 -153.5 44t-53.5 138v291zM169 612q0 39 27 66t77 27
t77 -27t27 -66t-27 -66t-77 -27t-77 27t-27 66zM227 612q0 -22 13 -34t33 -12t33.5 12t13.5 34t-13.5 34t-33.5 12t-33 -12t-13 -34z" />
    <glyph glyph-name="Uhungarumlaut" unicode="&#x170;" horiz-adv-x="649" 
d="M561 210q0 -51 -15.5 -92t-46 -70t-74.5 -45t-101 -16t-101 16t-74 45t-45.5 70t-15.5 92v396q5 2 15.5 4.5t22.5 2.5q43 0 43 -37v-359q0 -40 12 -70t32.5 -50.5t49 -30.5t61.5 -10t61.5 10t49 30.5t32.5 50.5t12 70v389q5 2 15.5 4.5t22.5 2.5q44 0 44 -37v-366z
M272 818q22 -1 35 -11t13 -24q0 -13 -6.5 -23t-18.5 -24l-60 -72q-20 0 -31.5 9.5t-11.5 22.5q0 9 3.5 16t8.5 14zM441 818q22 -1 35 -11t13 -24t-7 -23.5t-18 -23.5l-60 -72q-20 0 -31.5 9.5t-11.5 22.5q0 9 3.5 16t8.5 14z" />
    <glyph glyph-name="uhungarumlaut" unicode="&#x171;" horiz-adv-x="550" 
d="M75 460q5 2 15.5 4.5t22.5 2.5q42 0 42 -37v-257q0 -65 34 -92.5t94 -27.5q40 0 68 8.5t44 17.5v381q5 2 15.5 4.5t21.5 2.5q43 0 43 -37v-348q0 -21 -5.5 -33.5t-26.5 -24.5q-23 -13 -63.5 -25t-97.5 -12q-100 0 -153.5 44t-53.5 138v291zM234 687q22 -1 35 -11t13 -24
t-7 -23.5t-18 -23.5l-71 -89q-20 0 -32 9.5t-12 22.5q0 9 4 16t9 14zM402 687q22 -1 35 -11t13 -24t-7 -23.5t-18 -23.5l-71 -89q-20 0 -31.5 9.5t-11.5 22.5q0 9 3.5 16t8.5 14z" />
    <glyph glyph-name="Uogonek" unicode="&#x172;" horiz-adv-x="649" 
d="M561 210q0 -91 -49.5 -150t-143.5 -70q-14 -12 -22.5 -27t-8.5 -36q0 -27 17 -40t46 -13h15q6 -12 6 -23q0 -16 -11 -26t-38 -10q-22 0 -41.5 6.5t-34 19t-23 30t-8.5 40.5q0 26 9 44.5t23 32.5q-101 8 -155 67t-54 155v396q5 2 15.5 4.5t22.5 2.5q43 0 43 -37v-359
q0 -40 12 -70t32.5 -50.5t49 -30.5t61.5 -10t61.5 10t49 30.5t32.5 50.5t12 70v389q5 2 15.5 4.5t22.5 2.5q44 0 44 -37v-366v0z" />
    <glyph glyph-name="uogonek" unicode="&#x173;" horiz-adv-x="550" 
d="M155 173q0 -65 34 -92.5t94 -27.5q40 0 68 8.5t44 17.5v381q5 2 15.5 4.5t21.5 2.5q43 0 43 -37v-348q0 -21 -5.5 -33.5t-25.5 -24.5q-27 -22 -43.5 -43.5t-16.5 -53.5q0 -27 17.5 -40t46.5 -13h15q6 -12 6 -23q0 -16 -11.5 -26t-37.5 -10q-22 0 -41.5 6.5t-34.5 19
t-23.5 30t-8.5 40.5q0 31 12 51.5t29 34.5q-16 -5 -33.5 -7.5t-37.5 -2.5q-100 0 -153.5 44t-53.5 138v291q5 2 15.5 4.5t22.5 2.5q42 0 42 -37v-257v0z" />
    <glyph glyph-name="Wcircumflex" unicode="&#x174;" horiz-adv-x="799" 
d="M354 457q8 4 19.5 7t25.5 3q42 0 51 -26l34 -102t31 -92.5t29 -87.5t28 -89h4q14 67 28 131.5t27 130t25 133t23 142.5q14 7 34 7q19 0 30 -8.5t11 -25.5q0 -19 -5.5 -58t-15 -89.5t-22 -109t-26.5 -115t-28 -108.5t-27 -89q-9 -5 -23 -9.5t-32 -4.5q-22 0 -37 7t-20 19
q-11 26 -25 65.5t-29.5 87t-31.5 99t-31 102.5q-15 -50 -31 -103t-31.5 -102.5t-30.5 -91.5t-27 -70q-8 -5 -22 -9t-32 -4q-23 0 -37 7.5t-19 18.5q-9 21 -20.5 60t-24 88.5t-26 106.5t-26 113.5t-23 109t-17.5 94.5q7 7 19 13t26 6q35 0 42 -37q13 -63 25 -121.5t24.5 -119
t26.5 -125.5t31 -141h4q14 45 27 85.5t27 84.5t30.5 96t37.5 121zM404 740q-23 -28 -45.5 -51.5t-42.5 -46.5q-18 2 -30 10.5t-12 22.5q0 11 6 19t16 19l61 66q13 11 23 17t24 6q16 0 26 -6t21 -18l84 -100q0 -14 -7.5 -24t-23.5 -10q-12 0 -19.5 5.5t-15.5 13.5z" />
    <glyph glyph-name="wcircumflex" unicode="&#x175;" horiz-adv-x="712" 
d="M356 344q-14 -47 -28.5 -95t-29.5 -92t-29 -83t-26 -69q-8 -5 -18 -8t-27 -3q-16 0 -29.5 5.5t-18.5 17.5q-12 25 -28.5 78t-34 116.5t-33 128t-25.5 112.5q7 7 17.5 13t25.5 6q19 0 28 -10.5t14 -33.5q9 -42 21 -95.5t24 -104.5t22.5 -93l15.5 -62h4q6 18 17.5 54
t26.5 82.5t33 100.5l36 108q18 10 43 10q37 0 46 -26q18 -52 34.5 -103.5t30.5 -95.5t24 -78.5t16 -52.5h5q23 90 50 191t44 200q14 9 34 9q17 0 27 -8t10 -25q0 -11 -6.5 -42.5t-17.5 -73t-24.5 -89t-27.5 -92t-26.5 -81t-21.5 -55.5q-5 -4 -16.5 -7.5t-26.5 -3.5
q-19 0 -31.5 4.5t-16.5 14.5q-11 27 -23.5 64t-26.5 80.5t-28.5 91.5t-28.5 95zM358 618q-23 -28 -45.5 -51.5t-42.5 -46.5q-18 2 -30 10.5t-12 22.5q0 11 6 19t16 19l61 66q13 11 23 17t24 6q16 0 26 -6t21 -18l84 -100q0 -14 -7.5 -24t-23.5 -10q-12 0 -19.5 5.5
t-15.5 13.5z" />
    <glyph glyph-name="Ycircumflex" unicode="&#x176;" horiz-adv-x="550" 
d="M523 580q0 -11 -15 -42.5t-42 -78.5t-64.5 -107t-82.5 -127v-223q-5 -2 -15.5 -4.5t-21.5 -2.5q-44 0 -44 37v193q-28 41 -57.5 87t-58.5 93t-55 92t-46 85q4 11 15 21.5t29 10.5q19 0 29.5 -10t21.5 -30q16 -28 37.5 -66t44 -77t43.5 -75.5t36 -60.5h4q52 87 92.5 162
t80.5 150q6 4 14.5 5.5t16.5 1.5q38 0 38 -34zM276 751q-17 -17 -40 -41.5t-52 -50.5q-17 2 -28 10.5t-11 22.5q0 11 7.5 20.5t18.5 20.5l59 59q22 22 47 22q16 0 27 -6.5t23 -19.5l82 -93q0 -15 -9.5 -24.5t-24.5 -9.5q-11 0 -21 6t-24 22z" />
    <glyph glyph-name="ycircumflex" unicode="&#x177;" horiz-adv-x="489" 
d="M169 103q-13 24 -30 61t-35.5 83t-37.5 97.5t-36 104.5q7 10 18.5 16t24.5 6q17 0 27.5 -9t18.5 -30q30 -85 62.5 -167t73.5 -172h4q16 31 33 75.5t33.5 94.5t31 101.5t25.5 98.5q7 3 15 5.5t19 2.5q17 0 28 -8.5t11 -25.5q0 -20 -14 -73t-36.5 -119t-51.5 -135.5
t-59 -123.5q-47 -85 -84.5 -130.5t-69.5 -45.5q-23 0 -35.5 12t-15.5 28q16 14 36 36t40 47.5t38 52.5t30 52q-17 5 -31.5 17.5t-32.5 47.5zM251 618q-23 -28 -45.5 -51.5t-42.5 -46.5q-18 2 -30 10.5t-12 22.5q0 11 6 19t16 19l61 66q13 11 23 17t24 6q16 0 26 -6t21 -18
l84 -100q0 -14 -7.5 -24t-23.5 -10q-12 0 -19.5 5.5t-15.5 13.5z" />
    <glyph glyph-name="Ydieresis" unicode="&#x178;" horiz-adv-x="550" 
d="M523 580q0 -11 -15 -42.5t-42 -78.5t-64.5 -107t-82.5 -127v-223q-5 -2 -15.5 -4.5t-21.5 -2.5q-44 0 -44 37v193q-28 41 -57.5 87t-58.5 93t-55 92t-46 85q4 11 15 21.5t29 10.5q19 0 29.5 -10t21.5 -30q16 -28 37.5 -66t44 -77t43.5 -75.5t36 -60.5h4q52 87 92.5 162
t80.5 150q6 4 14.5 5.5t16.5 1.5q38 0 38 -34zM242 729q0 -20 -14 -34t-36 -14q-21 0 -34.5 14t-13.5 34t13.5 34t34.5 14q22 0 36 -14t14 -34zM415 729q0 -20 -14.5 -34t-35.5 -14q-20 0 -34.5 14t-14.5 34t14.5 34t34.5 14q21 0 35.5 -14t14.5 -34z" />
    <glyph glyph-name="Zacute" unicode="&#x179;" horiz-adv-x="557" 
d="M483 608q8 -7 13.5 -17t5.5 -21q0 -14 -5.5 -25t-15.5 -25l-329 -451h347q4 -5 7 -13.5t3 -19.5q0 -17 -8.5 -26.5t-22.5 -9.5h-409q-8 7 -13.5 17t-5.5 21q0 14 5.5 25t15.5 25l329 451h-333q-3 5 -6.5 13.5t-3.5 19.5q0 17 8.5 26.5t23.5 9.5h394zM349 820
q22 -1 33.5 -11.5t11.5 -24.5t-5.5 -23t-19.5 -21l-85 -76q-19 2 -29.5 10t-10.5 20q0 10 4 17t10 13z" />
    <glyph glyph-name="zacute" unicode="&#x17a;" horiz-adv-x="469" 
d="M61 0q-16 13 -16 35q0 12 5 22.5t13 20.5l254 318h-257q-3 5 -6 13.5t-3 19.5q0 33 30 33h320q17 -14 17 -36q0 -20 -19 -42l-254 -319h271q3 -5 6 -13t3 -19q0 -33 -31 -33h-333zM318 687q22 -1 35.5 -12.5t13.5 -25.5t-6 -22.5t-20 -21.5l-91 -89q-20 0 -32 10.5
t-12 23.5q0 8 5 15t10 13z" />
    <glyph glyph-name="Zdotaccent" unicode="&#x17b;" horiz-adv-x="557" 
d="M483 608q8 -7 13.5 -17t5.5 -21q0 -14 -5.5 -25t-15.5 -25l-329 -451h347q4 -5 7 -13.5t3 -19.5q0 -17 -8.5 -26.5t-22.5 -9.5h-409q-8 7 -13.5 17t-5.5 21q0 14 5.5 25t15.5 25l329 451h-333q-3 5 -6.5 13.5t-3.5 19.5q0 17 8.5 26.5t23.5 9.5h394zM333 730
q0 -22 -14 -35.5t-37 -13.5t-36.5 13.5t-13.5 35.5q0 23 13.5 36.5t36.5 13.5t37 -13.5t14 -36.5z" />
    <glyph glyph-name="zdotaccent" unicode="&#x17c;" horiz-adv-x="469" 
d="M61 0q-16 13 -16 35q0 12 5 22.5t13 20.5l254 318h-257q-3 5 -6 13.5t-3 19.5q0 33 30 33h320q17 -14 17 -36q0 -20 -19 -42l-254 -319h271q3 -5 6 -13t3 -19q0 -33 -31 -33h-333zM283 607q0 -22 -14 -35.5t-37 -13.5t-36.5 13.5t-13.5 35.5q0 23 13.5 36.5t36.5 13.5
t37 -13.5t14 -36.5z" />
    <glyph glyph-name="Zcaron" unicode="&#x17d;" horiz-adv-x="557" 
d="M483 608q8 -7 13.5 -17t5.5 -21q0 -14 -5.5 -25t-15.5 -25l-329 -451h347q4 -5 7 -13.5t3 -19.5q0 -17 -8.5 -26.5t-22.5 -9.5h-409q-8 7 -13.5 17t-5.5 21q0 14 5.5 25t15.5 25l329 451h-333q-3 5 -6.5 13.5t-3.5 19.5q0 17 8.5 26.5t23.5 9.5h394zM372 814
q18 -2 31 -10.5t13 -22.5q0 -12 -7.5 -21t-18.5 -20l-60 -60q-11 -11 -21.5 -15.5t-24.5 -4.5q-15 0 -26.5 6t-22.5 19l-83 88q0 19 9 29t24 10q11 0 21 -6t24 -22l54 -63z" />
    <glyph glyph-name="zcaron" unicode="&#x17e;" horiz-adv-x="469" 
d="M61 0q-16 13 -16 35q0 12 5 22.5t13 20.5l254 318h-257q-3 5 -6 13.5t-3 19.5q0 33 30 33h320q17 -14 17 -36q0 -20 -19 -42l-254 -319h271q3 -5 6 -13t3 -19q0 -33 -31 -33h-333zM236 583l88 97q20 -2 31.5 -11t11.5 -23q0 -11 -7 -20t-18 -21l-63 -64q-10 -10 -20 -15
t-24 -5t-25.5 6.5t-23.5 19.5l-85 93q0 15 9 26.5t24 11.5q13 0 21.5 -5.5t19.5 -18.5z" />
    <glyph glyph-name="uni018F" unicode="&#x18f;" horiz-adv-x="650" 
d="M49 240q0 28 13.5 40t35.5 16l408 65q-9 47 -29 82t-47.5 58t-62 34.5t-73.5 11.5q-59 0 -105.5 -22t-75.5 -51q-14 6 -24 15.5t-10 25.5q0 18 11.5 30.5t22.5 20.5q26 18 75 34t107 16t112 -18t96 -57t67 -99.5t25 -145.5q0 -73 -19 -130.5t-55 -97.5t-87.5 -61.5
t-116.5 -21.5t-115 20.5t-84 56t-51.5 81.5t-17.5 97zM317 54q92 0 144 57t52 175v6l-382 -61q3 -37 16.5 -69.5t37 -56.5t56.5 -37.5t76 -13.5z" />
    <glyph glyph-name="florin" unicode="&#x192;" horiz-adv-x="506" 
d="M265 356l-28 -276q-8 -80 -45 -112.5t-102 -32.5q-42 0 -67.5 13.5t-25.5 36.5q0 22 15 34q17 -7 33 -12t39 -5q35 0 52 19.5t22 65.5l43 406q9 85 57.5 125.5t123.5 40.5q53 0 83.5 -15t30.5 -38q0 -22 -15 -34q-19 8 -42 14t-53 6q-49 0 -74.5 -26t-31.5 -80l-8 -65
h171q4 -5 7 -13t3 -19q0 -33 -31 -33h-157z" />
    <glyph glyph-name="Ohorn" unicode="&#x1a0;" horiz-adv-x="696" 
d="M634 304q0 -78 -22 -137.5t-61 -99t-92 -60t-115 -20.5t-115 20.5t-92 60t-61 99t-22 137.5t22.5 137t61.5 99t92 60.5t114 20.5q63 0 117 -22t94 -64q23 5 37.5 23.5t14.5 57.5v34q16 9 35 9q15 0 25.5 -8.5t10.5 -28.5v-12q0 -56 -26 -86t-61 -40q20 -36 31.5 -81
t11.5 -99zM551 304q0 120 -56.5 184t-150.5 64q-47 0 -85 -16.5t-65 -48t-41.5 -77.5t-14.5 -106q0 -120 56 -184t150 -64q95 0 151 64t56 184z" />
    <glyph glyph-name="ohorn" unicode="&#x1a1;" horiz-adv-x="581" 
d="M511 231q0 -56 -16 -101t-45.5 -77t-71.5 -49t-94 -17t-94 17t-72 49t-46 77t-16 101t16.5 101t46.5 77t72 49t93 17q53 0 95 -18t72 -52q15 9 24.5 26.5t9.5 47.5v34q16 9 35 9q15 0 25.5 -8.5t10.5 -28.5v-12q0 -49 -20.5 -78t-49.5 -43q25 -53 25 -121zM284 409
q-68 0 -107 -47t-39 -131q0 -85 38.5 -131.5t107.5 -46.5t107 47t38 131t-38.5 131t-106.5 47z" />
    <glyph glyph-name="Uhorn" unicode="&#x1af;" horiz-adv-x="681" 
d="M561 210q0 -51 -15.5 -92t-46 -70t-74.5 -45t-101 -16t-101 16t-74 45t-45.5 70t-15.5 92v396q5 2 15.5 4.5t22.5 2.5q43 0 43 -37v-359q0 -40 12 -70t32.5 -50.5t49 -30.5t61.5 -10t61.5 10t49 30.5t32.5 50.5t12 70v389q5 2 15.5 4.5t22.5 2.5q44 0 44 -37v-43
q27 3 46.5 21t19.5 62v34q16 9 35 9q15 0 25.5 -8.5t10.5 -28.5v-12q0 -36 -11 -61t-29 -40.5t-41 -23t-47 -7.5h-9v-268v0z" />
    <glyph glyph-name="uhorn" unicode="&#x1b0;" horiz-adv-x="593" 
d="M75 460q5 2 15.5 4.5t22.5 2.5q42 0 42 -37v-257q0 -65 34 -92.5t94 -27.5q40 0 68 8.5t44 17.5v381q5 2 15.5 4.5t21.5 2.5q43 0 43 -37v-33q24 5 40 23t16 59v34q16 9 35 9q15 0 25.5 -8.5t10.5 -28.5v-12q0 -36 -11 -61t-29 -40.5t-41 -23t-46 -7.5v-259
q0 -21 -5.5 -33.5t-26.5 -24.5q-23 -13 -63.5 -25t-97.5 -12q-100 0 -153.5 44t-53.5 138v291z" />
    <glyph glyph-name="uni01C4" unicode="&#x1c4;" horiz-adv-x="1195" 
d="M515 311q0 64 -19.5 109.5t-53 74.5t-78 42.5t-95.5 13.5q-32 0 -55.5 -2t-43.5 -6v-476q24 -6 51.5 -8t56.5 -2q118 0 177.5 64t59.5 190zM598 311q0 -82 -22.5 -142.5t-64 -100.5t-100.5 -59.5t-132 -19.5q-32 0 -72 2.5t-76 13.5q-42 13 -42 46v514q0 16 8 24.5
t25 13.5q31 10 70 13t78 3q73 0 133.5 -19.5t103.5 -58t67 -96t24 -134.5zM1121 608q8 -7 13.5 -17t5.5 -21q0 -14 -5.5 -25t-15.5 -25l-329 -451h347q4 -5 7 -13.5t3 -19.5q0 -17 -8.5 -26.5t-22.5 -9.5h-409q-8 7 -13.5 17t-5.5 21q0 14 5.5 25t15.5 25l329 451h-333
q-3 5 -6.5 13.5t-3.5 19.5q0 17 8.5 26.5t23.5 9.5h394zM1010 814q18 -2 31 -10.5t13 -22.5q0 -12 -7.5 -21t-18.5 -20l-60 -60q-11 -11 -21.5 -15.5t-24.5 -4.5q-15 0 -26.5 6t-22.5 19l-83 88q0 19 9 29t24 10q11 0 21 -6t24 -22l54 -63z" />
    <glyph glyph-name="uni01C5" unicode="&#x1c5;" horiz-adv-x="1121" 
d="M515 311q0 64 -19.5 109.5t-53 74.5t-78 42.5t-95.5 13.5q-32 0 -55.5 -2t-43.5 -6v-476q24 -6 51.5 -8t56.5 -2q118 0 177.5 64t59.5 190zM598 311q0 -82 -22.5 -142.5t-64 -100.5t-100.5 -59.5t-132 -19.5q-32 0 -72 2.5t-76 13.5q-42 13 -42 46v514q0 16 8 24.5
t25 13.5q31 10 70 13t78 3q73 0 133.5 -19.5t103.5 -58t67 -96t24 -134.5zM713 0q-16 13 -16 35q0 12 5 22.5t13 20.5l254 318h-257q-3 5 -6 13.5t-3 19.5q0 33 30 33h320q17 -14 17 -36q0 -20 -19 -42l-254 -319h271q3 -5 6 -13t3 -19q0 -33 -31 -33h-333zM888 583l88 97
q20 -2 31.5 -11t11.5 -23q0 -11 -7 -20t-18 -21l-63 -64q-10 -10 -20 -15t-24 -5t-25.5 6.5t-23.5 19.5l-85 93q0 15 9 26.5t24 11.5q13 0 21.5 -5.5t19.5 -18.5z" />
    <glyph glyph-name="uni01C6" unicode="&#x1c6;" horiz-adv-x="1016" 
d="M470 76q0 -20 -8.5 -31t-26.5 -22q-20 -13 -57 -24.5t-85 -11.5q-54 0 -99 14t-77.5 43.5t-50 75t-17.5 109.5q0 65 18 111.5t48.5 76.5t72 44t88.5 14q32 0 62 -8t52 -20v201q5 2 15.5 4.5t21.5 2.5q43 0 43 -36v-543zM390 375q-20 14 -46 24t-60 10q-31 0 -58.5 -9.5
t-48.5 -31t-33.5 -56.5t-12.5 -85q0 -92 44 -133t117 -41q35 0 57.5 7.5t40.5 18.5v296zM608 0q-16 13 -16 35q0 12 5 22.5t13 20.5l254 318h-257q-3 5 -6 13.5t-3 19.5q0 33 30 33h320q17 -14 17 -36q0 -20 -19 -42l-254 -319h271q3 -5 6 -13t3 -19q0 -33 -31 -33h-333z
M783 583l88 97q20 -2 31.5 -11t11.5 -23q0 -11 -7 -20t-18 -21l-63 -64q-10 -10 -20 -15t-24 -5t-25.5 6.5t-23.5 19.5l-85 93q0 15 9 26.5t24 11.5q13 0 21.5 -5.5t19.5 -18.5z" />
    <glyph glyph-name="uni01C7" unicode="&#x1c7;" horiz-adv-x="900" 
d="M133 0q-19 0 -31.5 12t-12.5 32v562q5 2 15.5 4.5t22.5 2.5q44 0 44 -37v-506h287q11 -11 11 -33q0 -17 -9 -27t-24 -10h-303zM730 606q5 2 15.5 4.5t21.5 2.5q44 0 44 -37v-428q0 -45 -13 -75.5t-35.5 -49t-52 -26.5t-61.5 -8q-57 0 -83 13.5t-26 35.5q0 14 6 24t11 15
q15 -7 36 -13t44 -6q45 0 69 21.5t24 72.5v454z" />
    <glyph glyph-name="uni01C8" unicode="&#x1c8;" horiz-adv-x="744" 
d="M133 0q-19 0 -31.5 12t-12.5 32v562q5 2 15.5 4.5t22.5 2.5q44 0 44 -37v-506h287q11 -11 11 -33q0 -17 -9 -27t-24 -10h-303zM507 -146q18 8 32.5 16.5t24 21t15 31t5.5 47.5v490q5 2 15.5 4.5t22.5 2.5q42 0 42 -37v-475q0 -44 -12 -72.5t-29.5 -46t-36.5 -24.5t-33 -7
q-25 0 -34.5 14.5t-11.5 34.5zM572 608q0 21 14.5 35.5t37.5 14.5t37 -14.5t14 -35.5t-14 -35.5t-37 -14.5t-37.5 14.5t-14.5 35.5z" />
    <glyph glyph-name="uni01C9" unicode="&#x1c9;" horiz-adv-x="489" 
d="M163 2q-5 -2 -15 -4.5t-22 -2.5q-43 0 -43 36v617q5 2 15.5 4.5t21.5 2.5q43 0 43 -36v-617zM252 -146q18 8 32.5 16.5t24 21t15 31t5.5 47.5v490q5 2 15.5 4.5t22.5 2.5q42 0 42 -37v-475q0 -44 -12 -72.5t-29.5 -46t-36.5 -24.5t-33 -7q-25 0 -34.5 14.5t-11.5 34.5z
M317 608q0 21 14.5 35.5t37.5 14.5t37 -14.5t14 -35.5t-14 -35.5t-37 -14.5t-37.5 14.5t-14.5 35.5z" />
    <glyph glyph-name="uni01CA" unicode="&#x1ca;" horiz-adv-x="1045" 
d="M133 -5q-44 0 -44 36v565q18 18 54 18q24 0 41 -9.5t31 -34.5l191 -320q12 -21 25 -44.5t25 -47t22.5 -44t17.5 -34.5l4 1q-8 81 -9.5 163t-1.5 160v202q6 2 16 4.5t22 2.5q44 0 44 -36v-566q-9 -8 -23 -12.5t-31 -4.5q-24 0 -41 9.5t-31 34.5l-190 320q-12 20 -25.5 44
t-26 47t-23 44l-17.5 35l-4 -1q5 -48 8 -109.5t3 -116.5v-299q-5 -2 -15.5 -4.5t-21.5 -2.5zM875 606q5 2 15.5 4.5t21.5 2.5q44 0 44 -37v-428q0 -45 -13 -75.5t-35.5 -49t-52 -26.5t-61.5 -8q-57 0 -83 13.5t-26 35.5q0 14 6 24t11 15q15 -7 36 -13t44 -6q45 0 69 21.5
t24 72.5v454z" />
    <glyph glyph-name="uni01CB" unicode="&#x1cb;" horiz-adv-x="903" 
d="M133 -5q-44 0 -44 36v565q18 18 54 18q24 0 41 -9.5t31 -34.5l191 -320q12 -21 25 -44.5t25 -47t22.5 -44t17.5 -34.5l4 1q-8 81 -9.5 163t-1.5 160v202q6 2 16 4.5t22 2.5q44 0 44 -36v-566q-9 -8 -23 -12.5t-31 -4.5q-24 0 -41 9.5t-31 34.5l-190 320q-12 20 -25.5 44
t-26 47t-23 44l-17.5 35l-4 -1q5 -48 8 -109.5t3 -116.5v-299q-5 -2 -15.5 -4.5t-21.5 -2.5zM666 -146q18 8 32.5 16.5t24 21t15 31t5.5 47.5v490q5 2 15.5 4.5t22.5 2.5q42 0 42 -37v-475q0 -44 -12 -72.5t-29.5 -46t-36.5 -24.5t-33 -7q-25 0 -34.5 14.5t-11.5 34.5z
M731 608q0 21 14.5 35.5t37.5 14.5t37 -14.5t14 -35.5t-14 -35.5t-37 -14.5t-37.5 14.5t-14.5 35.5z" />
    <glyph glyph-name="uni01CC" unicode="&#x1cc;" horiz-adv-x="793" 
d="M395 301q0 56 -31.5 82t-84.5 26q-40 0 -71 -10t-53 -23v-374q-5 -2 -15 -4.5t-22 -2.5q-43 0 -43 36v341q0 21 8.5 34.5t29.5 26.5q26 16 69 29t97 13q91 0 143.5 -41t52.5 -129v-303q-5 -2 -15.5 -4.5t-21.5 -2.5q-43 0 -43 36v270zM556 -146q18 8 32.5 16.5t24 21
t15 31t5.5 47.5v490q5 2 15.5 4.5t22.5 2.5q42 0 42 -37v-475q0 -44 -12 -72.5t-29.5 -46t-36.5 -24.5t-33 -7q-25 0 -34.5 14.5t-11.5 34.5zM621 608q0 21 14.5 35.5t37.5 14.5t37 -14.5t14 -35.5t-14 -35.5t-37 -14.5t-37.5 14.5t-14.5 35.5z" />
    <glyph glyph-name="uni01CD" unicode="&#x1cd;" horiz-adv-x="592" 
d="M428 162h-268q-7 -20 -15 -43.5t-15.5 -46t-14.5 -42t-11 -32.5q-14 -6 -33 -6q-16 0 -28.5 8.5t-12.5 27.5q0 9 3 18.5t7 20.5q15 42 38.5 108t51 140.5t56 150t52.5 135.5q8 4 24 8t33 4q20 0 38.5 -6t23.5 -20q24 -58 51.5 -132.5t55.5 -152.5t53.5 -153.5
t45.5 -136.5q-8 -9 -19 -14.5t-25 -5.5q-19 0 -29 8.5t-17 28.5zM294 545q-11 -30 -25 -68.5t-29 -80.5t-30 -85t-28 -82h225q-15 45 -31 90.5t-30.5 87.5t-27 77.5t-20.5 60.5h-4zM384 814q18 -2 31 -10.5t13 -22.5q0 -12 -7.5 -21t-18.5 -20l-60 -60q-11 -11 -21.5 -15.5
t-24.5 -4.5q-15 0 -26.5 6t-22.5 19l-83 88q0 19 9 29t24 10q11 0 21 -6t24 -22l54 -63z" />
    <glyph glyph-name="uni01CE" unicode="&#x1ce;" horiz-adv-x="499" 
d="M240 52q42 0 69.5 8.5t39.5 16.5v145l-124 -13q-52 -5 -77 -23.5t-25 -54.5q0 -38 29 -58.5t88 -20.5zM239 475q87 0 138 -39t51 -123v-237q0 -22 -8.5 -33.5t-25.5 -21.5q-24 -14 -63.5 -24.5t-90.5 -10.5q-94 0 -145.5 37t-51.5 107q0 66 43 99.5t121 41.5l142 14v28
q0 50 -30 73t-81 23q-42 0 -79 -12t-66 -27q-8 7 -14.5 16t-6.5 20q0 14 7 23t22 17q27 14 62 21.5t76 7.5zM255 583l88 97q20 -2 31.5 -11t11.5 -23q0 -11 -7 -20t-18 -21l-63 -64q-10 -10 -20 -15t-24 -5t-25.5 6.5t-23.5 19.5l-85 93q0 15 9 26.5t24 11.5q13 0 21.5 -5.5
t19.5 -18.5z" />
    <glyph glyph-name="uni01CF" unicode="&#x1cf;" horiz-adv-x="262" 
d="M171 2q-5 -2 -15 -4.5t-22 -2.5q-44 0 -44 37v574q5 2 15.5 4.5t22.5 2.5q43 0 43 -37v-574zM219 814q18 -2 31 -10.5t13 -22.5q0 -12 -7.5 -21t-18.5 -20l-60 -60q-11 -11 -21.5 -15.5t-24.5 -4.5q-15 0 -26.5 6t-22.5 19l-83 88q0 19 9 29t24 10q11 0 21 -6t24 -22
l54 -63z" />
    <glyph glyph-name="uni01D0" unicode="&#x1d0;" horiz-adv-x="241" 
d="M125 -8q-45 0 -45 37v430q5 2 15 4t21 2q44 0 44 -37v-430q-5 -2 -14.5 -4t-20.5 -2zM122 583l88 97q20 -2 31.5 -11t11.5 -23q0 -11 -7 -20t-18 -21l-63 -64q-10 -10 -20 -15t-24 -5t-25.5 6.5t-23.5 19.5l-85 93q0 15 9 26.5t24 11.5q13 0 21.5 -5.5t19.5 -18.5z" />
    <glyph glyph-name="uni01D1" unicode="&#x1d1;" horiz-adv-x="689" 
d="M634 304q0 -78 -22 -137.5t-61 -99t-92 -60t-115 -20.5t-115 20.5t-92 60t-61 99t-22 137.5t22.5 137t61.5 99t92 60.5t114 20.5t114 -20.5t92 -60.5t61.5 -99t22.5 -137zM551 304q0 120 -56.5 184t-150.5 64q-47 0 -85 -16.5t-65 -48t-41.5 -77.5t-14.5 -106
q0 -120 56 -184t150 -64q95 0 151 64t56 184zM430 814q18 -2 31 -10.5t13 -22.5q0 -12 -7.5 -21t-18.5 -20l-60 -60q-11 -11 -21.5 -15.5t-24.5 -4.5q-15 0 -26.5 6t-22.5 19l-83 88q0 19 9 29t24 10q11 0 21 -6t24 -22l54 -63z" />
    <glyph glyph-name="uni01D2" unicode="&#x1d2;" horiz-adv-x="553" 
d="M504 231q0 -56 -16 -101t-45.5 -77t-71.5 -49t-94 -17t-94 17t-72 49t-46 77t-16 101t16.5 101t46.5 77t72 49t93 17t93 -17t71.5 -49t46 -77t16.5 -101zM277 409q-68 0 -107 -47t-39 -131q0 -85 38.5 -131.5t107.5 -46.5t107 47t38 131t-38.5 131t-106.5 47zM285 583
l88 97q20 -2 31.5 -11t11.5 -23q0 -11 -7 -20t-18 -21l-63 -64q-10 -10 -20 -15t-24 -5t-25.5 6.5t-23.5 19.5l-85 93q0 15 9 26.5t24 11.5q13 0 21.5 -5.5t19.5 -18.5z" />
    <glyph glyph-name="uni01D3" unicode="&#x1d3;" horiz-adv-x="649" 
d="M561 210q0 -51 -15.5 -92t-46 -70t-74.5 -45t-101 -16t-101 16t-74 45t-45.5 70t-15.5 92v396q5 2 15.5 4.5t22.5 2.5q43 0 43 -37v-359q0 -40 12 -70t32.5 -50.5t49 -30.5t61.5 -10t61.5 10t49 30.5t32.5 50.5t12 70v389q5 2 15.5 4.5t22.5 2.5q44 0 44 -37v-366z
M416 814q18 -2 31 -10.5t13 -22.5q0 -12 -7.5 -21t-18.5 -20l-60 -60q-11 -11 -21.5 -15.5t-24.5 -4.5q-15 0 -26.5 6t-22.5 19l-83 88q0 19 9 29t24 10q11 0 21 -6t24 -22l54 -63z" />
    <glyph glyph-name="uni01D4" unicode="&#x1d4;" horiz-adv-x="550" 
d="M75 460q5 2 15.5 4.5t22.5 2.5q42 0 42 -37v-257q0 -65 34 -92.5t94 -27.5q40 0 68 8.5t44 17.5v381q5 2 15.5 4.5t21.5 2.5q43 0 43 -37v-348q0 -21 -5.5 -33.5t-26.5 -24.5q-23 -13 -63.5 -25t-97.5 -12q-100 0 -153.5 44t-53.5 138v291zM276 583l88 97q20 -2 31.5 -11
t11.5 -23q0 -11 -7 -20t-18 -21l-63 -64q-10 -10 -20 -15t-24 -5t-25.5 6.5t-23.5 19.5l-85 93q0 15 9 26.5t24 11.5q13 0 21.5 -5.5t19.5 -18.5z" />
    <glyph glyph-name="uni01D5" unicode="&#x1d5;" horiz-adv-x="649" 
d="M194 857q-4 6 -7 14t-3 17q0 17 8 24t22 7h237q3 -5 6 -13.5t3 -16.5q0 -32 -30 -32h-236zM561 210q0 -51 -15.5 -92t-46 -70t-74.5 -45t-101 -16t-101 16t-74 45t-45.5 70t-15.5 92v396q5 2 15.5 4.5t22.5 2.5q43 0 43 -37v-359q0 -40 12 -70t32.5 -50.5t49 -30.5
t61.5 -10t61.5 10t49 30.5t32.5 50.5t12 70v389q5 2 15.5 4.5t22.5 2.5q44 0 44 -37v-366zM286 738q0 -20 -14 -34t-36 -14q-21 0 -34.5 14t-13.5 34t13.5 34t34.5 14q22 0 36 -14t14 -34zM459 738q0 -20 -14.5 -34t-35.5 -14q-20 0 -34.5 14t-14.5 34t14.5 34t34.5 14
q21 0 35.5 -14t14.5 -34z" />
    <glyph glyph-name="uni01D6" unicode="&#x1d6;" horiz-adv-x="550" 
d="M141 739q-4 6 -7 14t-3 17q0 17 8 24t22 7h237q3 -5 6 -13.5t3 -16.5q0 -32 -30 -32h-236zM75 460q5 2 15.5 4.5t22.5 2.5q42 0 42 -37v-257q0 -65 34 -92.5t94 -27.5q40 0 68 8.5t44 17.5v381q5 2 15.5 4.5t21.5 2.5q43 0 43 -37v-348q0 -21 -5.5 -33.5t-26.5 -24.5
q-23 -13 -63.5 -25t-97.5 -12q-100 0 -153.5 44t-53.5 138v291zM236 601q0 -20 -14 -34t-36 -14q-21 0 -34.5 14t-13.5 34t13.5 34t34.5 14q22 0 36 -14t14 -34zM409 601q0 -20 -14.5 -34t-35.5 -14q-20 0 -34.5 14t-14.5 34t14.5 34t34.5 14q21 0 35.5 -14t14.5 -34z" />
    <glyph glyph-name="uni01D7" unicode="&#x1d7;" horiz-adv-x="649" 
d="M561 210q0 -51 -15.5 -92t-46 -70t-74.5 -45t-101 -16t-101 16t-74 45t-45.5 70t-15.5 92v396q5 2 15.5 4.5t22.5 2.5q43 0 43 -37v-359q0 -40 12 -70t32.5 -50.5t49 -30.5t61.5 -10t61.5 10t49 30.5t32.5 50.5t12 70v389q5 2 15.5 4.5t22.5 2.5q44 0 44 -37v-366z
M286 738q0 -20 -14 -34t-36 -14q-21 0 -34.5 14t-13.5 34t13.5 34t34.5 14q22 0 36 -14t14 -34zM459 738q0 -20 -14.5 -34t-35.5 -14q-20 0 -34.5 14t-14.5 34t14.5 34t34.5 14q21 0 35.5 -14t14.5 -34zM386 967q19 -1 30.5 -11t11.5 -21q0 -13 -6.5 -21.5t-16.5 -19.5
l-66 -72q-19 0 -29.5 9t-10.5 20q0 8 3 13.5t9 13.5z" />
    <glyph glyph-name="uni01D8" unicode="&#x1d8;" horiz-adv-x="550" 
d="M75 460q5 2 15.5 4.5t22.5 2.5q42 0 42 -37v-257q0 -65 34 -92.5t94 -27.5q40 0 68 8.5t44 17.5v381q5 2 15.5 4.5t21.5 2.5q43 0 43 -37v-348q0 -21 -5.5 -33.5t-26.5 -24.5q-23 -13 -63.5 -25t-97.5 -12q-100 0 -153.5 44t-53.5 138v291zM236 601q0 -20 -14 -34
t-36 -14q-21 0 -34.5 14t-13.5 34t13.5 34t34.5 14q22 0 36 -14t14 -34zM409 601q0 -20 -14.5 -34t-35.5 -14q-20 0 -34.5 14t-14.5 34t14.5 34t34.5 14q21 0 35.5 -14t14.5 -34zM334 839q19 -1 30.5 -11t11.5 -21q0 -13 -6.5 -21.5t-16.5 -19.5l-66 -72q-19 0 -29.5 9
t-10.5 20q0 8 3 13.5t9 13.5z" />
    <glyph glyph-name="uni01D9" unicode="&#x1d9;" horiz-adv-x="649" 
d="M561 210q0 -51 -15.5 -92t-46 -70t-74.5 -45t-101 -16t-101 16t-74 45t-45.5 70t-15.5 92v396q5 2 15.5 4.5t22.5 2.5q43 0 43 -37v-359q0 -40 12 -70t32.5 -50.5t49 -30.5t61.5 -10t61.5 10t49 30.5t32.5 50.5t12 70v389q5 2 15.5 4.5t22.5 2.5q44 0 44 -37v-366z
M286 738q0 -20 -14 -34t-36 -14q-21 0 -34.5 14t-13.5 34t13.5 34t34.5 14q22 0 36 -14t14 -34zM459 738q0 -20 -14.5 -34t-35.5 -14q-20 0 -34.5 14t-14.5 34t14.5 34t34.5 14q21 0 35.5 -14t14.5 -34zM201 927q1 17 10 25.5t22 8.5q12 0 19 -5t16 -16l53 -62l78 83
q19 -1 28.5 -9.5t9.5 -19.5q0 -13 -4.5 -19.5t-15.5 -17.5l-62 -63q-8 -9 -16 -12t-16 -3q-11 0 -18.5 4.5t-15.5 12.5z" />
    <glyph glyph-name="uni01DA" unicode="&#x1da;" horiz-adv-x="550" 
d="M75 460q5 2 15.5 4.5t22.5 2.5q42 0 42 -37v-257q0 -65 34 -92.5t94 -27.5q40 0 68 8.5t44 17.5v381q5 2 15.5 4.5t21.5 2.5q43 0 43 -37v-348q0 -21 -5.5 -33.5t-26.5 -24.5q-23 -13 -63.5 -25t-97.5 -12q-100 0 -153.5 44t-53.5 138v291zM155 801q1 17 10 25.5t22 8.5
q12 0 19 -5t16 -16l53 -62l78 83q19 -1 28.5 -9.5t9.5 -19.5q0 -13 -4.5 -19.5t-15.5 -17.5l-62 -63q-8 -9 -16 -12t-16 -3q-11 0 -18.5 4.5t-15.5 12.5zM236 601q0 -20 -14 -34t-36 -14q-21 0 -34.5 14t-13.5 34t13.5 34t34.5 14q22 0 36 -14t14 -34zM409 601
q0 -20 -14.5 -34t-35.5 -14q-20 0 -34.5 14t-14.5 34t14.5 34t34.5 14q21 0 35.5 -14t14.5 -34z" />
    <glyph glyph-name="uni01DB" unicode="&#x1db;" horiz-adv-x="649" 
d="M561 210q0 -51 -15.5 -92t-46 -70t-74.5 -45t-101 -16t-101 16t-74 45t-45.5 70t-15.5 92v396q5 2 15.5 4.5t22.5 2.5q43 0 43 -37v-359q0 -40 12 -70t32.5 -50.5t49 -30.5t61.5 -10t61.5 10t49 30.5t32.5 50.5t12 70v389q5 2 15.5 4.5t22.5 2.5q44 0 44 -37v-366z
M286 738q0 -20 -14 -34t-36 -14q-21 0 -34.5 14t-13.5 34t13.5 34t34.5 14q22 0 36 -14t14 -34zM459 738q0 -20 -14.5 -34t-35.5 -14q-20 0 -34.5 14t-14.5 34t14.5 34t34.5 14q21 0 35.5 -14t14.5 -34zM212 930q1 17 10.5 27t22.5 10q12 0 20 -6.5t16 -16.5l70 -89
q-2 -17 -10.5 -25t-19.5 -8q-14 0 -29 16z" />
    <glyph glyph-name="uni01DC" unicode="&#x1dc;" horiz-adv-x="550" 
d="M75 460q5 2 15.5 4.5t22.5 2.5q42 0 42 -37v-257q0 -65 34 -92.5t94 -27.5q40 0 68 8.5t44 17.5v381q5 2 15.5 4.5t21.5 2.5q43 0 43 -37v-348q0 -21 -5.5 -33.5t-26.5 -24.5q-23 -13 -63.5 -25t-97.5 -12q-100 0 -153.5 44t-53.5 138v291zM236 601q0 -20 -14 -34
t-36 -14q-21 0 -34.5 14t-13.5 34t13.5 34t34.5 14q22 0 36 -14t14 -34zM409 601q0 -20 -14.5 -34t-35.5 -14q-20 0 -34.5 14t-14.5 34t14.5 34t34.5 14q21 0 35.5 -14t14.5 -34zM161 802q1 17 10.5 27t22.5 10q12 0 20 -6.5t16 -16.5l70 -89q-2 -17 -10.5 -25t-19.5 -8
q-14 0 -29 16z" />
    <glyph glyph-name="Gcaron" unicode="&#x1e6;" horiz-adv-x="639" 
d="M570 70q0 -18 -10.5 -30t-31.5 -23q-25 -12 -69 -21t-89 -9q-70 0 -128 19t-100 58t-65 98.5t-23 140.5q0 80 24 140t65.5 99.5t96.5 59t117 19.5q42 0 77.5 -7t60.5 -18.5t39 -25.5t14 -28t-8 -24t-19 -15q-27 18 -64 33.5t-95 15.5q-48 0 -89 -16t-71 -47t-47 -78
t-17 -108q0 -65 17.5 -111.5t49 -76.5t74 -44.5t92.5 -14.5q36 0 68 6t50 15v184h-151q-3 5 -6 13.5t-3 18.5q0 17 8 26.5t23 9.5h167q18 0 30.5 -11.5t12.5 -30.5v-217zM437 814q18 -2 31 -10.5t13 -22.5q0 -12 -7.5 -21t-18.5 -20l-60 -60q-11 -11 -21.5 -15.5t-24.5 -4.5
q-15 0 -26.5 6t-22.5 19l-83 88q0 19 9 29t24 10q11 0 21 -6t24 -22l54 -63z" />
    <glyph glyph-name="gcaron" unicode="&#x1e7;" horiz-adv-x="537" 
d="M384 48q-17 -14 -46.5 -24t-70.5 -10q-44 0 -83 12.5t-68.5 40t-47 71.5t-17.5 107q0 57 17 100t47.5 72t72.5 43.5t93 14.5q46 0 84.5 -11.5t64.5 -28.5q15 -10 24.5 -22.5t9.5 -30.5v-402q0 -50 -16.5 -84.5t-46 -56t-69.5 -31.5t-86 -10q-51 0 -86.5 10.5t-48.5 18.5
q-30 17 -30 43q0 14 6.5 23.5t16.5 14.5q21 -16 59 -29.5t83 -13.5q67 0 102.5 28.5t35.5 91.5v63zM276 80q40 0 65.5 12.5t42.5 28.5v260q-17 11 -42.5 19.5t-60.5 8.5q-68 0 -108.5 -41t-40.5 -122q0 -45 11 -76.5t30.5 -51.5t46 -29t56.5 -9zM277 583l88 97
q20 -2 31.5 -11t11.5 -23q0 -11 -7 -20t-18 -21l-63 -64q-10 -10 -20 -15t-24 -5t-25.5 6.5t-23.5 19.5l-85 93q0 15 9 26.5t24 11.5q13 0 21.5 -5.5t19.5 -18.5z" />
    <glyph glyph-name="uni01EA" unicode="&#x1ea;" horiz-adv-x="689" 
d="M634 304q0 -72 -18.5 -128t-52 -95.5t-79.5 -62t-101 -28.5q-14 -12 -22.5 -27t-8.5 -36q0 -27 17 -40t46 -13h15q6 -12 6 -23q0 -16 -11 -26t-38 -10q-22 0 -41.5 6.5t-34 19t-23 30t-8.5 40.5q0 26 9 45t23 33q-56 4 -103 26.5t-81.5 62.5t-54 96.5t-19.5 129.5
q0 78 22.5 137t61.5 99t92 60.5t114 20.5t114 -20.5t92 -60.5t61.5 -99t22.5 -137zM551 304q0 120 -56.5 184t-150.5 64q-47 0 -85 -16.5t-65 -48t-41.5 -77.5t-14.5 -106q0 -120 56 -184t150 -64q95 0 151 64t56 184z" />
    <glyph glyph-name="uni01EB" unicode="&#x1eb;" horiz-adv-x="553" 
d="M504 231q0 -97 -47 -160t-128 -79q-15 -12 -24.5 -27.5t-9.5 -37.5q0 -27 17 -40t46 -13h15q6 -12 6 -23q0 -16 -11 -26t-38 -10q-22 0 -41.5 6.5t-34 19t-23 30t-8.5 40.5q0 26 9 44.5t22 32.5q-47 3 -85 21.5t-64.5 50t-41 75t-14.5 96.5q0 56 16.5 101t46.5 77t72 49
t93 17t93 -17t71.5 -49t46 -77t16.5 -101zM277 409q-68 0 -107 -47t-39 -131q0 -85 38.5 -131.5t107.5 -46.5t107 47t38 131t-38.5 131t-106.5 47z" />
    <glyph glyph-name="Aringacute" unicode="&#x1fa;" horiz-adv-x="592" 
d="M428 162h-268q-7 -20 -15 -43.5t-15.5 -46t-14.5 -42t-11 -32.5q-14 -6 -33 -6q-16 0 -28.5 8.5t-12.5 27.5q0 9 3 18.5t7 20.5q15 42 38.5 108t51 140.5t56 150t52.5 135.5q8 4 24 8t33 4q20 0 38.5 -6t23.5 -20q24 -58 51.5 -132.5t55.5 -152.5t53.5 -153.5
t45.5 -136.5q-8 -9 -19 -14.5t-25 -5.5q-19 0 -29 8.5t-17 28.5zM294 545q-11 -30 -25 -68.5t-29 -80.5t-30 -85t-28 -82h225q-15 45 -31 90.5t-30.5 87.5t-27 77.5t-20.5 60.5h-4zM353 1018q19 -1 30.5 -11t11.5 -21q0 -13 -6.5 -21.5t-16.5 -19.5l-66 -72q-19 0 -29.5 9
t-10.5 20q0 8 3 13.5t9 13.5zM191 744q0 39 28 65t78 26q51 0 78.5 -26t27.5 -65q0 -38 -27.5 -64t-78.5 -26q-50 0 -78 26t-28 64zM251 744q0 -19 13 -30t33 -11t33.5 11t13.5 30q0 20 -13.5 31t-33.5 11t-33 -11t-13 -31z" />
    <glyph glyph-name="aringacute" unicode="&#x1fb;" horiz-adv-x="499" 
d="M240 52q42 0 69.5 8.5t39.5 16.5v145l-124 -13q-52 -5 -77 -23.5t-25 -54.5q0 -38 29 -58.5t88 -20.5zM239 475q87 0 138 -39t51 -123v-237q0 -22 -8.5 -33.5t-25.5 -21.5q-24 -14 -63.5 -24.5t-90.5 -10.5q-94 0 -145.5 37t-51.5 107q0 66 43 99.5t121 41.5l142 14v28
q0 50 -30 73t-81 23q-42 0 -79 -12t-66 -27q-8 7 -14.5 16t-6.5 20q0 14 7 23t22 17q27 14 62 21.5t76 7.5zM147 612q0 39 27 66t77 27t77 -27t27 -66t-27 -66t-77 -27t-77 27t-27 66zM205 612q0 -22 13 -34t33 -12t33.5 12t13.5 34t-13.5 34t-33.5 12t-33 -12t-13 -34z
M313 892q19 -1 30.5 -11t11.5 -21q0 -13 -6.5 -21.5t-16.5 -19.5l-66 -72q-19 0 -29.5 9t-10.5 20q0 8 3 13.5t9 13.5z" />
    <glyph glyph-name="AEacute" unicode="&#x1fc;" horiz-adv-x="844" 
d="M397 613q15 0 29 -4t22 -11q13 10 35 10h295q4 -5 7 -13.5t3 -18.5q0 -17 -8.5 -27t-22.5 -10h-273v-193h263q4 -5 7 -13.5t3 -18.5q0 -17 -8.5 -26.5t-22.5 -9.5h-242v-210h299q3 -5 6.5 -13t3.5 -19q0 -17 -8.5 -26.5t-22.5 -9.5h-316q-19 0 -30.5 12t-11.5 32v118
h-210l-86 -165q-7 -2 -12.5 -3.5t-16.5 -1.5q-40 0 -40 32q0 9 4 19.5t11 23.5l27 51t42.5 78.5t52.5 97t57.5 106t58.5 105.5t54 96q8 5 21 8.5t30 3.5zM230 229h174v312h-6zM513 820q22 -1 33.5 -11.5t11.5 -24.5t-5.5 -23t-19.5 -21l-85 -76q-19 2 -29.5 10t-10.5 20
q0 10 4 17t10 13z" />
    <glyph glyph-name="aeacute" unicode="&#x1fd;" horiz-adv-x="811" 
d="M239 475q60 0 100 -20.5t59 -63.5q27 41 69 62.5t96 21.5q45 0 83 -15t65.5 -42.5t43 -65t15.5 -82.5q0 -22 -10 -31.5t-28 -11.5l-309 -43q14 -65 57.5 -98t114.5 -33q42 0 76 14t55 30q24 -14 24 -38q0 -14 -12.5 -27t-34 -23t-50 -16t-61.5 -6q-61 0 -106 19t-74 54
q-2 -18 -12.5 -29.5t-24.5 -18.5q-22 -11 -53 -18.5t-82 -7.5q-94 0 -145.5 37t-51.5 107q0 66 43 99.5t121 41.5l142 14v28q0 50 -30 73t-81 23q-42 0 -79 -12t-66 -27q-8 7 -14.5 16t-6.5 20q0 14 7 23t22 17q27 14 62 21.5t76 7.5zM240 52q42 0 69.5 8.5t39.5 16.5v145
l-124 -13q-52 -5 -77 -23.5t-25 -54.5q0 -38 29 -58.5t88 -20.5zM562 410q-62 0 -101.5 -42.5t-41.5 -120.5l275 37q-5 55 -38.5 90.5t-93.5 35.5zM476 689q22 -1 35.5 -12.5t13.5 -25.5t-6 -22.5t-20 -21.5l-91 -89q-20 0 -32 10.5t-12 23.5q0 8 5 15t10 13z" />
    <glyph glyph-name="Oslashacute" unicode="&#x1fe;" horiz-adv-x="689" 
d="M634 304q0 -78 -22 -137.5t-61 -99t-92 -60t-115 -20.5q-110 0 -187 63l-61 -66q-26 5 -36.5 17.5t-10.5 23.5q0 13 6.5 22.5t19.5 22.5l33 34q-26 38 -40 88.5t-14 111.5q0 78 22.5 137t61.5 99t92 60.5t114 20.5q51 0 96.5 -15t82.5 -44l58 64q20 -5 33.5 -15t13.5 -24
q0 -9 -5.5 -19t-19.5 -27l-29 -32q28 -39 44 -90.5t16 -114.5zM552 304q0 44 -8.5 80.5t-24.5 65.5l-310 -344q26 -24 60 -37t75 -13q95 0 151.5 64t56.5 184zM137 304q0 -82 29 -140l307 343q-53 45 -129 45q-47 0 -85 -16.5t-65 -48t-42 -77.5t-15 -106zM419 821
q22 -1 33.5 -11.5t11.5 -24.5t-5.5 -23t-19.5 -21l-85 -76q-19 2 -29.5 10t-10.5 20q0 10 4 17t10 13z" />
    <glyph glyph-name="oslashacute" unicode="&#x1ff;" horiz-adv-x="553" 
d="M504 231q0 -56 -16 -101t-45.5 -77t-71.5 -49t-94 -17q-60 0 -108 23l-48 -71q-23 0 -36.5 10t-13.5 25q0 9 6 18l39 56q-32 32 -49.5 78t-17.5 105q0 56 16.5 101t46.5 77t72 49t93 17q58 0 106 -23l47 71q21 0 35 -9.5t14 -26.5q0 -7 -6 -16l-38 -56q33 -32 51 -78.5
t18 -105.5zM424 231q0 76 -34 122l-182 -285q30 -15 69 -15q69 0 108 46.5t39 131.5zM277 409q-68 0 -108 -47t-40 -131q0 -75 32 -121l183 284q-30 15 -67 15zM344 689q22 -1 35.5 -12.5t13.5 -25.5t-6 -22.5t-20 -21.5l-91 -89q-20 0 -32 10.5t-12 23.5q0 8 5 15t10 13z
" />
    <glyph glyph-name="uni0200" unicode="&#x200;" horiz-adv-x="592" 
d="M428 162h-268q-7 -20 -15 -43.5t-15.5 -46t-14.5 -42t-11 -32.5q-14 -6 -33 -6q-16 0 -28.5 8.5t-12.5 27.5q0 9 3 18.5t7 20.5q15 42 38.5 108t51 140.5t56 150t52.5 135.5q8 4 24 8t33 4q20 0 38.5 -6t23.5 -20q24 -58 51.5 -132.5t55.5 -152.5t53.5 -153.5
t45.5 -136.5q-8 -9 -19 -14.5t-25 -5.5q-19 0 -29 8.5t-17 28.5zM294 545q-11 -30 -25 -68.5t-29 -80.5t-30 -85t-28 -82h225q-15 45 -31 90.5t-30.5 87.5t-27 77.5t-20.5 60.5h-4zM106 773v4q0 21 10 30t25 9q11 0 19.5 -6.5t14.5 -14.5l68 -96q-6 -32 -34 -32q-11 0 -20 6
t-15 14zM282 773v4q0 20 9.5 29.5t25.5 9.5q11 0 19.5 -6.5t14.5 -14.5l68 -96q-6 -32 -34 -32q-11 0 -19.5 6t-15.5 14z" />
    <glyph glyph-name="uni0201" unicode="&#x201;" horiz-adv-x="499" 
d="M242 640v6q0 19 10 28t25 9q20 0 35 -21l80 -113q-6 -32 -32 -32q-11 0 -19 5.5t-16 14.5zM74 640v6q0 19 10.5 28t25.5 9q19 0 34 -21l80 -113q-6 -32 -32 -32q-11 0 -19.5 6t-15.5 14zM240 52q42 0 69.5 8.5t39.5 16.5v145l-124 -13q-52 -5 -77 -23.5t-25 -54.5
q0 -38 29 -58.5t88 -20.5zM239 475q87 0 138 -39t51 -123v-237q0 -22 -8.5 -33.5t-25.5 -21.5q-24 -14 -63.5 -24.5t-90.5 -10.5q-94 0 -145.5 37t-51.5 107q0 66 43 99.5t121 41.5l142 14v28q0 50 -30 73t-81 23q-42 0 -79 -12t-66 -27q-8 7 -14.5 16t-6.5 20q0 14 7 23
t22 17q27 14 62 21.5t76 7.5z" />
    <glyph glyph-name="uni0202" unicode="&#x202;" horiz-adv-x="592" 
d="M428 162h-268q-7 -20 -15 -43.5t-15.5 -46t-14.5 -42t-11 -32.5q-14 -6 -33 -6q-16 0 -28.5 8.5t-12.5 27.5q0 9 3 18.5t7 20.5q15 42 38.5 108t51 140.5t56 150t52.5 135.5q8 4 24 8t33 4q20 0 38.5 -6t23.5 -20q24 -58 51.5 -132.5t55.5 -152.5t53.5 -153.5
t45.5 -136.5q-8 -9 -19 -14.5t-25 -5.5q-19 0 -29 8.5t-17 28.5zM294 545q-11 -30 -25 -68.5t-29 -80.5t-30 -85t-28 -82h225q-15 45 -31 90.5t-30.5 87.5t-27 77.5t-20.5 60.5h-4zM296 749q-65 0 -76 -66q-4 -1 -8 -1.5t-9 -0.5q-16 0 -25.5 9t-9.5 29q0 16 8 31.5t24 28
t40 20.5t56 8q33 0 57 -8t40 -20.5t23.5 -28.5t7.5 -31q0 -38 -35 -38q-9 0 -17 2q-11 66 -76 66z" />
    <glyph glyph-name="uni0203" unicode="&#x203;" horiz-adv-x="499" 
d="M240 52q42 0 69.5 8.5t39.5 16.5v145l-124 -13q-52 -5 -77 -23.5t-25 -54.5q0 -38 29 -58.5t88 -20.5zM239 475q87 0 138 -39t51 -123v-237q0 -22 -8.5 -33.5t-25.5 -21.5q-24 -14 -63.5 -24.5t-90.5 -10.5q-94 0 -145.5 37t-51.5 107q0 66 43 99.5t121 41.5l142 14v28
q0 50 -30 73t-81 23q-42 0 -79 -12t-66 -27q-8 7 -14.5 16t-6.5 20q0 14 7 23t22 17q27 14 62 21.5t76 7.5zM235 613q-65 0 -76 -66q-4 -1 -8 -1.5t-9 -0.5q-16 0 -25.5 9t-9.5 29q0 16 8 31.5t24 28t40 20.5t56 8q33 0 57 -8t40 -20.5t23.5 -28.5t7.5 -31q0 -38 -35 -38
q-9 0 -17 2q-11 66 -76 66z" />
    <glyph glyph-name="uni0204" unicode="&#x204;" horiz-adv-x="531" 
d="M133 0q-20 0 -32 12t-12 32v520q0 20 12 32t32 12h332q3 -5 6 -13.5t3 -18.5q0 -17 -8 -27t-23 -10h-273v-193h264q3 -5 6 -13.5t3 -18.5q0 -17 -8 -26.5t-23 -9.5h-242v-210h300q3 -5 6 -13t3 -19q0 -17 -8 -26.5t-23 -9.5h-315zM102 773v4q0 21 10 30t25 9
q11 0 19.5 -6.5t14.5 -14.5l68 -96q-6 -32 -34 -32q-11 0 -20 6t-15 14zM278 773v4q0 20 9.5 29.5t25.5 9.5q11 0 19.5 -6.5t14.5 -14.5l68 -96q-6 -32 -34 -32q-11 0 -19.5 6t-15.5 14z" />
    <glyph glyph-name="uni0205" unicode="&#x205;" horiz-adv-x="519" 
d="M132 184q27 -131 172 -131q42 0 76 14t54 30q24 -14 24 -38q0 -14 -12.5 -27t-34 -23t-50 -16t-61.5 -6q-116 0 -183.5 63t-67.5 184q0 57 16.5 101.5t46 75.5t70.5 47.5t89 16.5q45 0 83 -15t65.5 -42.5t43 -65t15.5 -82.5q0 -22 -10 -31.5t-28 -11.5zM270 410
q-61 0 -101 -42.5t-42 -121.5l275 38q-5 55 -38.5 90.5t-93.5 35.5zM74 640v6q0 19 10.5 28t25.5 9q19 0 34 -21l80 -113q-6 -32 -32 -32q-11 0 -19.5 6t-15.5 14zM242 640v6q0 19 10 28t25 9q20 0 35 -21l80 -113q-6 -32 -32 -32q-11 0 -19 5.5t-16 14.5z" />
    <glyph glyph-name="uni0206" unicode="&#x206;" horiz-adv-x="531" 
d="M133 0q-20 0 -32 12t-12 32v520q0 20 12 32t32 12h332q3 -5 6 -13.5t3 -18.5q0 -17 -8 -27t-23 -10h-273v-193h264q3 -5 6 -13.5t3 -18.5q0 -17 -8 -26.5t-23 -9.5h-242v-210h300q3 -5 6 -13t3 -19q0 -17 -8 -26.5t-23 -9.5h-315zM307 732q-65 0 -76 -66q-4 -1 -8 -1.5
t-9 -0.5q-16 0 -25.5 9t-9.5 29q0 16 8 31.5t24 28t40 20.5t56 8q33 0 57 -8t40 -20.5t23.5 -28.5t7.5 -31q0 -38 -35 -38q-9 0 -17 2q-11 66 -76 66z" />
    <glyph glyph-name="uni0207" unicode="&#x207;" horiz-adv-x="519" 
d="M132 184q27 -131 172 -131q42 0 76 14t54 30q24 -14 24 -38q0 -14 -12.5 -27t-34 -23t-50 -16t-61.5 -6q-116 0 -183.5 63t-67.5 184q0 57 16.5 101.5t46 75.5t70.5 47.5t89 16.5q45 0 83 -15t65.5 -42.5t43 -65t15.5 -82.5q0 -22 -10 -31.5t-28 -11.5zM270 410
q-61 0 -101 -42.5t-42 -121.5l275 38q-5 55 -38.5 90.5t-93.5 35.5zM263 613q-65 0 -76 -66q-4 -1 -8 -1.5t-9 -0.5q-16 0 -25.5 9t-9.5 29q0 16 8 31.5t24 28t40 20.5t56 8q33 0 57 -8t40 -20.5t23.5 -28.5t7.5 -31q0 -38 -35 -38q-9 0 -17 2q-11 66 -76 66z" />
    <glyph glyph-name="uni0208" unicode="&#x208;" horiz-adv-x="262" 
d="M171 2q-5 -2 -15 -4.5t-22 -2.5q-44 0 -44 37v574q5 2 15.5 4.5t22.5 2.5q43 0 43 -37v-574zM-73 773v4q0 21 10 30t25 9q11 0 19.5 -6.5t14.5 -14.5l68 -96q-6 -32 -34 -32q-11 0 -20 6t-15 14zM103 773v4q0 20 9.5 29.5t25.5 9.5q11 0 19.5 -6.5t14.5 -14.5l68 -96
q-6 -32 -34 -32q-11 0 -19.5 6t-15.5 14z" />
    <glyph glyph-name="uni0209" unicode="&#x209;" horiz-adv-x="267" 
d="M160 2q-5 -2 -15 -4.5t-22 -2.5q-43 0 -43 36v429q5 2 15.5 4.5t22.5 2.5q42 0 42 -37v-428zM-57 645v6q0 19 10.5 28t25.5 9q19 0 34 -21l80 -113q-6 -32 -32 -32q-11 0 -19.5 6t-15.5 14zM111 645v6q0 19 10 28t25 9q20 0 35 -21l80 -113q-6 -32 -32 -32q-11 0 -19 5.5
t-16 14.5z" />
    <glyph glyph-name="uni020A" unicode="&#x20a;" horiz-adv-x="262" 
d="M171 2q-5 -2 -15 -4.5t-22 -2.5q-44 0 -44 37v574q5 2 15.5 4.5t22.5 2.5q43 0 43 -37v-574zM130 749q-65 0 -76 -66q-4 -1 -8 -1.5t-9 -0.5q-16 0 -25.5 9t-9.5 29q0 16 8 31.5t24 28t40 20.5t56 8q33 0 57 -8t40 -20.5t23.5 -28.5t7.5 -31q0 -38 -35 -38q-9 0 -17 2
q-11 66 -76 66z" />
    <glyph glyph-name="uni020B" unicode="&#x20b;" horiz-adv-x="241" 
d="M160 2q-5 -2 -15 -4.5t-22 -2.5q-43 0 -43 36v429q5 2 15.5 4.5t22.5 2.5q42 0 42 -37v-428zM118 613q-65 0 -76 -66q-4 -1 -8 -1.5t-9 -0.5q-16 0 -25.5 9t-9.5 29q0 16 8 31.5t24 28t40 20.5t56 8q33 0 57 -8t40 -20.5t23.5 -28.5t7.5 -31q0 -38 -35 -38q-9 0 -17 2
q-11 66 -76 66z" />
    <glyph glyph-name="uni020C" unicode="&#x20c;" horiz-adv-x="689" 
d="M634 304q0 -78 -22 -137.5t-61 -99t-92 -60t-115 -20.5t-115 20.5t-92 60t-61 99t-22 137.5t22.5 137t61.5 99t92 60.5t114 20.5t114 -20.5t92 -60.5t61.5 -99t22.5 -137zM551 304q0 120 -56.5 184t-150.5 64q-47 0 -85 -16.5t-65 -48t-41.5 -77.5t-14.5 -106
q0 -120 56 -184t150 -64q95 0 151 64t56 184zM145 773v4q0 21 10 30t25 9q11 0 19.5 -6.5t14.5 -14.5l68 -96q-6 -32 -34 -32q-11 0 -20 6t-15 14zM321 773v4q0 20 9.5 29.5t25.5 9.5q11 0 19.5 -6.5t14.5 -14.5l68 -96q-6 -32 -34 -32q-11 0 -19.5 6t-15.5 14z" />
    <glyph glyph-name="uni020D" unicode="&#x20d;" horiz-adv-x="553" 
d="M504 231q0 -56 -16 -101t-45.5 -77t-71.5 -49t-94 -17t-94 17t-72 49t-46 77t-16 101t16.5 101t46.5 77t72 49t93 17t93 -17t71.5 -49t46 -77t16.5 -101zM277 409q-68 0 -107 -47t-39 -131q0 -85 38.5 -131.5t107.5 -46.5t107 47t38 131t-38.5 131t-106.5 47zM84 640v6
q0 19 10.5 28t25.5 9q19 0 34 -21l80 -113q-6 -32 -32 -32q-11 0 -19.5 6t-15.5 14zM252 640v6q0 19 10 28t25 9q20 0 35 -21l80 -113q-6 -32 -32 -32q-11 0 -19 5.5t-16 14.5z" />
    <glyph glyph-name="uni020E" unicode="&#x20e;" horiz-adv-x="689" 
d="M634 304q0 -78 -22 -137.5t-61 -99t-92 -60t-115 -20.5t-115 20.5t-92 60t-61 99t-22 137.5t22.5 137t61.5 99t92 60.5t114 20.5t114 -20.5t92 -60.5t61.5 -99t22.5 -137zM551 304q0 120 -56.5 184t-150.5 64q-47 0 -85 -16.5t-65 -48t-41.5 -77.5t-14.5 -106
q0 -120 56 -184t150 -64q95 0 151 64t56 184zM344 749q-65 0 -76 -66q-4 -1 -8 -1.5t-9 -0.5q-16 0 -25.5 9t-9.5 29q0 16 8 31.5t24 28t40 20.5t56 8q33 0 57 -8t40 -20.5t23.5 -28.5t7.5 -31q0 -38 -35 -38q-9 0 -17 2q-11 66 -76 66z" />
    <glyph glyph-name="uni020F" unicode="&#x20f;" horiz-adv-x="553" 
d="M504 231q0 -56 -16 -101t-45.5 -77t-71.5 -49t-94 -17t-94 17t-72 49t-46 77t-16 101t16.5 101t46.5 77t72 49t93 17t93 -17t71.5 -49t46 -77t16.5 -101zM277 409q-68 0 -107 -47t-39 -131q0 -85 38.5 -131.5t107.5 -46.5t107 47t38 131t-38.5 131t-106.5 47zM276 613
q-65 0 -76 -66q-4 -1 -8 -1.5t-9 -0.5q-16 0 -25.5 9t-9.5 29q0 16 8 31.5t24 28t40 20.5t56 8q33 0 57 -8t40 -20.5t23.5 -28.5t7.5 -31q0 -38 -35 -38q-9 0 -17 2q-11 66 -76 66z" />
    <glyph glyph-name="uni0210" unicode="&#x210;" horiz-adv-x="589" 
d="M171 2q-6 -2 -16 -4.5t-22 -2.5q-44 0 -44 37v532q0 16 8 24.5t25 13.5q29 9 71.5 13t82.5 4q126 0 187.5 -50.5t61.5 -143.5q0 -69 -35.5 -116t-107.5 -67l50 -64t47.5 -60.5t40 -51.5t27.5 -36q-4 -17 -17.5 -27t-27.5 -10q-17 0 -28 8t-23 25l-146 204h-134v-228z
M285 298q74 0 116 32t42 95t-44 94.5t-126 31.5q-27 0 -54.5 -2.5t-48.5 -6.5v-244h115zM108 773v4q0 21 10 30t25 9q11 0 19.5 -6.5t14.5 -14.5l68 -96q-6 -32 -34 -32q-11 0 -20 6t-15 14zM284 773v4q0 20 9.5 29.5t25.5 9.5q11 0 19.5 -6.5t14.5 -14.5l68 -96
q-6 -32 -34 -32q-11 0 -19.5 6t-15.5 14z" />
    <glyph glyph-name="uni0211" unicode="&#x211;" horiz-adv-x="382" 
d="M155 2q-5 -2 -15 -4.5t-22 -2.5q-43 0 -43 36v339q0 23 8.5 36.5t28.5 26.5q26 17 70.5 29.5t100.5 12.5q80 0 80 -40q0 -10 -3 -18.5t-8 -14.5q-10 2 -26 4t-32 2q-46 0 -81 -9.5t-58 -22.5v-374zM34 640v6q0 19 10.5 28t25.5 9q19 0 34 -21l80 -113q-6 -32 -32 -32
q-11 0 -19.5 6t-15.5 14zM202 640v6q0 19 10 28t25 9q20 0 35 -21l80 -113q-6 -32 -32 -32q-11 0 -19 5.5t-16 14.5z" />
    <glyph glyph-name="uni0212" unicode="&#x212;" horiz-adv-x="589" 
d="M171 2q-6 -2 -16 -4.5t-22 -2.5q-44 0 -44 37v532q0 16 8 24.5t25 13.5q29 9 71.5 13t82.5 4q126 0 187.5 -50.5t61.5 -143.5q0 -69 -35.5 -116t-107.5 -67l50 -64t47.5 -60.5t40 -51.5t27.5 -36q-4 -17 -17.5 -27t-27.5 -10q-17 0 -28 8t-23 25l-146 204h-134v-228z
M285 298q74 0 116 32t42 95t-44 94.5t-126 31.5q-27 0 -54.5 -2.5t-48.5 -6.5v-244h115zM288 749q-65 0 -76 -66q-4 -1 -8 -1.5t-9 -0.5q-16 0 -25.5 9t-9.5 29q0 16 8 31.5t24 28t40 20.5t56 8q33 0 57 -8t40 -20.5t23.5 -28.5t7.5 -31q0 -38 -35 -38q-9 0 -17 2
q-11 66 -76 66z" />
    <glyph glyph-name="uni0213" unicode="&#x213;" horiz-adv-x="382" 
d="M155 2q-5 -2 -15 -4.5t-22 -2.5q-43 0 -43 36v339q0 23 8.5 36.5t28.5 26.5q26 17 70.5 29.5t100.5 12.5q80 0 80 -40q0 -10 -3 -18.5t-8 -14.5q-10 2 -26 4t-32 2q-46 0 -81 -9.5t-58 -22.5v-374zM215 613q-65 0 -76 -66q-4 -1 -8 -1.5t-9 -0.5q-16 0 -25.5 9t-9.5 29
q0 16 8 31.5t24 28t40 20.5t56 8q33 0 57 -8t40 -20.5t23.5 -28.5t7.5 -31q0 -38 -35 -38q-9 0 -17 2q-11 66 -76 66z" />
    <glyph glyph-name="uni0214" unicode="&#x214;" horiz-adv-x="649" 
d="M561 210q0 -51 -15.5 -92t-46 -70t-74.5 -45t-101 -16t-101 16t-74 45t-45.5 70t-15.5 92v396q5 2 15.5 4.5t22.5 2.5q43 0 43 -37v-359q0 -40 12 -70t32.5 -50.5t49 -30.5t61.5 -10t61.5 10t49 30.5t32.5 50.5t12 70v389q5 2 15.5 4.5t22.5 2.5q44 0 44 -37v-366z
M131 773v4q0 21 10 30t25 9q11 0 19.5 -6.5t14.5 -14.5l68 -96q-6 -32 -34 -32q-11 0 -20 6t-15 14zM307 773v4q0 20 9.5 29.5t25.5 9.5q11 0 19.5 -6.5t14.5 -14.5l68 -96q-6 -32 -34 -32q-11 0 -19.5 6t-15.5 14z" />
    <glyph glyph-name="uni0215" unicode="&#x215;" horiz-adv-x="550" 
d="M75 460q5 2 15.5 4.5t22.5 2.5q42 0 42 -37v-257q0 -65 34 -92.5t94 -27.5q40 0 68 8.5t44 17.5v381q5 2 15.5 4.5t21.5 2.5q43 0 43 -37v-348q0 -21 -5.5 -33.5t-26.5 -24.5q-23 -13 -63.5 -25t-97.5 -12q-100 0 -153.5 44t-53.5 138v291zM84 640v6q0 19 10.5 28t25.5 9
q19 0 34 -21l80 -113q-6 -32 -32 -32q-11 0 -19.5 6t-15.5 14zM252 640v6q0 19 10 28t25 9q20 0 35 -21l80 -113q-6 -32 -32 -32q-11 0 -19 5.5t-16 14.5z" />
    <glyph glyph-name="uni0216" unicode="&#x216;" horiz-adv-x="649" 
d="M561 210q0 -51 -15.5 -92t-46 -70t-74.5 -45t-101 -16t-101 16t-74 45t-45.5 70t-15.5 92v396q5 2 15.5 4.5t22.5 2.5q43 0 43 -37v-359q0 -40 12 -70t32.5 -50.5t49 -30.5t61.5 -10t61.5 10t49 30.5t32.5 50.5t12 70v389q5 2 15.5 4.5t22.5 2.5q44 0 44 -37v-366z
M324 749q-65 0 -76 -66q-4 -1 -8 -1.5t-9 -0.5q-16 0 -25.5 9t-9.5 29q0 16 8 31.5t24 28t40 20.5t56 8q33 0 57 -8t40 -20.5t23.5 -28.5t7.5 -31q0 -38 -35 -38q-9 0 -17 2q-11 66 -76 66z" />
    <glyph glyph-name="uni0217" unicode="&#x217;" horiz-adv-x="550" 
d="M75 460q5 2 15.5 4.5t22.5 2.5q42 0 42 -37v-257q0 -65 34 -92.5t94 -27.5q40 0 68 8.5t44 17.5v381q5 2 15.5 4.5t21.5 2.5q43 0 43 -37v-348q0 -21 -5.5 -33.5t-26.5 -24.5q-23 -13 -63.5 -25t-97.5 -12q-100 0 -153.5 44t-53.5 138v291zM275 613q-65 0 -76 -66
q-4 -1 -8 -1.5t-9 -0.5q-16 0 -25.5 9t-9.5 29q0 16 8 31.5t24 28t40 20.5t56 8q33 0 57 -8t40 -20.5t23.5 -28.5t7.5 -31q0 -38 -35 -38q-9 0 -17 2q-11 66 -76 66z" />
    <glyph glyph-name="Scommaaccent" unicode="&#x218;" horiz-adv-x="523" 
d="M257 55q67 0 101.5 30.5t34.5 78.5q0 42 -26.5 68t-83.5 43l-87 26q-64 19 -100.5 56t-36.5 100q0 38 14.5 68.5t41.5 51.5t64.5 32.5t84.5 11.5q40 0 74.5 -6.5t60 -18t39.5 -25.5t14 -29q0 -14 -7 -24t-18 -16q-26 20 -67.5 35t-92.5 15q-59 0 -92.5 -25t-33.5 -70
q0 -35 24 -57t80 -38l61 -18q79 -23 124.5 -64.5t45.5 -115.5q0 -79 -57 -128t-162 -49q-46 0 -83.5 8t-64 21t-41 28.5t-14.5 30.5q0 17 10.5 28.5t24.5 16.5q11 -11 27 -22.5t37 -21t47 -15.5t57 -6zM258 -201q-15 -18 -38 -18q-21 0 -31 13q14 35 26 71.5t15 65.5
q17 7 36 7q16 0 26.5 -7.5t10.5 -22.5q0 -12 -4 -27.5t-11 -30.5t-15 -28.5t-15 -22.5z" />
    <glyph glyph-name="scommaaccent" unicode="&#x219;" horiz-adv-x="447" 
d="M401 123q0 -64 -47 -100t-136 -36q-38 0 -70 6.5t-54.5 17t-35 24t-12.5 27.5q0 12 6.5 23t19.5 19q27 -20 63 -35.5t82 -15.5q104 0 104 70q0 57 -69 74l-83 22q-61 16 -89 46.5t-28 78.5q0 26 10.5 50t32.5 42t54.5 28.5t76.5 10.5q70 0 113 -20.5t43 -47.5
q0 -13 -6.5 -23t-17.5 -15q-18 12 -51 26t-78 14t-71.5 -17t-26.5 -48q0 -23 15 -39t50 -24l69 -17q68 -17 102 -50.5t34 -90.5zM229 -201q-15 -18 -38 -18q-21 0 -31 13q14 35 26 71.5t15 65.5q17 7 36 7q16 0 26.5 -7.5t10.5 -22.5q0 -12 -4 -27.5t-11 -30.5t-15 -28.5
t-15 -22.5z" />
    <glyph glyph-name="uni021A" unicode="&#x21a;" horiz-adv-x="523" 
d="M302 539v-537q-5 -2 -15.5 -4.5t-21.5 -2.5q-44 0 -44 37v507h-187q-3 5 -6 13.5t-3 19.5q0 17 8 26.5t23 9.5h433q3 -5 6 -13.5t3 -18.5q0 -17 -8 -27t-23 -10h-165zM255 -201q-15 -18 -38 -18q-21 0 -31 13q14 35 26 71.5t15 65.5q17 7 36 7q16 0 26.5 -7.5t10.5 -22.5
q0 -12 -4 -27.5t-11 -30.5t-15 -28.5t-15 -22.5z" />
    <glyph glyph-name="uni021B" unicode="&#x21b;" horiz-adv-x="372" 
d="M233 -13q-70 0 -113.5 31t-43.5 103v475q5 2 15.5 4.5t22.5 2.5q42 0 42 -36v-115h164q3 -5 6 -13.5t3 -18.5q0 -34 -30 -34h-143v-260q0 -40 22.5 -56.5t63.5 -16.5q17 0 38 6t35 14q6 -6 11 -15t5 -21q0 -22 -26 -36t-72 -14zM200 -201q-15 -18 -38 -18q-21 0 -31 13
q14 35 26 71.5t15 65.5q17 7 36 7q16 0 26.5 -7.5t10.5 -22.5q0 -12 -4 -27.5t-11 -30.5t-15 -28.5t-15 -22.5z" />
    <glyph glyph-name="uni022A" unicode="&#x22a;" horiz-adv-x="689" 
d="M212 857q-4 6 -7 14t-3 17q0 17 8 24t22 7h237q3 -5 6 -13.5t3 -16.5q0 -32 -30 -32h-236zM634 304q0 -78 -22 -137.5t-61 -99t-92 -60t-115 -20.5t-115 20.5t-92 60t-61 99t-22 137.5t22.5 137t61.5 99t92 60.5t114 20.5t114 -20.5t92 -60.5t61.5 -99t22.5 -137z
M551 304q0 120 -56.5 184t-150.5 64q-47 0 -85 -16.5t-65 -48t-41.5 -77.5t-14.5 -106q0 -120 56 -184t150 -64q95 0 151 64t56 184zM306 738q0 -20 -14 -34t-36 -14q-21 0 -34.5 14t-13.5 34t13.5 34t34.5 14q22 0 36 -14t14 -34zM479 738q0 -20 -14.5 -34t-35.5 -14
q-20 0 -34.5 14t-14.5 34t14.5 34t34.5 14q21 0 35.5 -14t14.5 -34z" />
    <glyph glyph-name="uni022B" unicode="&#x22b;" horiz-adv-x="553" 
d="M147 739q-4 6 -7 14t-3 17q0 17 8 24t22 7h237q3 -5 6 -13.5t3 -16.5q0 -32 -30 -32h-236zM504 231q0 -56 -16 -101t-45.5 -77t-71.5 -49t-94 -17t-94 17t-72 49t-46 77t-16 101t16.5 101t46.5 77t72 49t93 17t93 -17t71.5 -49t46 -77t16.5 -101zM277 409q-68 0 -107 -47
t-39 -131q0 -85 38.5 -131.5t107.5 -46.5t107 47t38 131t-38.5 131t-106.5 47zM240 601q0 -20 -14 -34t-36 -14q-21 0 -34.5 14t-13.5 34t13.5 34t34.5 14q22 0 36 -14t14 -34zM413 601q0 -20 -14.5 -34t-35.5 -14q-20 0 -34.5 14t-14.5 34t14.5 34t34.5 14q21 0 35.5 -14
t14.5 -34z" />
    <glyph glyph-name="uni022C" unicode="&#x22c;" horiz-adv-x="689" 
d="M212 857q-4 6 -7 14t-3 17q0 17 8 24t22 7h237q3 -5 6 -13.5t3 -16.5q0 -32 -30 -32h-236zM272 786q21 0 39 -5.5t33.5 -11.5t29.5 -11.5t27 -5.5q18 0 26.5 10.5t12.5 27.5h6q18 0 32 -8.5t14 -29.5q0 -29 -20 -45.5t-53 -16.5q-21 0 -40 5.5t-35.5 12t-30.5 12t-26 5.5
q-18 0 -26 -11t-12 -28h-6q-18 0 -32 9t-14 29q0 29 23 45.5t52 16.5zM634 304q0 -78 -22 -137.5t-61 -99t-92 -60t-115 -20.5t-115 20.5t-92 60t-61 99t-22 137.5t22.5 137t61.5 99t92 60.5t114 20.5t114 -20.5t92 -60.5t61.5 -99t22.5 -137zM551 304q0 120 -56.5 184
t-150.5 64q-47 0 -85 -16.5t-65 -48t-41.5 -77.5t-14.5 -106q0 -120 56 -184t150 -64q95 0 151 64t56 184z" />
    <glyph glyph-name="uni022D" unicode="&#x22d;" horiz-adv-x="553" 
d="M155 739q-4 6 -7 14t-3 17q0 17 8 24t22 7h237q3 -5 6 -13.5t3 -16.5q0 -32 -30 -32h-236zM504 231q0 -56 -16 -101t-45.5 -77t-71.5 -49t-94 -17t-94 17t-72 49t-46 77t-16 101t16.5 101t46.5 77t72 49t93 17t93 -17t71.5 -49t46 -77t16.5 -101zM277 409q-68 0 -107 -47
t-39 -131q0 -85 38.5 -131.5t107.5 -46.5t107 47t38 131t-38.5 131t-106.5 47zM206 651q21 0 39 -5.5t33.5 -11.5t29.5 -11.5t27 -5.5q18 0 26.5 10.5t12.5 27.5h6q18 0 32 -8.5t14 -29.5q0 -29 -20 -45.5t-53 -16.5q-21 0 -40 5.5t-35.5 12t-30.5 12t-26 5.5q-18 0 -26 -11
t-12 -28h-6q-18 0 -32 9t-14 29q0 29 23 45.5t52 16.5z" />
    <glyph glyph-name="uni0230" unicode="&#x230;" horiz-adv-x="689" 
d="M212 857q-4 6 -7 14t-3 17q0 17 8 24t22 7h237q3 -5 6 -13.5t3 -16.5q0 -32 -30 -32h-236zM634 304q0 -78 -22 -137.5t-61 -99t-92 -60t-115 -20.5t-115 20.5t-92 60t-61 99t-22 137.5t22.5 137t61.5 99t92 60.5t114 20.5t114 -20.5t92 -60.5t61.5 -99t22.5 -137z
M551 304q0 120 -56.5 184t-150.5 64q-47 0 -85 -16.5t-65 -48t-41.5 -77.5t-14.5 -106q0 -120 56 -184t150 -64q95 0 151 64t56 184zM395 730q0 -22 -14 -35.5t-37 -13.5t-36.5 13.5t-13.5 35.5q0 23 13.5 36.5t36.5 13.5t37 -13.5t14 -36.5z" />
    <glyph glyph-name="uni0231" unicode="&#x231;" horiz-adv-x="553" 
d="M147 739q-4 6 -7 14t-3 17q0 17 8 24t22 7h237q3 -5 6 -13.5t3 -16.5q0 -32 -30 -32h-236zM504 231q0 -56 -16 -101t-45.5 -77t-71.5 -49t-94 -17t-94 17t-72 49t-46 77t-16 101t16.5 101t46.5 77t72 49t93 17t93 -17t71.5 -49t46 -77t16.5 -101zM277 409q-68 0 -107 -47
t-39 -131q0 -85 38.5 -131.5t107.5 -46.5t107 47t38 131t-38.5 131t-106.5 47zM327 607q0 -22 -14 -35.5t-37 -13.5t-36.5 13.5t-13.5 35.5q0 23 13.5 36.5t36.5 13.5t37 -13.5t14 -36.5z" />
    <glyph glyph-name="uni0232" unicode="&#x232;" horiz-adv-x="550" 
d="M523 580q0 -11 -15 -42.5t-42 -78.5t-64.5 -107t-82.5 -127v-223q-5 -2 -15.5 -4.5t-21.5 -2.5q-44 0 -44 37v193q-28 41 -57.5 87t-58.5 93t-55 92t-46 85q4 11 15 21.5t29 10.5q19 0 29.5 -10t21.5 -30q16 -28 37.5 -66t44 -77t43.5 -75.5t36 -60.5h4q52 87 92.5 162
t80.5 150q6 4 14.5 5.5t16.5 1.5q38 0 38 -34zM155 690q-4 6 -7.5 14t-3.5 18q0 17 9 25t23 8h228q4 -6 7 -14.5t3 -17.5q0 -33 -32 -33h-227z" />
    <glyph glyph-name="uni0233" unicode="&#x233;" horiz-adv-x="489" 
d="M169 103q-13 24 -30 61t-35.5 83t-37.5 97.5t-36 104.5q7 10 18.5 16t24.5 6q17 0 27.5 -9t18.5 -30q30 -85 62.5 -167t73.5 -172h4q16 31 33 75.5t33.5 94.5t31 101.5t25.5 98.5q7 3 15 5.5t19 2.5q17 0 28 -8.5t11 -25.5q0 -20 -14 -73t-36.5 -119t-51.5 -135.5
t-59 -123.5q-47 -85 -84.5 -130.5t-69.5 -45.5q-23 0 -35.5 12t-15.5 28q16 14 36 36t40 47.5t38 52.5t30 52q-17 5 -31.5 17.5t-32.5 47.5zM131 570q-4 6 -7.5 14t-3.5 18q0 17 9 25t23 8h228q4 -6 7 -14.5t3 -17.5q0 -33 -32 -33h-227z" />
    <glyph glyph-name="uni0237" unicode="&#x237;" horiz-adv-x="243" 
d="M163 -42q0 -45 -12 -74.5t-29.5 -47t-36.5 -24.5t-33 -7q-25 0 -34.5 14.5t-11.5 34.5q18 8 32.5 16.5t24 21t15 31t5.5 47.5v490q5 2 15.5 4.5t22.5 2.5q42 0 42 -37v-472v0z" />
    <glyph glyph-name="uni0251" unicode="&#x251;" horiz-adv-x="552" 
d="M471 108q0 -33 9.5 -51t23.5 -32q-2 -16 -13.5 -27t-31.5 -11q-37 0 -55 48q-21 -21 -58 -34.5t-83 -13.5q-43 0 -81.5 13t-68 42t-47 74.5t-17.5 111.5q0 63 18.5 109t51 77t75.5 46t93 15q49 0 87.5 -12.5t63.5 -27.5q13 -8 23 -20.5t10 -30.5v-276zM274 53
q41 0 72.5 15t44.5 35v278q-15 10 -41.5 19t-61.5 9q-30 0 -58.5 -9.5t-50.5 -31t-35 -56t-13 -84.5q0 -91 40 -133t103 -42z" />
    <glyph glyph-name="uni0259" unicode="&#x259;" horiz-adv-x="516" 
d="M34 193q0 22 10 31.5t28 11.5l309 43q-14 68 -57 99.5t-106 31.5q-42 0 -76.5 -14t-54.5 -30q-25 14 -25 38q0 14 13 27t34.5 23t50.5 16t62 6q116 0 178.5 -66t62.5 -181q0 -59 -16.5 -104t-45.5 -75.5t-69.5 -46t-89.5 -15.5q-48 0 -86.5 16.5t-65.5 44.5t-41.5 65
t-14.5 79zM243 53q61 0 100.5 40t41.5 123l-275 -37q6 -59 39.5 -92.5t93.5 -33.5z" />
    <glyph glyph-name="uni0261" unicode="&#x261;" horiz-adv-x="537" 
d="M384 48q-17 -14 -46.5 -24t-70.5 -10q-44 0 -83 12.5t-68.5 40t-47 71.5t-17.5 107q0 57 17 100t47.5 72t72.5 43.5t93 14.5q46 0 84.5 -11.5t64.5 -28.5q15 -10 24.5 -22.5t9.5 -30.5v-402q0 -50 -16.5 -84.5t-46 -56t-69.5 -31.5t-86 -10q-51 0 -86.5 10.5t-48.5 18.5
q-30 17 -30 43q0 14 6.5 23.5t16.5 14.5q21 -16 59 -29.5t83 -13.5q67 0 102.5 28.5t35.5 91.5v63zM276 80q40 0 65.5 12.5t42.5 28.5v260q-17 11 -42.5 19.5t-60.5 8.5q-68 0 -108.5 -41t-40.5 -122q0 -45 11 -76.5t30.5 -51.5t46 -29t56.5 -9z" />
    <glyph glyph-name="uni02BB" unicode="&#x2bb;" horiz-adv-x="129" 
d="M51 600q11 27 37 27q8 0 17 -3t14 -8q-3 -19 -7.5 -44t-8 -52l-7 -54t-4.5 -49q-17 -7 -37 -7q-18 0 -28.5 9.5t-10.5 29.5q0 15 3.5 36.5t9 43.5t11.5 41t11 30z" />
    <glyph glyph-name="uni02BC" unicode="&#x2bc;" horiz-adv-x="127" 
d="M79 437q-7 -14 -15 -20.5t-22 -6.5q-9 0 -17.5 3t-14.5 8q3 19 7.5 43.5t8 51.5t6.5 53.5t5 49.5q18 6 38 6q17 0 27.5 -9.5t10.5 -29.5q0 -15 -3.5 -36t-9 -42.5t-11.5 -40.5t-10 -30z" />
    <glyph glyph-name="uni02BE" unicode="&#x2be;" horiz-adv-x="175" 
d="M90 523q0 35 -20 53.5t-53 18.5q-2 4 -2.5 10t-0.5 8q0 17 11 25.5t31 8.5q18 0 36 -7.5t33 -22.5t24 -38.5t9 -55.5t-9 -55.5t-24 -39t-33 -23t-36 -7.5q-20 0 -31 8.5t-11 25.5q0 2 0.5 7.5t2.5 9.5q33 0 53 19.5t20 54.5z" />
    <glyph glyph-name="uni02BF" unicode="&#x2bf;" horiz-adv-x="175" 
d="M85 523q0 -35 20 -54.5t52 -19.5q2 -4 2.5 -9.5t0.5 -7.5q0 -34 -41 -34q-18 0 -36.5 7.5t-33 23t-23.5 39t-9 55.5t9 55.5t23.5 38.5t33 22.5t36.5 7.5q41 0 41 -34q0 -2 -0.5 -8t-2.5 -10q-32 0 -52 -18.5t-20 -53.5z" />
    <glyph glyph-name="circumflex" unicode="&#x2c6;" horiz-adv-x="348" 
d="M176 618q-23 -28 -45.5 -51.5t-42.5 -46.5q-18 2 -30 10.5t-12 22.5q0 11 6 19t16 19l61 66q13 11 23 17t24 6q16 0 26 -6t21 -18l84 -100q0 -14 -7.5 -24t-23.5 -10q-12 0 -19.5 5.5t-15.5 13.5z" />
    <glyph glyph-name="caron" unicode="&#x2c7;" horiz-adv-x="350" 
d="M175 583l88 97q20 -2 31.5 -11t11.5 -23q0 -11 -7 -20t-18 -21l-63 -64q-10 -10 -20 -15t-24 -5t-25.5 6.5t-23.5 19.5l-85 93q0 15 9 26.5t24 11.5q13 0 21.5 -5.5t19.5 -18.5z" />
    <glyph glyph-name="uni02C8" unicode="&#x2c8;" horiz-adv-x="342" 
d="M218 526q-7 -3 -14.5 -5t-16.5 -2q-33 0 -33 34v144q7 3 14 5t18 2q32 0 32 -34v-144z" />
    <glyph glyph-name="uni02C9" unicode="&#x2c9;" horiz-adv-x="322" 
d="M40 570q-4 6 -7.5 14t-3.5 18q0 17 9 25t23 8h228q4 -6 7 -14.5t3 -17.5q0 -33 -32 -33h-227z" />
    <glyph glyph-name="uni02CA" unicode="&#x2ca;" horiz-adv-x="309" 
d="M185 687q22 -1 35.5 -12.5t13.5 -25.5t-6 -22.5t-20 -21.5l-91 -89q-20 0 -32 10.5t-12 23.5q0 8 5 15t10 13z" />
    <glyph glyph-name="uni02CB" unicode="&#x2cb;" horiz-adv-x="292" 
d="M56 634q-2 10 -2 13q0 16 10.5 26t27.5 10q21 0 35 -17l90 -113q-1 -16 -10 -25.5t-23 -9.5q-11 0 -18.5 4t-15.5 12z" />
    <glyph glyph-name="uni02CC" unicode="&#x2cc;" horiz-adv-x="382" 
d="M218 -272q-7 -3 -14.5 -5t-16.5 -2q-33 0 -33 34v144q7 3 14 5t18 2q32 0 32 -34v-144z" />
    <glyph glyph-name="breve" unicode="&#x2d8;" horiz-adv-x="336" 
d="M169 599q65 0 76 66q4 1 8 1.5t9 0.5q16 0 25.5 -9t9.5 -29q0 -16 -8 -31.5t-24 -28t-40 -20.5t-56 -8q-33 0 -57 8t-40 20.5t-23.5 28.5t-7.5 31q0 38 35 38q9 0 17 -2q11 -66 76 -66z" />
    <glyph glyph-name="dotaccent" unicode="&#x2d9;" horiz-adv-x="206" 
d="M152 607q0 -22 -14 -35.5t-37 -13.5t-36.5 13.5t-13.5 35.5q0 23 13.5 36.5t36.5 13.5t37 -13.5t14 -36.5z" />
    <glyph glyph-name="ring" unicode="&#x2da;" horiz-adv-x="286" 
d="M36 612q0 39 27 66t77 27t77 -27t27 -66t-27 -66t-77 -27t-77 27t-27 66zM94 612q0 -22 13 -34t33 -12t33.5 12t13.5 34t-13.5 34t-33.5 12t-33 -12t-13 -34z" />
    <glyph glyph-name="ogonek" unicode="&#x2db;" horiz-adv-x="235" 
d="M174 5q-21 -14 -36.5 -32t-15.5 -46q0 -27 17 -40t46 -13h15q6 -12 6 -23q0 -16 -11 -26t-38 -10q-22 0 -41.5 6.5t-34 19t-23 30t-8.5 40.5q0 22 7 39.5t18 30t23.5 21.5t23.5 15z" />
    <glyph glyph-name="tilde" unicode="&#x2dc;" horiz-adv-x="374" 
d="M115 651q21 0 39 -5.5t33.5 -11.5t29.5 -11.5t27 -5.5q18 0 26.5 10.5t12.5 27.5h6q18 0 32 -8.5t14 -29.5q0 -29 -20 -45.5t-53 -16.5q-21 0 -40 5.5t-35.5 12t-30.5 12t-26 5.5q-18 0 -26 -11t-12 -28h-6q-18 0 -32 9t-14 29q0 29 23 45.5t52 16.5z" />
    <glyph glyph-name="hungarumlaut" unicode="&#x2dd;" horiz-adv-x="488" 
d="M166 687q22 -1 35 -11t13 -24t-7 -23.5t-18 -23.5l-71 -89q-20 0 -32 9.5t-12 22.5q0 9 4 16t9 14zM334 687q22 -1 35 -11t13 -24t-7 -23.5t-18 -23.5l-71 -89q-20 0 -31.5 9.5t-11.5 22.5q0 9 3.5 16t8.5 14z" />
    <glyph glyph-name="gravecomb" unicode="&#x300;" 
d="M-246 634q-2 10 -2 13q0 16 10.5 26t27.5 10q21 0 35 -17l90 -113q-1 -16 -10 -25.5t-23 -9.5q-11 0 -18.5 4t-15.5 12z" />
    <glyph glyph-name="acutecomb" unicode="&#x301;" 
d="M-113 687q22 -1 35.5 -12.5t13.5 -25.5t-6 -22.5t-20 -21.5l-91 -89q-20 0 -32 10.5t-12 23.5q0 8 5 15t10 13z" />
    <glyph glyph-name="uni0302" unicode="&#x302;" horiz-adv-x="348" 
d="M176 618q-23 -28 -45.5 -51.5t-42.5 -46.5q-18 2 -30 10.5t-12 22.5q0 11 6 19t16 19l61 66q13 11 23 17t24 6q16 0 26 -6t21 -18l84 -100q0 -14 -7.5 -24t-23.5 -10q-12 0 -19.5 5.5t-15.5 13.5z" />
    <glyph glyph-name="tildecomb" unicode="&#x303;" 
d="M-257 663q19 0 36.5 -5t33 -11t29 -11t25.5 -5q20 0 30 10.5t14 24.5q22 -1 35.5 -10.5t13.5 -29.5q0 -25 -20 -42t-56 -17q-20 0 -37.5 5t-32.5 10.5t-28.5 10.5t-25.5 5q-20 0 -30 -10.5t-14 -24.5q-22 1 -35.5 10.5t-13.5 30.5q0 25 20 42t56 17z" />
    <glyph glyph-name="uni0304" unicode="&#x304;" horiz-adv-x="321" 
d="M40 570q-4 6 -7.5 14t-3.5 18q0 17 9 25t23 8h228q4 -6 7 -14.5t3 -17.5q0 -33 -32 -33h-227z" />
    <glyph glyph-name="uni0306" unicode="&#x306;" horiz-adv-x="336" 
d="M169 599q65 0 76 66q4 1 8 1.5t9 0.5q16 0 25.5 -9t9.5 -29q0 -16 -8 -31.5t-24 -28t-40 -20.5t-56 -8q-33 0 -57 8t-40 20.5t-23.5 28.5t-7.5 31q0 38 35 38q9 0 17 -2q11 -66 76 -66z" />
    <glyph glyph-name="uni0307" unicode="&#x307;" horiz-adv-x="206" 
d="M152 607q0 -22 -14 -35.5t-37 -13.5t-36.5 13.5t-13.5 35.5q0 23 13.5 36.5t36.5 13.5t37 -13.5t14 -36.5z" />
    <glyph glyph-name="uni0308" unicode="&#x308;" horiz-adv-x="374" 
d="M154 606q0 -20 -14 -34t-36 -14q-21 0 -34.5 14t-13.5 34t13.5 34t34.5 14q22 0 36 -14t14 -34zM327 606q0 -20 -14.5 -34t-35.5 -14q-20 0 -34.5 14t-14.5 34t14.5 34t34.5 14q21 0 35.5 -14t14.5 -34z" />
    <glyph glyph-name="hookabovecomb" unicode="&#x309;" 
d="M-134 696q38 0 66 -20t28 -61q0 -35 -22 -52.5t-51 -20.5v-20q-4 -2 -11.5 -4t-18.5 -2q-31 0 -31 17v27q0 27 27 27h7q37 0 37 27q0 11 -8.5 19.5t-28.5 8.5q-13 0 -25.5 -4.5t-23.5 -10.5q-7 3 -14 10t-7 19q0 10 7 17.5t18 12.5t24.5 7.5t26.5 2.5z" />
    <glyph glyph-name="uni030A" unicode="&#x30a;" horiz-adv-x="286" 
d="M36 612q0 39 27 66t77 27t77 -27t27 -66t-27 -66t-77 -27t-77 27t-27 66zM94 612q0 -22 13 -34t33 -12t33.5 12t13.5 34t-13.5 34t-33.5 12t-33 -12t-13 -34z" />
    <glyph glyph-name="uni030B" unicode="&#x30b;" horiz-adv-x="298" 
d="M157 687q22 -1 35 -11t13 -24t-7 -23.5t-18 -23.5l-71 -89q-20 0 -32 9.5t-12 22.5q0 9 4 16t9 14zM325 687q22 -1 35 -11t13 -24t-7 -23.5t-18 -23.5l-71 -89q-20 0 -31.5 9.5t-11.5 22.5q0 9 3.5 16t8.5 14z" />
    <glyph glyph-name="uni030C" unicode="&#x30c;" horiz-adv-x="350" 
d="M175 583l88 97q20 -2 31.5 -11t11.5 -23q0 -11 -7 -20t-18 -21l-63 -64q-10 -10 -20 -15t-24 -5t-25.5 6.5t-23.5 19.5l-85 93q0 15 9 26.5t24 11.5q13 0 21.5 -5.5t19.5 -18.5z" />
    <glyph glyph-name="uni030F" unicode="&#x30f;" horiz-adv-x="302" 
d="M54 638v6q0 19 10.5 28t25.5 9q19 0 34 -21l80 -113q-6 -32 -32 -32q-11 0 -19.5 6t-15.5 14zM222 638v6q0 19 10 28t25 9q20 0 35 -21l80 -113q-6 -32 -32 -32q-11 0 -19 5.5t-16 14.5z" />
    <glyph glyph-name="uni0311" unicode="&#x311;" horiz-adv-x="336" 
d="M169 749q-65 0 -76 -66q-4 -1 -8 -1.5t-9 -0.5q-16 0 -25.5 9t-9.5 29q0 16 8 31.5t24 28t40 20.5t56 8q33 0 57 -8t40 -20.5t23.5 -28.5t7.5 -31q0 -38 -35 -38q-9 0 -17 2q-11 66 -76 66z" />
    <glyph glyph-name="uni0312" unicode="&#x312;" horiz-adv-x="129" 
d="M62 652q15 18 38 18q21 0 31 -13q-14 -35 -26 -71.5t-15 -65.5q-17 -7 -36 -7q-16 0 -26.5 7.5t-10.5 22.5q0 12 4 27.5t11 30.5t14.5 28.5t15.5 22.5z" />
    <glyph glyph-name="uni031B" unicode="&#x31b;" horiz-adv-x="218" 
d="M4 341q-4 6 -5.5 23.5t-1.5 30.5q16 0 30.5 3.5t26 13t18 26t6.5 41.5v34q16 9 35 9q15 0 25.5 -8.5t10.5 -28.5v-12q0 -36 -11 -61t-29 -40.5t-41 -23t-47 -7.5h-17z" />
    <glyph glyph-name="dotbelowcomb" unicode="&#x323;" 
d="M-54 -129q0 -22 -14.5 -36t-37.5 -14t-36.5 14t-13.5 36t13.5 36t36.5 14t37.5 -14t14.5 -36z" />
    <glyph glyph-name="uni0324" unicode="&#x324;" horiz-adv-x="374" 
d="M154 -131q0 -20 -14 -34t-36 -14q-21 0 -34.5 14t-13.5 34t13.5 34t34.5 14q22 0 36 -14t14 -34zM327 -131q0 -20 -14.5 -34t-35.5 -14q-20 0 -34.5 14t-14.5 34t14.5 34t34.5 14q21 0 35.5 -14t14.5 -34z" />
    <glyph glyph-name="uni0326" unicode="&#x326;" horiz-adv-x="200" 
d="M106 -201q-15 -18 -38 -18q-21 0 -31 13q14 35 26 71.5t15 65.5q17 7 36 7q16 0 26.5 -7.5t10.5 -22.5q0 -12 -4 -27.5t-11 -30.5t-15 -28.5t-15 -22.5z" />
    <glyph glyph-name="uni0327" unicode="&#x327;" horiz-adv-x="195" 
d="M111 17q28 -20 40 -45.5t12 -56.5q0 -48 -30 -76t-78 -28q-52 0 -52 36q0 13 6 24h15q36 0 52.5 15.5t16.5 41.5q0 17 -7.5 37t-24.5 37z" />
    <glyph glyph-name="uni0328" unicode="&#x328;" horiz-adv-x="235" 
d="M174 5q-21 -14 -36.5 -32t-15.5 -46q0 -27 17 -40t46 -13h15q6 -12 6 -23q0 -16 -11 -26t-38 -10q-22 0 -41.5 6.5t-34 19t-23 30t-8.5 40.5q0 22 7 39.5t18 30t23.5 21.5t23.5 15z" />
    <glyph glyph-name="uni032E" unicode="&#x32e;" horiz-adv-x="336" 
d="M169 -129q65 0 76 66q4 1 8 1.5t9 0.5q16 0 25.5 -9t9.5 -29q0 -16 -8 -31.5t-24 -28t-40 -20.5t-56 -8q-33 0 -57 8t-40 20.5t-23.5 28.5t-7.5 31q0 38 35 38q9 0 17 -2q11 -66 76 -66z" />
    <glyph glyph-name="uni0331" unicode="&#x331;" horiz-adv-x="368" 
d="M51 -183q-4 6 -7 14.5t-3 17.5q0 33 32 33h246q4 -6 7 -14.5t3 -17.5q0 -33 -32 -33h-246z" />
    <glyph glyph-name="pi" unicode="&#x3c0;" horiz-adv-x="626" 
d="M55 396q-3 5 -6.5 13.5t-3.5 19.5q0 33 31 33h495q3 -5 6 -13.5t3 -18.5q0 -34 -32 -34h-60v-307q0 -22 11.5 -30.5t30.5 -8.5q2 -5 2 -9.5v-8.5q0 -15 -11.5 -27t-37.5 -12q-33 0 -54.5 21.5t-21.5 68.5v313h-192v-395q-5 -2 -14.5 -4t-20.5 -2q-45 0 -45 36v365h-80v0z
" />
    <glyph glyph-name="Danda.gm" unicode="&#x964;" horiz-adv-x="270" 
d="M129 591q41 0 41 -33v-558q-6 -2 -13.5 -3t-15.5 -1q-41 0 -41 33v558q6 2 13.5 3t15.5 1z" />
    <glyph glyph-name="Doubledanda.gm" unicode="&#x965;" horiz-adv-x="498" 
d="M129 591q41 0 41 -33v-558q-6 -2 -13.5 -3t-15.5 -1q-41 0 -41 33v558q6 2 13.5 3t15.5 1zM357 591q41 0 41 -33v-558q-6 -2 -13.5 -3t-15.5 -1q-41 0 -41 33v558q6 2 13.5 3t15.5 1z" />
    <glyph glyph-name="AddakBindi.gm" unicode="&#xa01;" 
d="M-112 634q-35 0 -62.5 9t-46.5 23.5t-29 32.5t-10 36q0 34 31 34q5 0 9.5 -1t6.5 -2q5 -32 28.5 -55.5t71.5 -23.5q49 0 72.5 24t28.5 55q2 1 5.5 2t7.5 1q15 0 24.5 -8.5t9.5 -26.5t-9.5 -35.5t-28 -32t-46 -23.5t-63.5 -9zM-113 741q-18 0 -31 12t-13 30q0 19 13 32
t31 13t31.5 -13t13.5 -32q0 -18 -13.5 -30t-31.5 -12z" />
    <glyph glyph-name="Bindi.gm" unicode="&#xa02;" 
d="M-121 662q-22 0 -37 15t-15 37q0 23 16 37t36 14q21 0 36.5 -14t15.5 -37q0 -22 -14.5 -37t-37.5 -15z" />
    <glyph glyph-name="Visarga.gm" unicode="&#xa03;" horiz-adv-x="215" 
d="M107 340q-20 0 -35.5 14t-15.5 37t15 37.5t36 14.5q22 0 37 -14t15 -38q0 -23 -15.5 -37t-36.5 -14zM107 103q-20 0 -35.5 14t-15.5 37t15 37.5t36 14.5q22 0 37 -14t15 -38q0 -23 -15.5 -37t-36.5 -14z" />
    <glyph glyph-name="VowelA.gm" unicode="&#xa05;" horiz-adv-x="710" 
d="M84 204q-18 0 -30.5 11t-14.5 30q11 11 24.5 26.5t25 37t19 51t7.5 68.5q0 29 -4.5 52t-12.5 50h-100q-27 0 -27 31q0 13 4 26h177q13 -25 23.5 -71t10.5 -114q42 36 87.5 63.5t94.5 43.5q14 -26 30 -78.5t17 -126.5h136v234q0 26 10.5 37.5t39.5 11.5h111q27 0 27 -28
q0 -6 -1 -13.5t-3 -15.5h-114v-530q-6 -2 -13.5 -3t-15.5 -1q-41 0 -41 33v211h-141q-11 -73 -40 -112.5t-60 -39.5q-18 0 -30.5 9.5t-16.5 28.5q14 12 28.5 29.5t26 41.5t18.5 54t7 68q0 58 -12 102q-14 -7 -33 -18t-41 -27t-45 -36.5t-44 -45.5q-16 -45 -38.5 -67.5
t-45.5 -22.5z" />
    <glyph glyph-name="VowelAa.gm" unicode="&#xa06;" horiz-adv-x="956" 
d="M867 530v-308q-6 -2 -13.5 -3t-15.5 -1q-40 0 -40 33v279h-177v-530q-6 -2 -13.5 -3t-15.5 -1q-41 0 -41 33v211h-141q-11 -73 -40 -112.5t-60 -39.5q-18 0 -30.5 9.5t-16.5 28.5q14 12 28.5 29.5t26 41.5t18.5 54t7 68q0 58 -12 102q-14 -7 -33 -18t-41 -27t-45 -36.5
t-44 -45.5q-16 -45 -38.5 -67.5t-45.5 -22.5q-18 0 -30.5 11t-14.5 30q11 11 24.5 26.5t25 37t19 51t7.5 68.5q0 29 -4.5 52t-12.5 50h-100q-27 0 -27 31q0 13 4 26h177q13 -25 23.5 -71t10.5 -114q42 36 87.5 63.5t94.5 43.5q14 -26 30 -78.5t17 -126.5h136v234
q0 26 10.5 37.5t39.5 11.5h355q27 0 27 -29q0 -6 -1 -13t-3 -15h-112z" />
    <glyph glyph-name="VowelI.gm" unicode="&#xa07;" horiz-adv-x="823" 
d="M581 -8q-106 0 -177.5 49t-95.5 133q13 49 48.5 88t84.5 61q-45 23 -77 76t-36 131h-169v-530q-6 -2 -14 -3t-16 -1q-40 0 -40 33v501h-91q-27 0 -27 29q0 13 4 28h113v88q0 88 46 131t119 43q37 0 67.5 -11t51.5 -30.5t32.5 -45.5t11.5 -56q0 -26 -9.5 -40t-26.5 -14
q-19 0 -32 9q1 7 1.5 14.5t0.5 16.5q0 43 -27.5 68t-70.5 25q-39 0 -67 -25t-28 -84v-89h669q27 0 27 -28q0 -6 -1 -13.5t-3 -15.5h-105v-195q0 -24 -10 -36t-39 -12h-122q-34 0 -63.5 -8.5t-53.5 -23.5t-41 -36t-24 -45q19 -53 70 -84t120 -31q33 0 60 6t47.5 14t35 17.5
t24.5 17.5q30 -13 30 -40q0 -14 -7.5 -23.5t-18.5 -16.5q-24 -17 -65.5 -29.5t-105.5 -12.5zM676 351v179h-274q5 -64 35.5 -111.5t82.5 -69.5q10 1 20 1.5t20 0.5h116z" />
    <glyph glyph-name="VowelIi.gm" unicode="&#xa08;" horiz-adv-x="824" 
d="M705 -4q-40 0 -40 33v501h-168v-195q0 -24 -10 -36t-39 -12h-122q-34 0 -63.5 -8.5t-53.5 -23.5t-41 -36t-24 -45q19 -53 70 -84t120 -31q33 0 60 6t47.5 14t35 17.5t24.5 17.5q30 -13 30 -40q0 -14 -7.5 -23.5t-18.5 -16.5q-24 -17 -65.5 -29.5t-105.5 -12.5
q-106 0 -177.5 49t-95.5 133q13 49 48.5 88t84.5 61q-45 23 -77 76t-36 131h-83q-27 0 -27 29q0 13 4 28h690v92q0 55 -29.5 80.5t-70.5 25.5q-44 0 -68.5 -25t-24.5 -68q0 -9 0.5 -16.5t1.5 -14.5q-14 -9 -32 -9q-17 0 -27 14t-10 40q0 30 11.5 56t32.5 45.5t51 30.5t68 11
q35 0 65.5 -10.5t53 -31t35 -51.5t12.5 -73v-96h91q27 0 27 -29q0 -6 -1 -13t-3 -15h-113v-530q-6 -2 -14 -3t-16 -1zM429 351v179h-274q5 -64 35.5 -111.5t82.5 -69.5q10 1 20 1.5t20 0.5h116z" />
    <glyph glyph-name="VowelU.gm" unicode="&#xa09;" horiz-adv-x="602" 
d="M335 -6q-39 0 -70.5 9.5t-57 25.5t-44.5 37t-31 44q-14 25 -25.5 58t-20 75t-13 93.5t-4.5 115.5q0 16 1 37t3 41h-75q-27 0 -27 29q0 13 4 28h107q18 100 83.5 156t168.5 56q100 0 162 -54t73 -158h65q27 0 27 -30q0 -14 -4 -27h-85q-3 -37 -12.5 -73t-24.5 -67
t-37 -55.5t-51 -38.5q11 -6 24 -17.5t24.5 -29t19 -40t7.5 -49.5q0 -76 -50 -121t-137 -45zM339 338q35 0 64 15.5t50 41.5t33 61t13 74h-352q-2 -20 -3 -41.5t-1 -41.5q0 -33 1.5 -58.5t3.5 -50.5h191zM155 278q7 -48 20.5 -88t35.5 -69.5t52.5 -45.5t71.5 -16
q51 0 81.5 27t30.5 78q0 18 -4 35.5t-14 33t-27 27.5t-42 18h-205zM334 735q-69 0 -114.5 -36.5t-63.5 -111.5h340q-8 69 -52.5 108.5t-109.5 39.5zM329 -153q-71 0 -114.5 18t-43.5 44q0 24 26 32q15 -10 46 -22t86 -12t86 12t46 22q26 -8 26 -32q0 -26 -43.5 -44
t-114.5 -18z" />
    </font>
</defs>
</svg>
